<svg xmlns="http://www.w3.org/2000/svg" width="14.661" height="18" viewBox="0 0 14.661 18">
  <path id="building_1_" data-name="building (1)" d="M60.064,16.839H58.919V2.613a.581.581,0,0,0-.581-.581H53.984V.581A.581.581,0,0,0,53.4,0H49.375a.581.581,0,0,0-.581.581V2.032h-.472a.581.581,0,0,0-.581.581V16.839H46.6a.591.591,0,0,0-.6.553.581.581,0,0,0,.58.608h4.137a.29.29,0,0,0,.29-.29V14.371h-.238a.591.591,0,0,1-.6-.553.581.581,0,0,1,.58-.609h5.137a.591.591,0,0,1,.6.553.581.581,0,0,1-.58.609h-.254V17.71a.29.29,0,0,0,.29.29h4.137a.581.581,0,0,0,.58-.608A.591.591,0,0,0,60.064,16.839Zm-8.149-4.827h-.653a.581.581,0,1,1,0-1.161h.653a.581.581,0,0,1,0,1.161Zm0-2.177h-.653a.581.581,0,1,1,0-1.161h.653a.581.581,0,0,1,0,1.161Zm0-2.177h-.653a.581.581,0,1,1,0-1.161h.653a.581.581,0,0,1,0,1.161Zm0-2.177h-.653a.581.581,0,1,1,0-1.161h.653a.581.581,0,0,1,0,1.161Zm3.448,6.532H54.71a.581.581,0,0,1,0-1.161h.653a.581.581,0,0,1,0,1.161Zm0-2.177H54.71a.581.581,0,0,1,0-1.161h.653a.581.581,0,0,1,0,1.161Zm0-2.177H54.71a.581.581,0,0,1,0-1.161h.653a.581.581,0,0,1,0,1.161Zm0-2.177H54.71a.581.581,0,0,1,0-1.161h.653a.581.581,0,0,1,0,1.161ZM52.169,17.71V14.661a.29.29,0,0,1,.29-.29H54.2a.29.29,0,0,1,.29.29V17.71a.29.29,0,0,1-.29.29H52.46A.29.29,0,0,1,52.169,17.71Z" transform="translate(-46)" fill="#ff6f55"/>
</svg>
