<svg xmlns="http://www.w3.org/2000/svg" width="20.389" height="18" viewBox="0 0 20.389 18">
  <g id="checklist" transform="translate(0 -30)">
    <path id="Path_32975" data-name="Path 32975" d="M124.712,433.757h-1.473V433h-7.168v.757H114.6a.6.6,0,1,0,0,1.195h10.115a.6.6,0,1,0,0-1.195Z" transform="translate(-109.46 -386.951)" fill="#ff6f55"/>
    <path id="Path_32976" data-name="Path 32976" d="M90.6,283a.6.6,0,1,0,.6.6A.6.6,0,0,0,90.6,283Z" transform="translate(-86.416 -242.925)" fill="#ff6f55"/>
    <path id="Path_32977" data-name="Path 32977" d="M19.792,30H.6a.6.6,0,0,0-.6.6V44.257a.6.6,0,0,0,.6.6H19.792a.6.6,0,0,0,.6-.6V30.6A.6.6,0,0,0,19.792,30ZM3.2,33.051A.6.6,0,0,1,4.015,33l.443-.51a.6.6,0,0,1,.9.784l-.852.98a.6.6,0,0,1-.422.2H4.057a.6.6,0,0,1-.412-.164l-.426-.4a.6.6,0,0,1-.021-.844ZM5.36,36.58l-.852.98a.6.6,0,0,1-.422.2H4.057a.6.6,0,0,1-.412-.164l-.426-.4a.6.6,0,0,1,.8-.891l.443-.51a.6.6,0,0,1,.9.784ZM4.181,42.465a1.792,1.792,0,1,1,1.792-1.792A1.794,1.794,0,0,1,4.181,42.465ZM17.4,41.27H8.084a.6.6,0,1,1,0-1.195H17.4a.6.6,0,1,1,0,1.195Zm0-3.994H8.084a.6.6,0,1,1,0-1.195H17.4a.6.6,0,1,1,0,1.195Zm0-3.3H8.084a.6.6,0,1,1,0-1.195H17.4a.6.6,0,1,1,0,1.195Z" fill="#ff6f55"/>
  </g>
</svg>
