<svg xmlns="http://www.w3.org/2000/svg" width="24" height="13.902" viewBox="0 0 24 13.902">
  <g id="deal" transform="translate(0 -4.948)">
    <path id="Path_32978" data-name="Path 32978" d="M19,7.79v6.57a1.859,1.859,0,0,1-1.72.27l-.19-.07a3.063,3.063,0,0,0-.56-3.53L13.16,7.66l2.68-.94Z" fill="#ff6f55"/>
    <path id="Path_32979" data-name="Path 32979" d="M10.87,12.27l3.53,3.47v.01a1.94,1.94,0,0,1-.5.85,2.082,2.082,0,0,1-1.56.6L8.58,13.44a.4.4,0,0,0-.13.3.408.408,0,0,0,.19.35l3.57,3.5a1.992,1.992,0,0,1-.43.65,2.1,2.1,0,0,1-1.49.61,2.052,2.052,0,0,1-1.44-.58l-2.2-1.99a4.287,4.287,0,0,0-1.66-.94A.277.277,0,0,0,5,15.25V6.85L7.57,5.79a2.608,2.608,0,0,1,2.25.12l-.16.08a3.025,3.025,0,0,0-.79,4.85,3.026,3.026,0,0,0,1.88.87.352.352,0,0,0-.07.21.4.4,0,0,0,.19.35Z" fill="#ff6f55"/>
    <path id="Path_32980" data-name="Path 32980" d="M16.14,14.24a1.623,1.623,0,0,1-.31.43,2.127,2.127,0,0,1-1.33.65l-3.61-3.6h.12a3.117,3.117,0,0,0,1.38-.33l.32-.17,1.72-.87,1.39,1.39.01.01A2.075,2.075,0,0,1,16.14,14.24Z" fill="#ff6f55"/>
    <path id="Path_32981" data-name="Path 32981" d="M3.25,16H.75A.75.75,0,0,1,0,15.25V6.75A.75.75,0,0,1,.75,6h2.5A.75.75,0,0,1,4,6.75v8.5A.75.75,0,0,1,3.25,16Z" fill="#ff6f55"/>
    <path id="Path_32982" data-name="Path 32982" d="M23.25,16h-2.5a.75.75,0,0,1-.75-.75V6.75A.75.75,0,0,1,20.75,6h2.5a.75.75,0,0,1,.75.75v8.5A.75.75,0,0,1,23.25,16Z" fill="#ff6f55"/>
    <path id="Path_32983" data-name="Path 32983" d="M17.94,6.1c-.01,0-.02-.01-.04-.01l-2.29-.94a2.643,2.643,0,0,0-2.2.08L10.68,6.6l-.57.28a2.025,2.025,0,0,0-.53,3.25,2.03,2.03,0,0,0,2.35.37l.33-.17,1.43-.72,3.98-2L19,8.16V6.75a.648.648,0,0,1,.02-.2Z" fill="#ff6f55"/>
  </g>
</svg>
