<svg xmlns="http://www.w3.org/2000/svg" width="14.25" height="19" viewBox="0 0 14.25 19">
  <g id="lock" transform="translate(-64)">
    <g id="Group_22916" data-name="Group 22916" transform="translate(64)">
      <path id="Path_32993" data-name="Path 32993" d="M77.854,7.125H76.667V5.542a5.542,5.542,0,1,0-11.083,0V7.125H64.4a.4.4,0,0,0-.4.4v9.9A1.585,1.585,0,0,0,65.583,19H76.667a1.585,1.585,0,0,0,1.583-1.583v-9.9A.4.4,0,0,0,77.854,7.125ZM72.31,15.394a.4.4,0,0,1-.394.44H70.333a.4.4,0,0,1-.394-.44l.25-2.245a1.566,1.566,0,0,1-.648-1.273,1.583,1.583,0,1,1,3.167,0,1.566,1.566,0,0,1-.648,1.273Zm1.981-8.269H67.958V5.542a3.167,3.167,0,1,1,6.333,0Z" transform="translate(-64 0)" fill="#ff6f55"/>
    </g>
  </g>
</svg>
