<svg xmlns="http://www.w3.org/2000/svg" width="14.999" height="18" viewBox="0 0 14.999 18">
  <g id="notification" transform="translate(-42.675)">
    <g id="Group_22907" data-name="Group 22907" transform="translate(42.675)">
      <g id="Group_22906" data-name="Group 22906" transform="translate(0)">
        <path id="Path_32962" data-name="Path 32962" d="M57.621,15.182l-1.288-2.147a6.376,6.376,0,0,1-.909-3.281V7.875a5.257,5.257,0,0,0-3.75-5.029V1.5a1.5,1.5,0,0,0-3,0V2.846a5.257,5.257,0,0,0-3.75,5.029v1.88a6.38,6.38,0,0,1-.908,3.28l-1.288,2.147a.376.376,0,0,0,.321.569H57.3a.375.375,0,0,0,.322-.568Z" transform="translate(-42.675)" fill="#ff6f55"/>
      </g>
    </g>
    <g id="Group_22909" data-name="Group 22909" transform="translate(47.813 16.5)">
      <g id="Group_22908" data-name="Group 22908" transform="translate(0)">
        <path id="Path_32963" data-name="Path 32963" d="M188.815,469.333a2.609,2.609,0,0,0,4.723,0Z" transform="translate(-188.815 -469.333)" fill="#ff6f55"/>
      </g>
    </g>
  </g>
</svg>
