<svg xmlns="http://www.w3.org/2000/svg" width="17.057" height="17.057" viewBox="0 0 17.057 17.057"><defs><style>.a{fill:#dfe3eb;stroke:#dfe3eb;stroke-width:0.5px;}</style></defs><g transform="translate(0.25 0.25)"><path class="a" d="M14.616,3.622a1.94,1.94,0,0,0-1.94,1.94v.647H10.338a6.985,6.985,0,0,0,1.174-2.975,3.234,3.234,0,1,0-6.467,0A6.985,6.985,0,0,0,6.219,6.209H3.88V5.562a1.94,1.94,0,0,0-3.88,0V7.373a.323.323,0,0,0,.647,0V5.562a1.293,1.293,0,1,1,2.587,0v7.609a1.936,1.936,0,0,0-2.587,0V9.96A.323.323,0,0,0,0,9.96v4.657a1.993,1.993,0,0,0,2.032,1.94H14.616a1.942,1.942,0,0,0,1.94-1.94V5.562a1.942,1.942,0,0,0-1.94-1.94Zm-1.293,1.94a1.293,1.293,0,0,1,2.587,0v7.6a1.89,1.89,0,0,0-.782-.421,1.951,1.951,0,0,0-1.805.428V5.562Zm-.647,4.527H8.537l-3.4-3.234H6.611c.706,1.128,1.4,2.06,1.409,2.069a.323.323,0,0,0,.518,0c.007-.01.7-.942,1.409-2.069h2.73ZM8.278.647a2.59,2.59,0,0,1,2.587,2.587c0,1.2-1.894,3.977-2.587,4.947-.7-.986-2.587-3.758-2.587-4.947A2.59,2.59,0,0,1,8.278.647ZM.647,14.616a1.293,1.293,0,0,1,2.587,0,.323.323,0,1,0,.647,0V9.227l3.282,3.126L3.428,15.91h-1.4A1.343,1.343,0,0,1,.647,14.616Zm7.208-2.029a.323.323,0,0,0,0-.468L3.88,8.334V6.855H4.2l3.981,3.791a.323.323,0,0,0,.223.089h4.269v1.293H10.219a.323.323,0,0,0-.229.095L6.2,15.91H4.366Zm6.762,3.323h-7.5l3.234-3.234h2.324v1.94a.323.323,0,0,0,.647,0,1.3,1.3,0,0,1,1.643-1.248,1.274,1.274,0,0,1,.944,1.248,1.3,1.3,0,0,1-1.293,1.293Zm0,0"/><path class="a" d="M207.617,53.234A1.617,1.617,0,1,0,206,51.617,1.619,1.619,0,0,0,207.617,53.234Zm0-2.587a.97.97,0,1,1-.97.97A.971.971,0,0,1,207.617,50.647Zm0,0" transform="translate(-199.339 -48.383)"/><path class="a" d="M.323,258.647A.323.323,0,1,0,0,258.323.323.323,0,0,0,.323,258.647Zm0,0" transform="translate(0 -249.657)"/></g></svg>