<svg xmlns="http://www.w3.org/2000/svg" width="18.001" height="18.001" viewBox="0 0 18.001 18.001">
  <g id="term" transform="translate(0.001)">
    <path id="Path_32988" data-name="Path 32988" d="M141,13462a9,9,0,1,1,9-9A9.01,9.01,0,0,1,141,13462Zm-3.446-13.261a1.6,1.6,0,0,0-1.595,1.595v6.112a1.6,1.6,0,0,0,1.595,1.594h6.9a1.6,1.6,0,0,0,1.595-1.594.421.421,0,0,0-.841,0,.756.756,0,0,1-.753.757h-6.9a.758.758,0,0,1-.757-.757v-6.112a.756.756,0,0,1,.757-.753h.459v.361a.421.421,0,0,0,.841,0v-.361h1.706v.361a.421.421,0,0,0,.841,0v-.361h1.726v.361a.419.419,0,0,0,.838,0v-.361h.483a.754.754,0,0,1,.753.753v4.155a.421.421,0,0,0,.841,0v-4.155a1.6,1.6,0,0,0-1.595-1.595h-.483v-.364a.419.419,0,0,0-.838,0v.364H141.4v-.364a.421.421,0,0,0-.841,0v.364h-1.706v-.364a.421.421,0,0,0-.841,0v.364Zm3.429,6.689a.392.392,0,1,0,.389.393A.394.394,0,0,0,140.982,13455.43Zm0-3.926a.421.421,0,0,0-.422.419v2.527a.421.421,0,0,0,.841,0v-2.527A.419.419,0,0,0,140.982,13451.5Z" transform="translate(-132 -13444)" fill="#ff6f55"/>
  </g>
</svg>
