<svg xmlns="http://www.w3.org/2000/svg" width="20.896" height="18.486" viewBox="0 0 20.896 18.486">
  <g id="transaction" transform="translate(0 -29.539)">
    <g id="Group_22901" data-name="Group 22901" transform="translate(0 34.964)">
      <g id="Group_22900" data-name="Group 22900" transform="translate(0 0)">
        <path id="Path_32959" data-name="Path 32959" d="M18.084,171.3a1.808,1.808,0,0,1-1.49-.784l-.885-1.287a6.031,6.031,0,0,1-11.258-2.349h.573a.6.6,0,0,0,.5-.944l-.879-1.278L3.31,162.722a.6.6,0,0,0-.993,0l-2.21,3.215a.6.6,0,0,0,.5.944h.622a9.243,9.243,0,0,0,15.759,5.933,9.3,9.3,0,0,0,1.228-1.517C18.169,171.3,18.127,171.3,18.084,171.3Z" transform="translate(0 -162.461)" fill="#ff6f55"/>
      </g>
    </g>
    <g id="Group_22903" data-name="Group 22903" transform="translate(8.468 34.964)">
      <g id="Group_22902" data-name="Group 22902" transform="translate(0 0)">
        <path id="Path_32960" data-name="Path 32960" d="M209.913,165.678h-.919a.316.316,0,0,1-.316-.316V164.9a.316.316,0,0,1,.316-.316h.919a.316.316,0,0,1,.316.316.6.6,0,0,0,1.206,0,1.523,1.523,0,0,0-1.378-1.514v-.323a.6.6,0,0,0-1.206,0v.323a1.523,1.523,0,0,0-1.378,1.514v.459a1.523,1.523,0,0,0,1.521,1.521h.919a.316.316,0,0,1,.316.316v.459a.316.316,0,0,1-.316.316h-.919a.316.316,0,0,1-.316-.316.6.6,0,0,0-1.206,0,1.523,1.523,0,0,0,1.378,1.514v.323a.6.6,0,0,0,1.206,0v-.323a1.523,1.523,0,0,0,1.378-1.514V167.2A1.523,1.523,0,0,0,209.913,165.678Z" transform="translate(-207.473 -162.463)" fill="#ff6f55"/>
      </g>
    </g>
    <g id="Group_22905" data-name="Group 22905" transform="translate(2.685 29.539)">
      <g id="Group_22904" data-name="Group 22904" transform="translate(0 0)">
        <path id="Path_32961" data-name="Path 32961" d="M83.926,38.5a.6.6,0,0,0-.534-.322h-.622a9.243,9.243,0,0,0-15.759-5.933,9.3,9.3,0,0,0-1.228,1.517c.042,0,.085,0,.128,0a1.808,1.808,0,0,1,1.49.784l.885,1.287a6.031,6.031,0,0,1,11.258,2.349h-.573a.6.6,0,0,0-.5.944l.879,1.278,1.332,1.937a.6.6,0,0,0,.993,0l.8-1.161,1.412-2.054A.6.6,0,0,0,83.926,38.5Z" transform="translate(-65.784 -29.539)" fill="#ff6f55"/>
      </g>
    </g>
  </g>
</svg>
