<svg xmlns="http://www.w3.org/2000/svg" width="21" height="25" viewBox="0 0 21 25"><g><g><path d="M7.934 10.972a.93.93 0 1 0-1.316 1.316l2.6 2.6a.93.93 0 0 0 1.317 0l4.657-4.657a.93.93 0 1 0-1.316-1.316l-4 4zm11.16-1.194a13.724 13.724 0 0 1-8.189 12.56 13.725 13.725 0 0 1-8.188-12.56V5.797l8.188-3.4 8.188 3.4zm1.286-5.462L11.262.53a.93.93 0 0 0-.714 0L1.43 4.316a.93.93 0 0 0-.574.86v4.602c0 6.337 3.83 12.037 9.698 14.432a.93.93 0 0 0 .703 0 15.582 15.582 0 0 0 9.697-14.432V5.176a.93.93 0 0 0-.574-.86z"/></g></g></svg>