<?xml version="1.0" standalone="no"?>
<!DOCTYPE svg PUBLIC "-//W3C//DTD SVG 1.1//EN" "http://www.w3.org/Graphics/SVG/1.1/DTD/svg11.dtd" >
<svg xmlns="http://www.w3.org/2000/svg">
<metadata>Generated by IcoMoon</metadata>
<defs>
<font id="icomoon" horiz-adv-x="1024">
<font-face units-per-em="1024" ascent="960" descent="-64" />
<missing-glyph horiz-adv-x="1024" />
<glyph unicode="&#x20;" horiz-adv-x="512" d="" />
<glyph unicode="&#xe900;" glyph-name="deal" horiz-adv-x="1768" d="M1399.612 750.721v-483.971c-22.592-17.076-51.154-27.351-82.115-27.351-15.968 0-31.297 2.733-45.545 7.756l0.959-0.295-13.996 5.156c15.144 29.501 24.021 64.366 24.021 101.305 0 61.901-24.927 117.98-65.291 158.747l0.018-0.019-248.247 248.247 197.419 69.244zM800.725 420.708l260.033-255.613v-0.737c-7.082-24.632-19.846-45.737-36.824-62.607l-0.008-0.008c-27.697-27.419-65.812-44.36-107.884-44.36-2.473 0-4.933 0.059-7.377 0.174l0.346-0.013-276.976 276.976c-5.896-5.406-9.578-13.144-9.578-21.742 0-0.126 0.001-0.251 0.002-0.376v0.019c-0.001-0.112-0.002-0.244-0.002-0.376 0-10.643 5.532-19.994 13.878-25.334l0.12-0.072 262.98-257.823c-7.717-18.62-18.424-34.525-31.685-47.891l0.009 0.009c-27.956-27.772-66.48-44.937-109.012-44.937-0.263 0-0.525 0.001-0.788 0.002h0.040c-0.226-0.001-0.493-0.002-0.76-0.002-40.967 0-78.127 16.297-105.351 42.761l0.036-0.034-162.060 146.591c-33.837 30.957-74.775 54.755-120.044 68.653l-2.237 0.591c0.486 1.66 0.766 3.566 0.766 5.538 0 0.384-0.011 0.766-0.032 1.144l0.002-0.053v618.776l189.316 78.084c21.758 9.281 47.071 14.676 73.644 14.676 33.771 0 65.507-8.714 93.082-24.016l-0.983 0.5-11.786-5.893c-73.865-37.318-123.631-112.614-123.631-199.533 0-61.618 25.010-117.395 65.432-157.732l0.004-0.004c35.968-35.785 84.099-59.375 137.651-64.029l0.837-0.059c-3.21-4.259-5.145-9.637-5.156-15.467v-0.003c-0.005-0.208-0.008-0.453-0.008-0.699 0-10.551 5.545-19.806 13.88-25.011l0.124-0.072zM1188.933 275.59c-6.133-12.207-13.763-22.66-22.83-31.669l-0.006-0.006c-25.103-26.333-59.179-43.915-97.306-47.826l-0.667-0.055-265.926 265.19h8.84c37.092 0.195 72.046 9.155 102.958 24.911l-1.302-0.602 23.572 12.523 126.702 64.087 103.129-103.129c26.876-27.522 43.455-65.201 43.455-106.753 0-28.238-7.657-54.688-21.009-77.386l0.39 0.716zM239.407 145.942h-184.159c-30.513 0-55.248 24.735-55.248 55.248v0 626.142c0 30.513 24.735 55.248 55.248 55.248v0h184.159c30.513 0 55.248-24.735 55.248-55.248v0-626.142c0-30.513-24.735-55.248-55.248-55.248v0zM1712.683 145.942h-184.159c-30.513 0-55.248 24.735-55.248 55.248v0 626.142c0 30.513 24.735 55.248 55.248 55.248v0h184.159c30.513 0 55.248-24.735 55.248-55.248v0-626.142c0-30.513-24.735-55.248-55.248-55.248v0zM1321.528 875.213c-0.737 0-1.473 0.737-2.947 0.737l-168.69 69.244c-22.040 9.396-47.681 14.858-74.598 14.858-31.893 0-61.994-7.668-88.562-21.262l1.099 0.511-201.102-100.919-41.988-20.626c-49.568-24.941-82.981-75.409-82.981-133.681 0-41.315 16.797-78.708 43.934-105.721l0.005-0.005c27.027-26.86 64.276-43.462 105.402-43.462 24.705 0 48.011 5.991 68.544 16.599l-0.835-0.392 24.309 12.523 398.521 200.365 97.973-40.515v103.866c-0.048 0.799-0.075 1.733-0.075 2.674 0 4.286 0.565 8.44 1.624 12.392l-0.076-0.334z" />
<glyph unicode="&#xe901;" glyph-name="email" horiz-adv-x="1489" d="M987.386 440.305l502.191-317.432v647.97zM0 770.843v-648.308l502.191 317.432zM1396.394 960h-1303.296c-45.985-0.376-83.896-34.462-90.25-78.739l-0.058-0.492 741.998-488.831 741.998 488.831c-6.417 44.797-44.372 78.899-90.358 79.231h-0.035zM902.067 384.159l-131.657-86.757c-7.22-4.791-16.087-7.644-25.621-7.644s-18.401 2.853-25.795 7.752l0.173-0.108-131.742 86.841-584.466-369.689c6.673-44.441 44.41-78.181 90.1-78.554h1303.081c45.729 0.374 83.466 34.114 90.076 78.049l0.063 0.506z" />
<glyph unicode="&#xe902;" glyph-name="feedback" horiz-adv-x="1117" d="M1009.61 547.328c-2.634 1.125-5.699 1.78-8.917 1.78-6.435 0-12.26-2.617-16.466-6.845l-0.001-0.001-143.468-143.629c-9.438-9.46-21.584-16.214-35.176-19.002l-0.448-0.077-116.359-23.283c-4.119-0.863-8.851-1.358-13.7-1.358-38.546 0-69.794 31.248-69.794 69.794 0 4.848 0.494 9.581 1.435 14.151l-0.078-0.451 20.534 102.669h-371.173c-12.859 0-23.283 10.424-23.283 23.283s10.424 23.283 23.283 23.283v0h390.737c0.808 0.916 1.293 2.048 2.156 2.91l90.22 90.22h-483.112c-12.859 0-23.283 10.424-23.283 23.283s10.424 23.283 23.283 23.283v0h512c4.931-0.127 9.446-1.808 13.1-4.569l-0.057 0.041 150.905 150.905c12.725 12.617 27.966 22.719 44.902 29.484l0.909 0.32c8.668 3.519 14.669 11.874 14.669 21.631 0 8.086-4.122 15.21-10.38 19.384l-0.085 0.053c-14.403 9.625-32.117 15.36-51.17 15.36-0.010 0-0.021 0-0.031 0h-837.684c-51.361-0.061-92.984-41.666-93.076-93.013v-907.758c0-0.019 0-0.041 0-0.063 0-9.63 5.847-17.894 14.184-21.438l0.152-0.058c2.62-1.125 5.669-1.779 8.871-1.779 0.008 0 0.015 0 0.023 0h-0.001c6.486 0.091 12.318 2.82 16.484 7.16l225.935 225.935h665.277c51.304 0.061 92.893 41.573 93.076 92.843v264.102c-0.029 9.624-5.892 17.871-14.237 21.393l-0.153 0.057zM535.336 401.489h-279.336c-12.859 0-23.283 10.424-23.283 23.283s10.424 23.283 23.283 23.283v0h279.283c12.859 0 23.283-10.424 23.283-23.283s-10.424-23.283-23.283-23.283v0zM1027.988 866.924c-24.592-0.059-46.848-10.012-63.007-26.089l-283.267-283.213c-3.159-3.155-5.412-7.217-6.334-11.762l-0.025-0.149-23.283-116.413c-0.289-1.377-0.455-2.96-0.455-4.581 0-12.848 10.407-23.265 23.251-23.283h0.002c0.006 0 0.013 0 0.021 0 1.594 0 3.152 0.157 4.658 0.456l-0.151-0.025 116.305 23.283c4.695 0.945 8.757 3.198 11.91 6.359l283.326 283.272c16.159 16.128 26.155 38.425 26.155 63.057 0 49.202-39.886 89.088-89.088 89.088-0.006 0-0.012 0-0.017 0h0.001zM991.070 680.771l-60.2 60.2 32.93 32.93 60.2-60.2z" />
<glyph unicode="&#xe903;" glyph-name="written-conversation" d="M903.955 880.032h-47.993v79.968h-79.968v-79.968h-527.987v79.968h-80.030v-79.968h-47.993c-66.258-0.070-119.948-53.782-119.983-120.041v-703.945c0.070-66.237 53.747-119.913 119.976-119.983h783.979c66.237 0.070 119.913 53.747 119.983 119.976v703.949c-0.035 66.263-53.725 119.975-119.976 120.045h-0.007zM943.97 56.045c0-22.1-17.915-40.015-40.015-40.015v0h-783.972c-22.1 0-40.015 17.915-40.015 40.015v0 527.987h864.002zM943.97 664.062h-864.002v95.925c0 22.1 17.915 40.015 40.015 40.015h47.993v-79.968h80.030v79.968h527.987v-79.968h79.968v79.968h47.993c22.1 0 40.015-17.915 40.015-40.015v0z" />
<glyph unicode="&#xe904;" glyph-name="file" d="M522.607 704.015h-277.322c-41.199 0.070-74.579 33.45-74.649 74.643v63.833c0.035 17.645 14.33 31.94 31.972 31.975h68.468c14.606 49.453 59.611 84.926 112.902 84.926s98.296-35.473 112.691-84.095l0.211-0.831h68.465c0 0 0 0 0 0 17.672 0 32.001-14.308 32.037-31.972v-63.829c-0.070-41.243-33.52-74.649-74.773-74.649 0 0 0 0 0 0v0zM938.651 64.023c-8.283 0.005-15.462 4.73-18.993 11.63l-0.056 0.12-54.982 109.964c-7.11 13.909-11.288 30.336-11.318 47.736v385.193c-0.020 0.684-0.031 1.489-0.031 2.297 0 47.137 38.212 85.349 85.349 85.349s85.349-38.212 85.349-85.349c0-0.808-0.011-1.613-0.034-2.415l0.003 0.118v-385.183c-0.019-17.382-4.176-33.788-11.537-48.294l0.281 0.61-54.982-109.964c-3.587-7.021-10.766-11.745-19.048-11.751h-0.001zM993.633 195.324h0.433zM650.63 831.977h-10.638v-53.312c0-64.899-52.611-117.509-117.509-117.509h-277.136c-64.899 0-117.509 52.611-117.509 117.509v0 53.312h-10.328c-64.899 0-117.509-52.611-117.509-117.509v0-661.144c0-64.899 52.611-117.509 117.509-117.509v0h533.121c64.899 0 117.509 52.611 117.509 117.509v661.144c0 64.899-52.611 117.509-117.509 117.509v0zM607.956 64.023h-447.957c-17.676 0-32.006 14.329-32.006 32.006s14.329 32.006 32.006 32.006v0h448.019c17.676 0 32.006-14.329 32.006-32.006s-14.329-32.006-32.006-32.006v0zM607.956 192.046h-447.957c-17.676 0-32.006 14.329-32.006 32.006s14.329 32.006 32.006 32.006v0h448.019c17.676 0 32.006-14.329 32.006-32.006s-14.329-32.006-32.006-32.006v0zM607.956 320.070h-447.957c-17.676 0-32.006 14.329-32.006 32.006s14.329 32.006 32.006 32.006v0h448.019c17.676 0 32.006-14.329 32.006-32.006s-14.329-32.006-32.006-32.006v0zM607.956 448.093h-447.957c-17.676 0-32.006 14.329-32.006 32.006s14.329 32.006 32.006 32.006v0h448.019c17.676 0 32.006-14.329 32.006-32.006s-14.329-32.006-32.006-32.006v0z" />
<glyph unicode="&#xe905;" glyph-name="signs" d="M892.465 727.548c-64.322 0-116.466-52.144-116.466-116.466v0-38.842h-140.36c35.453 50.487 60.37 110.919 70.195 176.293l0.285 2.309c0.019 1.016 0.030 2.214 0.030 3.414 0 107.226-86.924 194.15-194.15 194.15s-194.15-86.924-194.15-194.15c0-1.2 0.011-2.398 0.033-3.594l-0.003 0.18c10.11-67.682 35.026-128.114 71.373-179.945l-0.893 1.344h-140.42v38.842c0 64.322-52.144 116.466-116.466 116.466s-116.466-52.144-116.466-116.466v0-108.722c0-10.726 8.695-19.421 19.421-19.421s19.421 8.695 19.421 19.421v0 108.722c0 42.887 34.767 77.654 77.654 77.654s77.654-34.767 77.654-77.654v0-456.799c-20.491 18.458-47.754 29.749-77.654 29.749s-57.163-11.291-77.758-29.841l0.104 0.093v192.769c0 10.726-8.695 19.421-19.421 19.421s-19.421-8.695-19.421-19.421v0-279.578c1.762-64.707 54.637-116.49 119.606-116.49 0.838 0 1.674 0.009 2.508 0.026l-0.125-0.002h755.468c64.295 0.068 116.398 52.171 116.466 116.459v543.615c-0.068 64.295-52.171 116.398-116.459 116.466h-0.007zM814.842 611.082c0 42.887 34.767 77.654 77.654 77.654s77.654-34.767 77.654-77.654v0-456.258c-12.938 11.64-28.714 20.392-46.153 25.092l-0.794 0.182c-9.119 2.55-19.592 4.016-30.406 4.016-29.99 0-57.348-11.271-78.067-29.809l0.112 0.099v456.679zM776 339.308h-248.481l-204.116 194.15h88.49c42.384-67.718 84.048-123.67 84.588-124.21 3.574-4.759 9.206-7.805 15.549-7.805s11.975 3.046 15.513 7.755l0.036 0.050c0.42 0.6 42.024 56.552 84.588 124.21h163.893zM511.97 906.149c85.733-0.102 155.205-69.575 155.308-155.298v-0.010c0-72.041-113.704-238.755-155.308-296.988-42.024 59.194-155.308 225.608-155.308 296.988 0.102 85.733 69.575 155.205 155.298 155.308h0.010zM53.851 67.535c0 42.887 34.767 77.654 77.654 77.654s77.654-34.767 77.654-77.654v0c0-10.726 8.695-19.421 19.421-19.421s19.421 8.695 19.421 19.421v323.523l197.032-187.666-224.227-213.541h-84.048c-0.695-0.022-1.513-0.034-2.334-0.034-43.506 0-78.963 34.458-80.569 77.571l-0.004 0.146zM486.576 189.343c3.714 3.539 6.024 8.524 6.024 14.048s-2.31 10.509-6.017 14.041l-0.008 0.007-238.635 227.229v88.79h19.211l238.995-227.589c3.471-3.308 8.181-5.343 13.367-5.343 0.007 0 0.015 0 0.022 0h256.284v-77.624h-147.323c-0.004 0-0.008 0-0.013 0-5.366 0-10.224-2.18-13.735-5.703l-227.53-227.35h-110.102zM892.526-10.149h-450.255l194.15 194.15h139.519v-116.466c0-10.726 8.695-19.421 19.421-19.421s19.421 8.695 19.421 19.421v0c0.202 42.949 35.066 77.688 78.043 77.688 7.327 0 14.418-1.010 21.142-2.897l-0.549 0.132c32.904-9.033 56.679-38.678 56.679-73.875 0-0.368-0.003-0.736-0.008-1.103l0.001 0.056c-0.237-42.775-34.849-77.387-77.601-77.624h-0.023zM892.526-10.149M511.97 653.767c53.613 0 97.075 43.462 97.075 97.075s-43.462 97.075-97.075 97.075c-53.613 0-97.075-43.462-97.075-97.075v0c0.068-53.585 43.489-97.007 97.068-97.075h0.007zM511.97 809.075c32.161 0 58.233-26.072 58.233-58.233s-26.072-58.233-58.233-58.233c-32.161 0-58.233 26.072-58.233 58.233v0c0.034 32.147 26.086 58.199 58.23 58.233h0.003zM511.97 809.075M34.399 405.286c10.709 0 19.391 8.682 19.391 19.391s-8.682 19.391-19.391 19.391c-10.688 0-19.357-8.647-19.391-19.328v-0.003c0-0.018 0-0.039 0-0.060 0-10.709 8.682-19.391 19.391-19.391 0 0 0 0 0 0v0zM34.399 405.286" />
<glyph unicode="&#xe906;" glyph-name="goods" horiz-adv-x="1057" d="M480.497 576.301h-352.196c-19.328 0-34.997-15.669-34.997-34.997v0-289.129c0-19.328 15.669-34.997 34.997-34.997v0h352.196c19.328 0 34.997 15.669 34.997 34.997v0 289.129c0 19.328-15.669 34.997-34.997 34.997v0zM445.5 287.172h-282.202v219.076h282.263zM320.693 541.304v-65.295h-33.792v65.295h-69.993v-100.292c0-19.328 15.669-34.997 34.997-34.997h103.785c19.328 0 34.997 15.669 34.997 34.997v0 100.292zM947.019 576.301h-363.881c-19.328 0-34.997-15.669-34.997-34.997v0-289.129c0-19.328 15.669-34.997 34.997-34.997v0h363.881c19.328 0 34.997 15.669 34.997 34.997v0 289.129c0 19.328-15.669 34.997-34.997 34.997v0zM912.023 287.172h-293.888v219.076h293.888zM787.275 541.304v-65.295h-45.478v65.295h-69.993v-100.292c0-19.328 15.669-34.997 34.997-34.997v0h115.471c19.328 0 34.997 15.669 34.997 34.997v0 100.292zM710.295 960h-363.881c-19.328 0-34.997-15.669-34.997-34.997v0-289.129c0-19.328 15.669-34.997 34.997-34.997h363.881c19.328 0 34.997 15.669 34.997 34.997v0 289.129c0 19.328-15.669 34.997-34.997 34.997v0zM675.298 670.871h-293.888v219.136h293.888v-219.256zM550.49 925.003v-64.151h-44.333v64.151h-69.993v-99.147c0-19.328 15.669-34.997 34.997-34.997v0h114.447c19.328 0 34.997 15.669 34.997 34.997v0 99.147zM1021.651 5.993h-986.654c-19.328 0-34.997-15.669-34.997-34.997s15.669-34.997 34.997-34.997h986.654c19.328 0 34.997 15.669 34.997 34.997s-15.669 34.997-34.997 34.997v0zM1021.651 187.904h-986.654c-19.328 0-34.997-15.669-34.997-34.997s15.669-34.997 34.997-34.997h986.654c19.328 0 34.997 15.669 34.997 34.997s-15.669 34.997-34.997 34.997v0zM493.327 152.907h69.993v-181.971h-69.993v181.971zM843.234 152.907h69.993v-181.971h-69.993v181.971zM143.48 152.907h69.993v-181.971h-69.993v181.971z" />
<glyph unicode="&#xe907;" glyph-name="son" d="M1024.309 348.89c-0.13 62.54-43.556 114.9-101.89 128.709l-0.9 0.18c-13.904 59.172-66.24 102.549-128.707 102.549-61.259 0-112.775-41.715-127.69-98.289l-0.206-0.92h-4.267c-0.023 0-0.050 0-0.076 0-26.966 0-52.033-8.129-72.885-22.070l0.477 0.3-2.536 23.069 22.574 54.549 79.288 63.393c3.792 3.052 6.198 7.692 6.198 12.895s-2.406 9.843-6.166 12.87l-0.032 0.025-79.102 63.579-22.574 54.549 11.256 100.934c0.065 0.55 0.102 1.188 0.102 1.834 0 9.12-7.393 16.513-16.513 16.513-0.646 0-1.284-0.037-1.91-0.109l0.076 0.007-100.934-11.194-54.611 22.327-63.455 79.535c-3.147 3.614-7.756 5.885-12.895 5.885s-9.748-2.271-12.878-5.865l-0.018-0.021-63.455-79.535-54.611-22.574-100.872 11.442c-0.566 0.069-1.221 0.109-1.885 0.109-4.561 0-8.687-1.863-11.658-4.869l-0.002-0.002c-3-3-4.856-7.144-4.856-11.722 0-0.62 0.034-1.233 0.1-1.835l-0.007 0.074 11.256-100.934-22.574-54.611-79.288-63.393c-3.792-3.052-6.198-7.692-6.198-12.895s2.406-9.843 6.166-12.87l0.032-0.025 79.288-63.393 22.574-54.549-11.256-100.934c-0.089-0.645-0.14-1.39-0.14-2.147 0-9.12 7.393-16.513 16.513-16.513 0.66 0 1.31 0.039 1.95 0.114l-0.078-0.007 100.934 11.256 2.165-0.928c-40.235-15.375-70.551-48.643-81.551-89.803l-0.211-0.926h-4.206c-72.994 0-132.167-59.173-132.167-132.167s59.173-132.167 132.167-132.167h228.092c32.875-49.857 88.53-82.37 151.795-82.627h330.425c100.263 0.029 181.531 81.315 181.531 181.583 0 49.376-19.708 94.15-51.687 126.883l0.034-0.035c31.708 24.285 51.951 62.161 51.951 104.765 0 0.001 0 0.003 0 0.004v0zM675.925 446.918c0.749-0.12 1.613-0.189 2.492-0.189 8.358 0 15.266 6.209 16.362 14.267l0.010 0.086c6.46 48.966 47.938 86.366 98.151 86.366s91.691-37.4 98.097-85.864l0.054-0.503c1.021-7.375 6.788-13.142 14.076-14.153l0.087-0.010c48.725-6.692 85.856-48.052 85.856-98.084 0-34.343-17.495-64.6-44.059-82.344l-0.36-0.226c-20.69 14.69-45.339 25.281-72.012 30.021l-1.091 0.161c-30.098 60.854-91.75 101.966-163.004 101.966-59.596 0-112.476-28.76-145.516-73.157l-0.343-0.483c-2.022 7.45-3.184 16.004-3.184 24.83 0 54.344 44.055 98.399 98.399 98.399 5.69 0 11.267-0.483 16.692-1.41l-0.582 0.082zM393.037 279.498c-2.198 9.306-5.042 17.41-8.62 25.103l0.333-0.797 38.469 48.117 54.611 22.574 52.446-5.814c-1.038-6.127-1.632-13.186-1.632-20.383 0-18.509 3.924-36.101 10.985-51.99l-0.324 0.816c-8.389 1.394-18.056 2.19-27.909 2.19-35.332 0-68.272-10.241-96.013-27.917l0.724 0.431c-6.512 2.963-14.207 5.596-22.186 7.492l-0.882 0.177zM131.981 398.368l9.401 84.607c0.070 0.574 0.111 1.239 0.111 1.913 0 2.254-0.45 4.402-1.264 6.361l0.040-0.11-25.852 62.465c-1.114 2.635-2.801 4.838-4.915 6.531l-0.033 0.025-66.485 53.188 66.485 53.188c2.147 1.718 3.834 3.921 4.907 6.448l0.041 0.108 25.852 62.404c0.805 1.881 1.273 4.071 1.273 6.369 0 0.632-0.035 1.256-0.104 1.87l0.007-0.075-9.463 84.668 84.483-9.401c0.552-0.066 1.192-0.104 1.84-0.104 2.284 0 4.457 0.471 6.429 1.32l-0.106-0.040 62.404 25.852c2.635 1.114 4.838 2.801 6.531 4.915l0.025 0.033 53.188 66.485 53.188-66.485c1.718-2.147 3.921-3.834 6.448-4.907l0.108-0.041 62.404-25.852c1.869-0.808 4.046-1.278 6.333-1.278 0.645 0 1.282 0.037 1.907 0.11l-0.076-0.007 84.607 9.401-9.215-84.607c-0.062-0.538-0.097-1.162-0.097-1.795 0-2.298 0.468-4.488 1.313-6.478l-0.041 0.108 25.852-62.404c1.114-2.635 2.801-4.838 4.915-6.531l0.033-0.025 66.485-53.188-66.485-53.188c-2.147-1.718-3.834-3.921-4.907-6.448l-0.041-0.108-25.852-62.527c-0.804-1.884-1.271-4.077-1.271-6.378 0-0.629 0.035-1.25 0.103-1.861l-0.007 0.075 5.69-50.962c-7.229-8.924-13.448-19.111-18.223-30.072l-0.331-0.852-61.847 6.927c-0.544 0.064-1.174 0.1-1.813 0.1-2.292 0-4.475-0.469-6.458-1.316l0.107 0.041-62.404-25.852c-2.635-1.114-4.838-2.801-6.531-4.915l-0.025-0.033-33.83-42.303c-19.442 23.483-46.498 40.057-77.346 45.944l-0.829 0.132c-0.557 0-0.866 0.804-1.422 1.051l-62.404 25.852c-1.898 0.813-4.107 1.286-6.427 1.286-0.678 0-1.346-0.040-2.002-0.119l0.079 0.008zM33.026 150.98c0 54.651 44.304 98.955 98.955 98.955v0c5.364-0.047 10.583-0.517 15.668-1.38l-0.577 0.081c0.767-0.126 1.652-0.199 2.553-0.199 8.361 0 15.271 6.214 16.363 14.276l0.009 0.085c6.46 48.966 47.938 86.366 98.151 86.366s91.691-37.4 98.097-85.864l0.054-0.503c1.021-7.375 6.788-13.142 14.076-14.153l0.087-0.010c49.499-5.936 87.499-47.675 87.499-98.29 0-54.651-44.304-98.955-98.955-98.955-0.604 0-1.206 0.005-1.807 0.016l0.090-0.001h-231.122c-54.651 0-98.955 44.304-98.955 98.955v0zM842.541-30.726h-330.386c-45.978 0.171-87.030 21.117-114.281 53.933l-0.198 0.245c56.996 15.338 98.259 66.555 98.259 127.41 0 40.699-18.456 77.088-47.456 101.252l-0.212 0.172c18.634 9.189 40.566 14.564 63.754 14.564 14.298 0 28.119-2.044 41.187-5.855l-1.038 0.259c1.306-0.37 2.805-0.582 4.354-0.582 6.982 0 12.956 4.317 15.398 10.428l0.039 0.112c22.031 56.112 75.724 95.114 138.526 95.114 61.137 0 113.642-36.962 136.385-89.759l0.369-0.964c2.327-5.364 7.258-9.205 13.154-9.949l0.082-0.008c75.955-7.149 134.922-70.596 134.922-147.817 0-81.977-66.456-148.433-148.433-148.433-1.534 0-3.063 0.023-4.586 0.069l0.223-0.005zM561.694 613.348c0 118.628-96.167 214.794-214.794 214.794s-214.794-96.167-214.794-214.794c0-118.628 96.167-214.794 214.794-214.794v0c118.571 0.141 214.654 96.223 214.794 214.781v0.014zM165.193 613.348c0 100.354 81.353 181.706 181.706 181.706s181.706-81.353 181.706-181.706c0-100.354-81.353-181.706-181.706-181.706v0c-100.297 0.141-181.566 81.409-181.706 181.693v0.014z" />
<glyph unicode="&#xe908;" glyph-name="menu" d="M433.213 960h-393.836c-21.747 0-39.377-17.63-39.377-39.377v0-393.836c0-21.747 17.63-39.377 39.377-39.377v0h393.836c21.747 0 39.377 17.63 39.377 39.377v0 393.836c0 21.747-17.63 39.377-39.377 39.377v0zM984.429 960h-393.642c-0.058 0-0.126 0-0.194 0-21.747 0-39.377-17.63-39.377-39.377 0 0 0 0 0-0.001v0-393.836c0-21.747 17.63-39.377 39.377-39.377v0h393.836c21.747 0 39.377 17.63 39.377 39.377v0 393.836c0 21.747-17.63 39.377-39.377 39.377v0zM945.052 566.164h-314.888v315.082h315.082zM433.213 408.784h-393.836c0 0 0 0 0 0-21.747 0-39.377-17.63-39.377-39.377 0-0.068 0-0.136 0.001-0.204v0.010-393.642c0-21.747 17.63-39.377 39.377-39.377v0h393.836c21.747 0 39.377 17.63 39.377 39.377v393.642c0 0.058 0 0.126 0 0.194 0 21.747-17.63 39.377-39.377 39.377 0 0 0 0-0.001 0v0zM186.023 14.754c6.81 11.252 10.864 24.835 10.927 39.36v0.018c0 43.495-35.26 78.754-78.754 78.754v0c-14.542-0.063-28.125-4.117-39.725-11.122l0.348 0.195v100.609c11.252-6.81 24.835-10.864 39.36-10.927h0.018c43.495 0 78.754 35.26 78.754 78.754v0c-0.063 14.542-4.117 28.125-11.122 39.725l0.195-0.348h100.609c-6.81-11.252-10.864-24.835-10.927-39.36v-0.018c0-43.495 35.26-78.754 78.754-78.754v0c14.542 0.063 28.125 4.117 39.725 11.122l-0.348-0.195v-100.609c-11.252 6.81-24.835 10.864-39.36 10.927h-0.018c-43.495 0-78.754-35.26-78.754-78.754v0c0.063-14.542 4.117-28.125 11.122-39.725l-0.195 0.348zM984.429 408.784h-393.642c-21.747 0-39.377-17.63-39.377-39.377v0-393.836c0-21.747 17.63-39.377 39.377-39.377v0h393.642c21.747 0 39.377 17.63 39.377 39.377v0 393.642c0.001 0.077 0.001 0.168 0.001 0.259 0 21.712-17.601 39.312-39.312 39.312-0.023 0-0.046 0-0.069 0h0.004zM630.164 155.969l173.867 173.867h85.543l-259.411-259.411zM630.164 329.836h62.46l-62.46-62.46zM945.246 274.165v-85.22l-173.867-173.867h-85.543zM945.246 14.754h-62.46l62.46 62.46zM315.082 172.328c0-43.495-35.26-78.754-78.754-78.754s-78.754 35.26-78.754 78.754c0 43.495 35.26 78.754 78.754 78.754s78.754-35.26 78.754-78.754z" />
<glyph unicode="&#xe909;" glyph-name="menu-block" horiz-adv-x="1078" d="M0 960h431.158v-431.158h-431.158v431.158zM0 367.158h431.158v-431.158h-431.158v431.158zM646.737 960h431.158v-431.158h-431.158v431.158zM646.737 367.158h431.158v-431.158h-431.158v431.158z" />
<glyph unicode="&#xe90a;" glyph-name="menu-linear" horiz-adv-x="1479" d="M0 163.556h1479.111v-227.556h-1479.111v227.556zM0 561.778h1479.111v-227.556h-1479.111v227.556zM0 960h1479.111v-227.556h-1479.111v227.556z" />
<glyph unicode="&#xe90b;" glyph-name="exit" horiz-adv-x="1138" d="M472.178 692.622v0c-10.274-10.153-16.637-24.245-16.637-39.822s6.363-29.669 16.631-39.817l108.094-108.094h-523.378c-31.419 0-56.889-25.47-56.889-56.889v0 0c0-31.419 25.47-56.889 56.889-56.889v0h523.378l-108.089-108.089c-10.274-10.153-16.637-24.245-16.637-39.822s6.363-29.669 16.631-39.817l0.005-0.005c10.153-10.274 24.245-16.637 39.822-16.637s29.669 6.363 39.817 16.631l204.236 204.236c10.224 10.283 16.543 24.457 16.543 40.107s-6.319 29.824-16.546 40.109l0.003-0.003-204.231 204.8c-10.153 10.274-24.245 16.637-39.822 16.637s-29.669-6.363-39.817-16.631l-0.005-0.005zM1024 49.778h-398.222c-31.419 0-56.889-25.47-56.889-56.889v0 0c0-31.419 25.47-56.889 56.889-56.889v0h398.222c62.76 0.193 113.584 51.018 113.778 113.759v796.463c-0.193 62.76-51.018 113.584-113.759 113.778h-398.241c-31.419 0-56.889-25.47-56.889-56.889v0 0c0-31.419 25.47-56.889 56.889-56.889v0h398.222z" />
<glyph unicode="&#xe90c;" glyph-name="heart" horiz-adv-x="1151" d="M1059.718 859.799c-56.765 61.691-137.892 100.209-228.016 100.209-0.781 0-1.561-0.003-2.34-0.009l0.119 0.001c-0.381 0.002-0.831 0.003-1.282 0.003-68.102 0-130.713-23.511-180.158-62.859l0.59 0.454c-27.977-22.018-52.088-47.168-72.351-75.276l-0.75-1.093c-21.026 29.205-45.157 54.355-72.367 75.768l-0.793 0.601c-48.848 38.894-111.452 62.405-179.547 62.405-0.437 0-0.874-0.001-1.31-0.003h0.067c-0.66 0.005-1.44 0.008-2.221 0.008-90.123 0-171.25-38.518-227.816-99.99l-0.199-0.219c-56.721-63.324-91.397-147.42-91.397-239.615 0-2.136 0.019-4.267 0.056-6.394l-0.004 0.32c2.858-108.672 45.756-206.803 114.412-280.662l-0.244 0.266c87.813-96.623 181.199-184.452 281.036-264.572l4.769-3.7c39.581-33.757 84.452-71.971 131.105-112.919 11.832-10.424 27.46-16.786 44.573-16.786s32.742 6.362 44.648 16.85l-0.074-0.064c46.594 40.77 91.524 79.044 131.105 112.919 104.589 83.802 197.955 171.612 283.967 266.228l1.779 1.986c68.338 73.636 111.157 171.792 113.919 279.908l0.011 0.548c0.034 1.833 0.053 3.995 0.053 6.161 0 92.157-34.654 176.221-91.641 239.87l0.302-0.343z" />
<glyph unicode="&#xe90d;" glyph-name="arrow-down" horiz-adv-x="998" d="M931.209 524.626l50.741-50.617c9.954-9.895 16.114-23.595 16.114-38.735s-6.161-28.841-16.112-38.733l-444.067-444.438c-9.895-9.954-23.595-16.114-38.735-16.114s-28.841 6.161-38.733 16.112l-444.314 444.314c-9.954 9.895-16.114 23.595-16.114 38.735s6.161 28.841 16.112 38.733l50.744 50.744c9.921 9.852 23.59 15.94 38.681 15.94 15.538 0 29.568-6.455 39.556-16.829l0.017-0.017 262.353-275.409v656.83c0 0.037 0 0.080 0 0.124 0 30.23 24.506 54.736 54.736 54.736 0.087 0 0.174 0 0.261-0.001h73.133c0.037 0 0.080 0 0.124 0 30.23 0 54.736-24.506 54.736-54.736 0-0.043 0-0.087 0-0.13v0.007-656.83l262.353 275.409c9.964 10.535 24.040 17.091 39.647 17.091 15.164 0 28.882-6.19 38.766-16.18l0.005-0.005z" />
<glyph unicode="&#xe90e;" glyph-name="map-marked" horiz-adv-x="1152" d="M576 960c-139.063-0.162-251.733-112.932-251.733-252.018 0 0 0 0 0 0v0c0-112.526 164.978-317.611 227.556-392.021 5.831-6.929 14.508-11.302 24.206-11.302s18.375 4.373 24.167 11.254l0.039 0.048c63.090 74.468 227.556 279.495 227.556 392.021 0 139.106-112.703 251.888-251.778 252.018h-0.012zM40.22 528.1c-23.764-9.697-40.209-32.622-40.22-59.391v-500.623c0.038-17.66 14.363-31.962 32.028-31.962 4.261 0 8.328 0.832 12.047 2.343l-0.214-0.077 276.139 125.611v466.148c-15.105 26.144-29.427 56.764-41.145 88.642l-1.351 4.201zM576 240.64c-29.261 0.051-55.43 13.244-72.928 33.99l-0.118 0.143c-39.31 46.421-81.124 99.214-118.955 153.6v-364.089l384-128.284v491.975c-37.831-54.158-79.644-107.065-118.955-153.6-17.651-20.696-43.752-33.735-72.898-33.735-0.052 0-0.104 0-0.155 0h0.008zM1108.139 637.668l-276.139-125.668v-576l279.78 111.9c23.764 9.697 40.209 32.622 40.22 59.391v500.623c-0.005 17.685-14.343 32.019-32.028 32.019-4.261 0-8.328-0.832-12.047-2.343l0.214 0.077z" />
<glyph unicode="&#xe90f;" glyph-name="sign-out" horiz-adv-x="1344" d="M1325.096 402.724l-447.937-447.937c-11.591-11.579-27.597-18.74-45.276-18.74-35.381 0-64.063 28.682-64.063 64.063 0 0.009 0 0.018 0 0.027v-0.001 255.964h-362.568c-0.043 0-0.093 0-0.144 0-35.262 0-63.847 28.585-63.847 63.847 0 0.051 0 0.101 0 0.152v-0.008 255.964c0 0.043 0 0.093 0 0.144 0 35.262 28.585 63.847 63.847 63.847 0.051 0 0.101 0 0.152 0h362.56v255.964c0.084 35.357 28.766 63.987 64.135 63.987 17.638 0 33.613-7.12 45.207-18.642l447.934-447.934c11.451-11.676 18.519-27.686 18.519-45.348s-7.068-33.672-18.529-45.358l0.010 0.010zM511.712-31.897v106.46c-0.081 17.618-14.342 31.878-31.952 31.959h-223.797c-0.021 0-0.047 0-0.072 0-47.069 0-85.225 38.157-85.225 85.225 0 0.025 0 0.051 0 0.076v-0.004 512.216c0 0.021 0 0.047 0 0.072 0 47.069 38.157 85.225 85.225 85.225 0.025 0 0.051 0 0.076 0h223.929c17.618 0.081 31.878 14.342 31.959 31.952v106.684c-0.081 17.618-14.342 31.878-31.952 31.959h-223.941c-141.323-0.041-255.882-114.574-255.964-255.884v-511.936c0.041-141.349 114.615-255.923 255.96-255.964h223.936c17.674 0.041 31.991 14.357 32.031 32.028v0.004z" />
<glyph unicode="&#xe910;" glyph-name="global" d="M874 810.049c-92.65 92.65-220.645 149.956-362.025 149.956-282.759 0-511.98-229.221-511.98-511.98 0-141.379 57.305-269.374 149.956-362.025v0c92.65-92.65 220.645-149.956 362.025-149.956 282.759 0 511.98 229.221 511.98 511.98 0 141.379-57.305 269.374-149.956 362.025v0zM414.897 889.455c-19.024-18.515-36.797-38.016-53.357-58.536l-0.976-1.249c-30.186-37.281-56.803-79.517-78.137-124.735l-1.61-3.794h-143.135c64.399 94.148 161.268 162.020 274.175 187.733l3.040 0.582zM103.31 641.159h153.7c-16.656-48.223-27.529-103.946-30.232-161.805l-0.050-1.34h-165.53c3.969 59.955 19.118 115.477 43.377 165.78l-1.167-2.684zM60.954 418.034h165.53c2.775-59.188 13.663-114.891 31.589-167.332l-1.258 4.235h-153.408c-23.156 47.609-38.369 103.123-42.331 161.723l-0.074 1.373zM137.634 194.909h143.135c22.956-49.031 49.59-91.283 80.714-129.751l-0.919 1.173c17.523-21.775 35.28-41.275 54.142-59.647l0.143-0.138c-115.933 26.318-212.785 94.206-276.163 186.811l-1.003 1.552zM481.985 26.409c-27.232 23.632-51.663 48.974-73.702 76.325l-0.884 1.133c-21.568 26.601-41.444 56.408-58.435 87.997l-1.497 3.045h134.518zM481.985 254.889h-161.538c-18.643 48.114-30.732 103.765-33.592 161.844l-0.049 1.252h195.18zM481.985 478.015h-195.18c2.926 59.336 15.032 114.986 34.931 166.77l-1.241-3.674h161.489zM481.985 701.14h-134.518c18.107 33.969 37.482 63.183 59.291 90.36l-0.869-1.12c23.332 29.158 48.264 55.062 75.358 78.537l0.738 0.625zM962.949 478.015h-165.53c-2.775 59.188-13.663 114.891-31.589 167.332l1.258-4.235h153.651c23.094-47.619 38.242-103.141 42.138-161.741l0.072-1.355zM886.074 701.14h-143.135c-22.956 49.031-49.59 91.283-80.714 129.751l0.919-1.173c-17.523 21.775-35.28 41.275-54.142 59.647l-0.143 0.138c115.953-26.307 212.823-94.197 276.212-186.812l1.003-1.552zM541.966 869.591c27.232-23.632 51.663-48.974 73.702-76.325l0.884-1.133c21.659-26.598 41.612-56.387 58.679-87.966l1.496-3.027h-134.761zM541.966 641.111h161.538c18.644-48.114 30.733-103.766 33.593-161.845l0.049-1.251h-195.228zM541.966 417.985h195.18c-2.926-59.336-15.032-114.986-34.931-166.77l1.241 3.674h-161.489zM541.966 26.457v168.451h134.761c-18.106-33.969-37.481-63.183-59.291-90.36l0.869 1.119c-23.397-29.153-48.407-55.058-75.583-78.524l-0.756-0.638zM609.054 6.496c19.003 18.512 36.76 38.012 53.305 58.531l0.979 1.255c30.207 37.296 56.841 79.547 78.186 124.785l1.61 3.794h142.94c-64.344-94.102-161.121-161.962-273.929-187.73l-3.043-0.585zM920.641 254.792h-153.7c16.667 48.204 27.555 103.907 30.28 161.746l0.051 1.35h165.53c-3.981-59.922-19.128-115.409-43.377-165.681l1.167 2.683z" />
<glyph unicode="&#xe911;" glyph-name="settings" d="M939.224 448c0.038 55.734 34.686 103.367 83.612 122.571l0.895 0.309c-14.039 57.679-35.764 108.462-64.446 154.458l1.282-2.205c-15.755-7.173-34.159-11.391-53.539-11.479h-0.032c-0.049 0-0.108 0-0.166 0-72.597 0-131.449 58.852-131.449 131.449 0 19.462 4.23 37.937 11.82 54.555l-0.336-0.821c-43.742 27.413-94.472 49.138-148.52 62.423l-3.571 0.742c-19.48-49.863-67.144-84.544-122.907-84.544s-103.427 34.68-122.598 83.649l-0.309 0.895c-57.659-14.045-108.423-35.769-154.403-64.446l2.204 1.281c7.209-15.753 11.412-34.171 11.412-53.572 0-72.597-58.852-131.449-131.449-131.449-0.071 0-0.142 0-0.213 0h0.011c-0.089 0-0.193 0-0.298 0-19.305 0-37.622 4.229-54.076 11.812l0.803-0.332c-27.162-43.886-48.801-94.743-62.182-148.856l-0.767-3.666c49.765-19.564 84.351-67.197 84.351-122.907s-34.586-103.343-83.457-122.597l-0.893-0.31c14.039-57.679 35.764-108.462 64.446-154.458l-1.282 2.205c15.692 7.142 34.031 11.305 53.343 11.305 72.627 0 131.503-58.876 131.503-131.503 0-19.312-4.163-37.651-11.64-54.17l0.335 0.827c43.873-27.375 94.744-49.099 148.919-62.416l3.603-0.749c19.495 49.687 67.032 84.228 122.637 84.228s103.143-34.54 122.329-83.336l0.309-0.892c57.718 14.027 108.538 35.753 154.567 64.447l-2.207-1.282c-7.077 15.636-11.201 33.902-11.201 53.131 0 72.687 58.924 131.611 131.611 131.611 19.229 0 37.496-4.124 53.962-11.536l-0.831 0.335c27.35 43.795 49.069 94.571 62.412 148.646l0.753 3.606c-49.692 19.731-84.212 67.338-84.345 123.025v0.017zM514.264 235.116c-117.758 0.031-213.208 95.499-213.208 213.261 0 117.781 95.48 213.261 213.261 213.261s213.261-95.48 213.261-213.261v0c0-0.016 0-0.035 0-0.054 0-117.751-95.456-213.208-213.208-213.208-0.038 0-0.076 0-0.114 0h0.006z" />
<glyph unicode="&#xe912;" glyph-name="delete" horiz-adv-x="1280" d="M832 192h256v-128h-256zM832 704h448v-128h-448zM832 448h384v-128h-384zM64 64c0.207-70.609 57.391-127.793 127.98-128h384.020c70.609 0.207 127.793 57.391 128 127.98v640.020h-640zM768 896h-192l-64 64h-256l-64-64h-192v-128h768z" />
<glyph unicode="&#xe913;" glyph-name="edit" d="M0 149.297v-213.297h213.297l628.849 628.849-213.297 213.516zM1007.328 730.031c10.342 10.269 16.744 24.496 16.744 40.217s-6.402 29.948-16.741 40.214l-133.085 133.085c-10.269 10.342-24.496 16.744-40.217 16.744s-29.948-6.402-40.214-16.741l-0.003-0.003-103.833-104.272 213.297-213.297z" />
<glyph unicode="&#xe914;" glyph-name="file1" horiz-adv-x="819" d="M102.4 960c-56.333-0.291-101.888-46.025-101.888-102.399 0 0 0-0.001 0-0.001v0l-0.512-819.2c0 0 0-0.001 0-0.001 0-56.374 45.555-102.108 101.86-102.399h614.94c56.487 0.166 102.234 45.913 102.4 102.384v614.416l-307.2 307.2zM460.8 601.6v281.6l281.6-281.6z" />
<glyph unicode="&#xe915;" glyph-name="call" horiz-adv-x="1023" d="M2.112 759.104c2.209 15.933 9.113 29.953 19.248 40.948l-0.048-0.052 153.6 153.408q17.92 15.36 26.88-5.12l123.84-232.64c2.409-4.505 3.824-9.855 3.824-15.535 0-9.45-3.916-17.985-10.214-24.072l-0.010-0.009-56.256-56.256c-10.095-10.329-16.704-24.102-17.906-39.396l-0.014-0.22c4.158-37.575 18.407-71.199 39.944-98.87l-0.328 0.438c25.066-38.471 50.743-71.897 78.731-103.214l-0.715 0.814 39.616-40.896c11.968-11.968 27.264-26.624 46.080-44.096 27.5-24.005 57.75-46.747 89.603-67.211l3.069-1.845c28.093-22.32 62.712-37.617 100.568-42.699l1.064-0.117c0.352-0.008 0.767-0.013 1.183-0.013 15.546 0 29.604 6.371 39.705 16.645l0.008 0.008 66.56 66.304c5.192 6.415 13.066 10.483 21.89 10.483 6.205 0 11.94-2.011 16.589-5.418l-0.079 0.055 224-131.712c5.289-2.601 9.115-7.481 10.222-13.324l0.018-0.116c0.138-0.796 0.216-1.714 0.216-2.649 0-4.777-2.052-9.075-5.324-12.059l-0.013-0.012-153.6-153.6c-10.937-10.098-24.96-17.004-40.503-19.155l-0.393-0.045c-10.238-1.202-22.099-1.888-34.12-1.888-38.487 0-75.332 7.029-109.321 19.874l2.129-0.706c-55.604 18.639-103.804 42.237-148.184 71.199l2.456-1.503q-67.136 43.456-124.672 88.192t-92.032 76.8l-33.216 32q-12.8 12.8-33.856 35.136t-73.6 88.192c-30.346 37.509-60.256 79.437-87.609 123.13l-3.143 5.382c-25.094 40.869-47.616 88.040-65.076 137.599l-1.612 5.249c-13.221 32.786-20.89 70.805-20.89 110.615 0 11.264 0.614 22.385 1.811 33.331l-0.12-1.353z" />
<glyph unicode="&#xe916;" glyph-name="independence" horiz-adv-x="965" d="M795.25 60.018c-11.371 18.152-18.156 40.187-18.261 63.801v745.273c0.004 0.179 0.006 0.39 0.006 0.601 0 15.47-11.499 28.254-26.415 30.272l-0.158 0.017c-1.024 0.124-2.211 0.195-3.413 0.195-16.578 0-30.019-13.429-30.037-30.003v-60.020c0-16.558-13.423-29.98-29.98-29.98h-570.027v-570.027c0-82.852 67.164-150.016 150.016-150.016v0h150.016s0 155.136 0.512 157.184c4.469 79.249 69.823 141.82 149.792 141.82 82.49 0 149.43-66.58 150.012-148.933v-0.055c0-3.243-0.341-150.016-0.341-150.016zM327.339 300.032h-60.018c-16.573 0-30.009 13.435-30.009 30.009s13.435 30.009 30.009 30.009h60.018c16.573 0 30.009-13.435 30.009-30.009s-13.435-30.009-30.009-30.009v0zM626.972 420.011h-359.253c-0.107-0.001-0.233-0.002-0.36-0.002-15.477 0-28.262 11.531-30.23 26.472l-0.017 0.155c-0.124 1.024-0.195 2.211-0.195 3.413 0 16.558 13.423 29.98 29.98 29.98 0.009 0 0.017 0 0.026 0h359.195c0.107 0.001 0.233 0.002 0.36 0.002 15.477 0 28.262-11.531 30.23-26.472l0.017-0.155c0.124-1.024 0.195-2.211 0.195-3.413 0-16.546-13.404-29.962-29.946-29.98h-0.002zM627.314 539.989h-359.993c-16.573 0-30.009 13.435-30.009 30.009s13.435 30.009 30.009 30.009h359.993c16.573 0 30.009-13.435 30.009-30.009s-13.435-30.009-30.009-30.009v0zM627.314 659.968h-359.993c-16.573 0-30.009 13.435-30.009 30.009s13.435 30.009 30.009 30.009h359.993c16.573 0 30.009-13.435 30.009-30.009s-13.435-30.009-30.009-30.009v0zM567.296 119.979c-0.059 0-0.129 0-0.199 0-23.094 0-44.113 8.89-59.819 23.434l0.057-0.053-0.683 0.569c-18.045 16.032-29.358 39.299-29.358 65.208 0 0.275 0.001 0.55 0.004 0.825v-0.042c0 49.705 40.294 89.998 89.998 89.998s89.998-40.294 89.998-89.998v0c0-0.101 0.001-0.221 0.001-0.34 0-26.344-11.56-49.988-29.885-66.136l-0.097-0.083-0.683-0.569c-15.409-14.145-36.043-22.815-58.702-22.815-0.223 0-0.445 0.001-0.668 0.003h0.034zM901.12 59.961h-0.284c-35.252 0-63.829 28.577-63.829 63.829v0 150.187h98.020c16.558 0 29.98-13.423 29.98-29.98v0-120.149c0-0.017 0-0.037 0-0.057 0-35.252-28.577-63.829-63.829-63.829-0.020 0-0.040 0-0.060 0h0.003zM0 870.002c0-16.558 13.423-29.98 29.98-29.98h626.972v29.98c0.065 49.679 40.32 89.934 89.992 89.998h-656.947c-49.705 0-89.998-40.294-89.998-89.998v0zM567.296 60.018c-0.072 0-0.158 0-0.243 0-34.061 0-65.433 11.513-90.436 30.859l0.34-0.253v-124.587c0.027-16.569 13.465-29.991 30.037-29.991 4.871 0 9.472 1.16 13.541 3.218l-0.172-0.079 46.592 23.268 46.592-23.268c3.897-1.98 8.498-3.139 13.369-3.139 16.573 0 30.011 13.422 30.037 29.988v124.021c-24.446-18.745-55.465-30.038-89.122-30.038-0.188 0-0.376 0-0.564 0.001h0.029z" />
<glyph unicode="&#xe917;" glyph-name="like" horiz-adv-x="1069" d="M111.332 514.788c-61.461-0.065-111.267-49.871-111.332-111.325v-356.187c0.065-61.461 49.871-111.267 111.325-111.332h133.297c25.249 0.092 48.485 8.636 67.045 22.947l-0.258-0.191v556.089zM1068.544 347.819c0 0.073 0 0.16 0 0.247 0 27.28-11.067 51.974-28.956 69.84l-0.001 0.001c17.943 19.584 28.937 45.79 28.937 74.564 0 3.672-0.179 7.302-0.529 10.882l0.036-0.454c-7.287 57.18-55.64 100.937-114.213 100.937-0.667 0-1.333-0.006-1.997-0.017l0.1 0.001h-275.285c19.139 52.507 31.832 113.227 35.367 176.392l0.075 1.67c0 96.711-82.034 178.062-133.575 178.062-30.424-0.482-58.396-10.591-81.105-27.404l0.38 0.268c-5.084-4.132-8.306-10.384-8.306-17.39 0-0.006 0-0.013 0-0.019v0.001-150.699l-128.228-277.788-5.348-2.731v-477.184c32.618-15.323 70.684-24.878 110.818-26.325l0.514-0.015h408.69c0.437-0.007 0.952-0.011 1.468-0.011 47.811 0 87.969 32.767 99.243 77.069l0.153 0.709c1.569 6.641 2.468 14.266 2.468 22.102 0 16.308-3.897 31.706-10.809 45.313l0.263-0.57c32.886 16.758 55.018 50.366 55.018 89.143 0 16.214-3.869 31.524-10.735 45.057l0.262-0.568c32.941 16.643 55.164 50.169 55.296 88.899v0.018z" />
<glyph unicode="&#xe918;" glyph-name="list" d="M144.014 671.972c-79.537 0-144.014 64.477-144.014 144.014s64.477 144.014 144.014 144.014c79.537 0 144.014-64.477 144.014-144.014v0c-0.096-79.498-64.516-143.918-144.005-144.014h-0.009zM144.014 896c-44.191 0-80.014-35.824-80.014-80.014s35.824-80.014 80.014-80.014c44.191 0 80.014 35.824 80.014 80.014v0c-0.032 44.178-35.836 79.982-80.011 80.014h-0.003zM144.014 303.986c-79.537 0-144.014 64.477-144.014 144.014s64.477 144.014 144.014 144.014c79.537 0 144.014-64.477 144.014-144.014v0c-0.096-79.498-64.516-143.918-144.005-144.014h-0.009zM144.014 528.014c-44.191 0-80.014-35.824-80.014-80.014s35.824-80.014 80.014-80.014c44.191 0 80.014 35.824 80.014 80.014v0c-0.032 44.178-35.836 79.982-80.011 80.014h-0.003zM144.014-64.056c-79.537 0-144.014 64.477-144.014 144.014s64.477 144.014 144.014 144.014c79.537 0 144.014-64.477 144.014-144.014v0c-0.096-79.498-64.516-143.918-144.005-144.014h-0.009zM144.014 159.972c-44.191 0-80.014-35.824-80.014-80.014s35.824-80.014 80.014-80.014c44.191 0 80.014 35.824 80.014 80.014v0c-0.032 44.178-35.836 79.982-80.011 80.014h-0.003zM880.042 671.972h-384c-79.537 0-144.014 64.477-144.014 144.014s64.477 144.014 144.014 144.014v0h384c79.537 0 144.014-64.477 144.014-144.014s-64.477-144.014-144.014-144.014v0zM880.042 303.986h-384c-79.537 0-144.014 64.477-144.014 144.014s64.477 144.014 144.014 144.014h384c79.537 0 144.014-64.477 144.014-144.014s-64.477-144.014-144.014-144.014v0zM880.042-64.056h-384c-79.537 0-144.014 64.477-144.014 144.014s64.477 144.014 144.014 144.014h384c79.537 0 144.014-64.477 144.014-144.014s-64.477-144.014-144.014-144.014v0z" />
<glyph unicode="&#xe919;" glyph-name="manuscript" d="M91.625-63.944c1.605-0.062 3.489-0.097 5.382-0.097 81.441 0 147.642 65.246 149.184 146.318l0.002 0.144v4.018c0 6.863 5.58 10.435 12.444 10.435h498.189c0.579 0.015 1.26 0.024 1.944 0.024 44.409 0 80.409-36 80.409-80.409s-36-80.409-80.409-80.409c-0.801 0-1.6 0.012-2.396 0.035l0.117-0.003zM367.057 200.384c-38.812 0.057-71.875 24.611-84.56 59.026l-0.202 0.625h-186.877c-0.086-0.001-0.188-0.001-0.289-0.001-16.182 0-29.428 12.569-30.508 28.477l-0.005 0.094c-0.022 0.433-0.035 0.941-0.035 1.451 0 16.573 13.429 30.009 29.999 30.021h187.436c5.685 16.077 15.312 29.571 27.744 39.773l0.156 0.124 24.441 20.088h-238.939c-0.086-0.001-0.188-0.001-0.289-0.001-16.182 0-29.428 12.569-30.508 28.477l-0.005 0.094c-0.022 0.433-0.035 0.941-0.035 1.451 0 16.573 13.429 30.009 29.999 30.021h312.988l45.701 37.554v22.32h-357.85c-0.086-0.001-0.188-0.001-0.289-0.001-16.182 0-29.428 12.569-30.508 28.477l-0.005 0.094c-0.022 0.433-0.035 0.941-0.035 1.451 0 16.573 13.429 30.009 29.999 30.021h358.465v25.445c0 0.043 0 0.095 0 0.147 0 12.406 2.502 24.228 7.030 34.988l-0.222-0.594h-364.435c-0.086-0.001-0.188-0.001-0.289-0.001-16.182 0-29.428 12.569-30.508 28.477l-0.005 0.094c-0.022 0.433-0.035 0.941-0.035 1.451 0 16.573 13.429 30.009 29.999 30.021h422.078l82.139 66.236v183.696c0 0 0 0 0 0 0 16.56-13.409 29.989-29.962 30.021h-538.815c-16.484-0.126-29.798-13.518-29.798-30.020 0 0 0-0.001 0-0.001v0-843.596c1.473-48.157 40.864-86.635 89.242-86.635 0.838 0 1.673 0.012 2.506 0.034l-0.123-0.003c0.59-0.014 1.285-0.022 1.982-0.022 48.296 0 87.596 38.516 88.859 86.508l0.002 0.117c0 0 0 0 0 0.001 0 42.036 34.077 76.112 76.112 76.112 0.118 0 0.235 0 0.353-0.001l339.92-1.339v203.226l-174.768-143.52c-15.436-12.747-35.424-20.479-57.218-20.479-0.012 0-0.023 0-0.035 0h0.002zM94.582 800.019h167.905c0.086 0.001 0.188 0.001 0.289 0.001 16.182 0 29.428-12.569 30.508-28.477l0.005-0.094c0.022-0.433 0.035-0.941 0.035-1.451 0-16.573-13.429-30.009-29.999-30.021h-167.906c-0.086-0.001-0.188-0.001-0.289-0.001-16.182 0-29.428 12.569-30.508 28.477l-0.005 0.094c-0.022 0.433-0.035 0.941-0.035 1.451 0 16.573 13.429 30.009 29.999 30.021h0.001zM123.989 164.169c-2.825-13.883-14.933-24.183-29.448-24.183-16.58 0-30.021 13.441-30.021 30.021s13.441 30.021 30.021 30.021c5.703 0 11.034-1.59 15.575-4.351l-0.133 0.075c8.781-5.41 14.547-14.973 14.547-25.883 0-2.016-0.197-3.986-0.573-5.892l0.032 0.192zM643.048 633.677v71.146l-118.744-95.81c-6.833-5.589-11.16-14.021-11.16-23.463 0-0.030 0-0.060 0-0.090v0.005-58.591zM634.176 393.566l53.011-9.43c1.586-0.295 3.41-0.463 5.274-0.463 7.223 0 13.855 2.532 19.056 6.757l-0.056-0.044 118.353 95.475-68.523 12.22zM989.627 799.629c-27.622 31.409-67.894 51.125-112.771 51.125-35.583 0-68.271-12.395-93.981-33.103l0.289 0.225-80.13-64.617v-70.197l64.171 52.732c15.592 13.305 35.982 21.401 58.262 21.401 49.709 0 90.007-40.297 90.007-90.007 0-28.45-13.2-53.817-33.81-70.311l-0.179-0.138-59.205-48.658 69.472-12.388 79.070 63.78c32.283 25.694 52.794 64.985 52.794 109.066 0 34.922-12.873 66.837-34.133 91.259l0.143-0.168zM367.057 260.593c-16.571 0.012-30 13.448-30 30.021 0 9.299 4.228 17.611 10.867 23.117l0.050 0.040 457.287 375.818c5.232 4.544 12.111 7.313 19.637 7.313 16.58 0 30.021-13.441 30.021-30.021 0-9.583-4.49-18.117-11.481-23.614l-0.065-0.049-457.287-375.818c-5.116-4.237-11.746-6.808-18.977-6.808-0.018 0-0.036 0-0.054 0h0.003z" />
<glyph unicode="&#xe91a;" glyph-name="marker" d="M393.12 403.361l74.23-74.23-369.978-369.978c-12.755-12.755-39.74-6.508-60.217 13.97s-26.724 47.462-13.97 60.217zM801.362 292.037c-122.964-122.964-322.328-122.964-445.292 0s-122.964 322.328 0 445.292c122.964 122.964 322.328 122.964 445.292 0v0c122.964-122.964 122.964-322.328 0-445.292v0z" />
<glyph unicode="&#xe91b;" glyph-name="megaphone" horiz-adv-x="903" d="M873.911 534.894l-399.36 399.433c-10.886 10.913-25.939 17.665-42.569 17.665-33.206 0-60.124-26.919-60.124-60.124 0-16.576 6.708-31.585 17.556-42.461l399.432-399.432c10.857-10.857 25.856-17.572 42.423-17.572 33.134 0 59.995 26.861 59.995 59.995 0 16.567-6.715 31.566-17.572 42.423v0zM360.009 794.551l-2.999-15.067c-23.918-111.496-73.745-208.822-142.958-288.933l0.695 0.823 217.307-217.307c78.786 68.909 175.618 119.175 282.448 142.857l4.272 0.795 15.067 2.999zM174.885 446.025l-148.48-148.48c-16.292-16.283-26.369-38.782-26.369-63.634s10.077-47.352 26.369-63.634l84.846-84.846c16.283-16.292 38.782-26.369 63.634-26.369s47.352 10.077 63.634 26.369l148.48 148.48zM196.096 212.699c-5.428-5.428-12.928-8.786-21.211-8.786-16.567 0-29.997 13.43-29.997 29.997 0 8.284 3.358 15.783 8.786 21.211l42.423 42.423c5.428 5.428 12.928 8.786 21.211 8.786 16.567 0 29.997-13.43 29.997-29.997 0-8.284-3.358-15.783-8.786-21.211v0zM512.585 69.413l40.814 40.814c16.31 16.274 26.4 38.776 26.4 63.634s-10.090 47.36-26.398 63.633l-0.002 0.002-30.281 30.354c-18.295-12.44-34.030-24.457-49.088-37.245l0.814 0.674 36.206-36.571c5.448-5.419 8.82-12.922 8.82-21.211s-3.372-15.792-8.819-21.21l-41.473-41.473-60.928 59.099-84.846-84.846 136.119-131.657c10.86-10.851 25.858-17.561 42.423-17.561 33.149 0 60.021 26.872 60.021 60.021 0 16.583-6.725 31.596-17.598 42.459v0zM633.417 960c-16.562 0-29.989-13.426-29.989-29.989v0-59.977c0-16.562 13.426-29.989 29.989-29.989s29.989 13.426 29.989 29.989v0 59.977c0 16.562-13.426 29.989-29.989 29.989v0zM873.399 720.018h-59.977c-16.562 0-29.989-13.426-29.989-29.989s13.426-29.989 29.989-29.989h59.977c16.562 0 29.989 13.426 29.989 29.989s-13.426 29.989-29.989 29.989v0zM834.633 891.246c-5.428 5.431-12.927 8.79-21.211 8.79s-15.784-3.359-21.211-8.79l-59.977-59.977c-5.428-5.428-8.786-12.928-8.786-21.211 0-16.567 13.43-29.997 29.997-29.997 8.284 0 15.783 3.358 21.211 8.786l59.977 59.977c5.431 5.428 8.79 12.927 8.79 21.211s-3.359 15.784-8.79 21.211v0z" />
<glyph unicode="&#xe91c;" glyph-name="nature" horiz-adv-x="1041" d="M1023.876-29.364h-24.74l-185.552 324.778c-13.774 23.762-39.058 39.507-68.025 39.584h-34.276c-21.837 0.009-42.669 4.302-61.704 12.084l1.091-0.394-19.421 7.793c-18.505 7.637-39.941 12.858-62.352 14.612l-0.736 0.046c5.814 10.453 11.504 21.833 17.009 34.142 16.634 14.393 36.93 25.017 59.289 30.302l0.954 0.19 12.865 3.958c89.189-40.079 150.173-26.287 186.294 23.256 5.428 7.421 10.384 15.848 14.47 24.758l0.374 0.91c2.227 4.824 6.185 14.844 6.185 14.72 0.993 2.12 1.572 4.604 1.572 7.223 0 6.961-4.092 12.965-10.001 15.74l-0.106 0.045c3.958-1.794-16.329 8.721-27.029 13.236-18.841 9.11-40.975 14.434-64.352 14.434-11.72 0-23.127-1.338-34.078-3.87l1.016 0.198c-39.288-12.153-70.357-40.531-85.884-77.103l-0.336-0.891-11.381-3.525c-11.257-3.525-20.906-6.927-29.565-10.515 12.503 37.159 19.718 79.951 19.718 124.429 0 10.758-0.422 21.418-1.251 31.963l0.088-1.394c105.146-19.607 175.161 11.566 214.436 76.757 8.447 13.914 15.662 29.969 20.82 46.921l0.395 1.508c1.856 6.185 3.402 11.999 4.763 18.060 0.68 2.907 2.103 9.711 2.227 10.267 0.286 1.181 0.45 2.537 0.45 3.931 0 8.179-5.649 15.038-13.258 16.888l-0.119 0.024c-4.268 0.99-8.783 1.917-14.659 2.969-8.535 1.484-17.751 2.66-27.462 3.464-7.233 0.686-15.64 1.077-24.139 1.077-19.395 0-38.314-2.036-56.555-5.907l1.773 0.315c-54.813-10.555-99.866-45.193-124.412-92.231l-0.465-0.978c-9.896 29.822-21.807 55.546-36.196 79.618l1.003-1.81c0.25 3.445 0.392 7.464 0.392 11.517 0 74.638-48.303 137.993-115.354 160.513l-1.194 0.348c-27.511 9.856-59.251 15.552-92.321 15.552-4.38 0-8.737-0.1-13.068-0.298l0.614 0.022h-4.639c-9.599 0-17.38-7.781-17.38-17.38v0c0-0.804 0-1.732 0-4.763-0.22-3.355-0.346-7.274-0.346-11.222 0-27.941 6.285-54.414 17.517-78.082l-0.472 1.106c28.884-60.737 92.776-96.858 198.231-97.971 19.949-33.687 34.687-73.008 41.89-114.906l0.292-2.054v-0.371s0-0.433 0-0.68 0-0.68 0-1.051 0-0.433 0-0.68 0-0.68 0-0.99v-0.619c0-0.371 0-0.68 0-1.051v-0.619l0.804-1.113c2.012-13.489 3.201-29.116 3.278-45.005v-0.085c-17.9 24.672-43.863 42.542-73.964 49.797l-0.875 0.178c-13.422 3.246-28.831 5.108-44.675 5.108-14.85 0-29.318-1.635-43.234-4.736l1.318 0.247c-6.927-1.361-12.37-2.721-17.566-4.082-7.656-1.928-13.233-8.752-13.233-16.878 0-1.362 0.157-2.688 0.453-3.959l-0.023 0.117c0-0.433 1.113-5.505 1.608-7.669 0.99-4.577 2.103-8.968 3.464-13.483 4.061-13.808 9.388-25.831 16.047-36.965l-0.399 0.72c25.428-39.448 69.14-65.197 118.867-65.197 14.519 0 28.526 2.195 41.706 6.272l-0.999-0.266c-6.66-26.129-14.425-48.432-23.822-69.856l1.123 2.871c-7.815-18.307-15.514-33.422-24.072-47.972l1.063 1.956c-1.979-3.402-3.711-6.185-5.257-8.721h-15.525c-23.518-0.025-44.108-12.534-55.503-31.256l-0.162-0.287-33.152-55.233h-53.315c-21.163-0.008-39.898-10.395-51.393-26.347l-0.128-0.187-48.615-68.036c-11.787-16.371-30.792-26.905-52.257-26.905-0.002 0-0.005 0-0.007 0v0c-0.003 0-0.006 0-0.009 0-34.936 0-65.643-18.103-83.254-45.44l-0.236-0.391-92.281-145.102h-25.173c-0.31 0.020-0.672 0.031-1.036 0.031-9.599 0-17.38-7.781-17.38-17.38s7.781-17.38 17.38-17.38c0.365 0 0.727 0.011 1.086 0.033l-0.049-0.002h1006.496c0.31-0.020 0.672-0.031 1.036-0.031 9.599 0 17.38 7.781 17.38 17.38s-7.781 17.38-17.38 17.38c-0.365 0-0.727-0.011-1.086-0.033l0.049 0.002zM741.652 514.922c7.218 1.57 15.51 2.469 24.012 2.469 18.62 0 36.232-4.312 51.894-11.993l-0.695 0.308c3.835-1.608 7.422-3.278 11.071-5.010-3.349-7.315-7.044-13.588-11.293-19.432l0.222 0.32c-16.624-21.146-42.204-34.603-70.927-34.603-14.952 0-29.052 3.646-41.46 10.099l0.499-0.236c10.070 3.514 22.225 6.629 34.714 8.769l1.407 0.199c7.977 1.684 13.878 8.665 13.878 17.024 0 9.599-7.781 17.38-17.38 17.38-0.771 0-1.531-0.050-2.276-0.148l0.088 0.009c-12.26-2.088-22.681-4.559-32.852-7.609l1.927 0.496c9.968 10.155 22.519 17.741 36.591 21.694l0.582 0.14zM740.538 753.914c13.823 2.862 29.708 4.501 45.976 4.501 8.029 0 15.965-0.399 23.79-1.179l-0.988 0.080c7.422-0.619 14.040-1.423 20.040-2.35-0.742-2.845-1.546-5.752-2.412-8.659-4.643-15.489-10.681-28.961-18.201-41.44l0.45 0.804c-26.157-41.202-71.542-68.149-123.221-68.149-12.762 0-25.14 1.643-36.934 4.73l1.013-0.225c11.319 7.422 24.74 15.957 29.874 19.297 20.284 13.77 43.807 24.818 68.997 31.88l1.698 0.406c7.705 1.953 13.315 8.826 13.315 17.009 0 9.677-7.845 17.521-17.521 17.521-1.493 0-2.943-0.187-4.327-0.538l0.121 0.026c-30.574-8.411-57.333-20.903-81.381-37.111l0.975 0.619c-4.763-2.969-14.844-9.463-24.74-15.896 19.937 40.726 57.57 70.141 102.6 78.417l0.876 0.134zM377.289 864.441c-8.396 17.517-13.302 38.080-13.302 59.788 0 0.355 0.001 0.711 0.004 1.066v-0.054c0.603 0.005 1.316 0.009 2.029 0.009 28.19 0 55.241-4.874 80.358-13.826l-1.672 0.52c43.567-13.55 76.667-48.515 87.338-92.268l0.181-0.879c-21.185 19.737-45.060 37.045-70.9 51.217l-1.837 0.923c-2.597 1.628-5.753 2.594-9.135 2.594-9.599 0-17.38-7.781-17.38-17.38 0-6.895 4.015-12.852 9.835-15.661l0.104-0.045c27.382-14.942 50.949-32.495 71.738-52.872l-0.053 0.052c-1.754-0.073-3.812-0.115-5.879-0.115-56.132 0-105.097 30.683-131.040 76.191l-0.389 0.742zM449.902 568.671c-4.938 8.14-9.146 17.533-12.143 27.452l-0.227 0.876-0.619 2.165c10.352 2.323 22.242 3.654 34.443 3.654 12.808 0 25.272-1.467 37.236-4.241l-1.107 0.216c24.929-5.842 45.585-20.987 58.53-41.486l0.228-0.387-5.567 3.278c-5.257 3.031-10.267 5.752-15.215 8.226-2.596 1.626-5.75 2.591-9.129 2.591-9.599 0-17.38-7.781-17.38-17.38 0-7.273 4.467-13.502 10.807-16.094l0.116-0.042c4.33-2.165 8.783-4.577 13.545-7.298 3.587-2.041 7.237-4.268 11.319-6.742-6.027-1.295-12.95-2.036-20.047-2.036-35.644 0-66.919 18.704-84.546 46.832l-0.244 0.417zM83.684-29.364l80.406 126.423c11.576 17.998 31.503 29.75 54.175 29.75 0.002 0 0.004 0 0.007 0h7.236c0.018 0 0.040 0 0.062 0 28.728 0 52.016-23.289 52.016-52.016 0-0.022 0-0.043 0-0.065v0.003c0.563-9.142 8.115-16.344 17.349-16.344s16.786 7.201 17.347 16.294l0.002 0.049c0 0.028 0 0.062 0 0.095 0 28.986-14.242 54.645-36.11 70.362l-0.258 0.177c8.899 6.418 16.467 13.986 22.685 22.594l0.2 0.291 48.615 68.036c5.248 7.287 13.702 11.981 23.253 11.999h63.091c0.018 0 0.040 0 0.062 0 28.728 0 52.016-23.289 52.016-52.016 0-0.022 0-0.043 0-0.065v0.003c-0.020-0.31-0.031-0.672-0.031-1.036 0-9.599 7.781-17.38 17.38-17.38s17.38 7.781 17.38 17.38c0 0.365-0.011 0.727-0.033 1.086l0.002-0.049c0 0.030 0 0.065 0 0.1 0 37.906-24.357 70.123-58.274 81.855l-0.608 0.183 25.173 41.935c5.389 8.875 15.001 14.715 25.976 14.72h39.4c0.065 0 0.141 0 0.218 0 23.802 0 46.516-4.657 67.281-13.109l-1.194 0.43 19.421-7.793c21.754-8.955 47.008-14.157 73.476-14.164h33.835c0.025 0 0.054 0 0.083 0 14.748 0 27.798-7.27 35.761-18.422l0.091-0.134c-49.742-8.433-87.148-51.201-87.148-102.706 0-0.010 0-0.020 0-0.030v0.001c0.563-9.142 8.115-16.344 17.349-16.344s16.786 7.201 17.347 16.294l0.002 0.049c0 0.018 0 0.040 0 0.062 0 38.292 31.042 69.335 69.335 69.335 0.022 0 0.044 0 0.065 0h2.223l158.771-277.833h-875.435z" />
<glyph unicode="&#xe91d;" glyph-name="news" d="M316.473 477.98h165.547v181.020h-142.507c-13.054-53.766-21.359-115.981-23.016-179.851l-0.024-1.169zM541.98 477.98h165.547c-1.578 64.985-9.785 127.218-23.977 187.137l1.222-6.116h-142.791zM767.602 477.98h255.545c-3.841 66.327-19.796 128.013-45.68 184.181l1.306-3.161h-232.732c12.132-53.706 19.902-115.976 21.536-179.772l0.025-1.249zM278.016 659.001h-232.732c-24.577-53.007-40.532-114.693-44.31-179.648l-0.064-1.372h255.545c1.66 65.044 9.429 127.314 22.765 187.49l-1.204-6.47zM481.963 894.066c-47.134-25.787-83.176-66.876-101.896-116.466l-0.504-1.522c-7.267-14.948-14.963-33.756-21.607-53.054l-1.148-3.835h125.156zM325.063 801.564c47.9 102.172 114.29 158.436 186.937 158.436-0.414 0.001-0.905 0.002-1.395 0.002-140.946 0-268.502-57.328-360.623-149.939l-0.022-0.022c-26.889-26.866-50.825-56.68-71.285-88.918l-1.248-2.105h216.178c9.91 32.63 20.595 59.988 33.072 86.331l-1.613-3.785zM698.994 801.564c10.849-22.557 21.515-49.917 30.229-78.133l1.173-4.412h216.178c-21.709 34.342-45.645 64.156-72.53 91.019l-0.003 0.003c-92.143 92.633-219.7 149.961-360.645 149.961-0.491 0-0.981-0.001-1.472-0.002h0.076c72.647 0 139.036-56.263 186.994-158.436zM541.98 894.066v-175.047h125.156c-7.792 23.133-15.489 41.941-24.169 60.191l1.414-3.302c-19.19 51.179-55.239 92.332-101.252 117.581l-1.148 0.577zM0 418.020v-451.982c0-16.558 13.423-29.98 29.98-29.98v0h964.039c16.558 0 29.98 13.423 29.98 29.98v0 451.982zM274.773 65.308c-2.368-0.744-5.091-1.172-7.915-1.172-9.6 0-18.042 4.954-22.911 12.444l-0.064 0.106-75.947 109.796v-99.442c0-13.809-11.194-25.003-25.003-25.003s-25.003 11.194-25.003 25.003v0 179.655c0 0.003 0 0.007 0 0.011 0 13.793 11.181 24.974 24.974 24.974 8.478 0 15.969-4.224 20.483-10.683l0.053-0.081 79.644-115.655-0.967 101.547c-0.001 0.085-0.002 0.185-0.002 0.285 0 13.713 11.053 24.845 24.736 24.973h0.012c0 0 0.001 0 0.001 0 13.713 0 24.844-11.052 24.973-24.734v-0.012l1.707-173.909c0.008-0.258 0.013-0.561 0.013-0.865 0-12.457-8.007-23.043-19.155-26.893l-0.2-0.060zM424.334 201.842c13.809 0 25.003-11.194 25.003-25.003s-11.194-25.003-25.003-25.003v0h-45.511v-39.822h50.859c13.809 0 25.003-11.194 25.003-25.003s-11.194-25.003-25.003-25.003v0h-75.605c-13.793 0-24.974 11.181-24.974 24.974v0 179.996c0 13.793 11.181 24.974 24.974 24.974v0h75.833c13.809 0 25.003-11.194 25.003-25.003s-11.194-25.003-25.003-25.003v0h-50.859v-39.822zM728.007 261.632l-35.214-176.924c-0.25-1.254-0.545-2.323-0.906-3.36l0.053 0.174c-4.002-11.482-14.695-19.591-27.296-19.683h-0.011c-12.555 0.014-23.245 7.984-27.299 19.14l-0.064 0.202-0.341 1.024-30.72 99.783-31.061-99.612v-0.683c-4.002-11.482-14.695-19.591-27.296-19.683h-0.011c-12.555 0.014-23.245 7.984-27.299 19.14l-0.064 0.202c-0.358 0.967-0.692 2.15-0.939 3.363l-0.028 0.164-35.044 177.323c-0.304 1.462-0.478 3.143-0.478 4.864 0 13.805 11.191 24.997 24.997 24.997 12.084 0 22.166-8.575 24.492-19.972l0.027-0.161 18.887-95.403 29.696 96.028c2.531 11.32 12.493 19.655 24.401 19.655 11.205 0 20.687-7.379 23.85-17.543l0.047-0.177 30.151-97.906 18.944 95.118c2.365 11.547 12.442 20.11 24.519 20.11 13.808 0 25.002-11.194 25.002-25.002 0-1.731-0.176-3.422-0.511-5.054l0.028 0.161zM908.459 121.458c-8.046-34.437-38.486-59.695-74.826-59.695-1.195 0-2.383 0.027-3.564 0.081l0.167-0.006c-0.348-0.004-0.758-0.006-1.17-0.006-31.588 0-60.047 13.395-80.007 34.814l-0.060 0.065c-4.015 4.417-6.473 10.313-6.473 16.782 0 13.802 11.189 24.991 24.991 24.991 7.333 0 13.927-3.158 18.499-8.188l0.018-0.020c10.961-11.407 26.345-18.494 43.384-18.494 0.288 0 0.575 0.002 0.862 0.006h-0.043c0.804-0.082 1.738-0.129 2.683-0.129 12.056 0 22.325 7.654 26.212 18.367l0.062 0.194c2.105 11.833-16.327 19.627-22.016 21.732-27.989 10.354-52.85 21.39-53.874 21.845-1.346 0.6-2.484 1.227-3.565 1.936l0.095-0.058c-16.531 10.793-27.303 29.205-27.303 50.132 0 3.168 0.247 6.278 0.722 9.312l-0.043-0.337c4.191 25.724 22.819 46.198 47.153 53.023l0.463 0.111c7.932 2.104 17.039 3.313 26.428 3.313 25.266 0 48.488-8.752 66.799-23.389l-0.214 0.165c5.66-4.615 9.245-11.589 9.245-19.399 0-13.793-11.182-24.975-24.975-24.975-5.983 0-11.474 2.104-15.775 5.612l0.045-0.036c-9.673 7.641-22.043 12.256-35.491 12.256-4.173 0-8.241-0.444-12.161-1.288l0.378 0.068c-6.349-1.195-11.291-6.080-12.555-12.301l-0.017-0.101c-0.090-0.507-0.142-1.090-0.142-1.686 0-2.991 1.304-5.677 3.375-7.522l0.010-0.009c6.656-2.901 26.852-11.378 48.526-19.627 31.56-7.29 54.73-35.154 54.73-68.429 0-3.152-0.208-6.255-0.611-9.296l0.039 0.357z" />
<glyph unicode="&#xe91e;" glyph-name="notification" horiz-adv-x="853" d="M850.261 96.313l-73.273 122.14c-32.481 53.275-51.712 117.718-51.712 186.653v0 106.894c-0.194 134.427-89.050 248.049-211.215 285.535l-2.119 0.559v76.572c0 47.128-38.205 85.333-85.333 85.333s-85.333-38.205-85.333-85.333v0-76.572c-124.283-38.045-213.139-151.667-213.333-286.071v-106.974c-0.005-68.908-19.213-133.329-52.563-188.204l0.908 1.609-73.273-122.14c-1.905-3.135-3.033-6.926-3.033-10.98 0-11.78 9.522-21.336 21.289-21.39h810.729c0.008 0 0.018 0 0.027 0 11.782 0 21.333 9.551 21.333 21.333 0 4.055-1.131 7.846-3.096 11.074l0.053-0.094zM292.295 21.333c24.284-50.833 75.286-85.325 134.343-85.325s110.059 34.493 133.958 84.431l0.385 0.894z" />
<glyph unicode="&#xe91f;" glyph-name="Page-1" horiz-adv-x="853" d="M173.914-17.924c75.433-17.196 162.481-27.695 251.755-28.995l0.951-0.011c90.226 1.311 177.273 11.81 261.188 30.602l-8.482-1.596c34.432-27.524 78.232-44.655 125.979-46.069l0.313-0.007c20.556 0.279 37.744 14.367 42.729 33.395l0.069 0.312c2.412 10.545 3.794 22.655 3.794 35.088 0 45.48-18.497 86.641-48.379 116.368l-0.007 0.007c18.192 96.811 29.855 209.535 32.308 324.526l0.038 2.274c-2.488 117.285-14.151 230.032-34.32 339.802l1.974-12.941c29.862 29.721 48.341 70.854 48.341 116.304 0 12.458-1.388 24.592-4.019 36.256l0.208-1.097c-5.048 19.319-22.206 33.398-42.702 33.706h-0.035c-48.059-1.421-91.859-18.552-126.717-46.405l0.426 0.329c-75.454 17.201-162.523 27.7-251.821 28.995l-0.948 0.011c-90.207-1.316-177.232-11.814-261.126-30.602l8.482 1.596c-34.448 27.536-78.272 44.669-126.044 46.069l-0.31 0.007c-20.556-0.279-37.744-14.367-42.729-33.395l-0.069-0.312c-2.419-10.561-3.805-22.688-3.805-35.139 0-45.455 18.477-86.595 48.329-116.319l0.006-0.006c-18.174-96.823-29.816-209.552-32.247-324.547l-0.038-2.252c2.465-117.267 14.107-230.018 34.255-339.794l-1.971 12.933c-29.858-29.729-48.335-70.869-48.335-116.324 0-12.451 1.386-24.578 4.013-36.236l-0.208 1.097c5.054-19.339 22.243-33.427 42.767-33.706h0.031c48.081 1.406 91.905 18.54 126.779 46.405l-0.426-0.329zM36.923-19.161c-1.358 7.080-2.135 15.223-2.135 23.548 0 27.145 8.261 52.362 22.406 73.271l-0.295-0.462c1.051-5.814 2.103-11.38 3.092-16.575 1.109-8.452 8.267-14.91 16.933-14.91 9.427 0 17.070 7.642 17.070 17.070 0 1.429-0.175 2.816-0.506 4.142l0.025-0.118c-23.459 112.792-38.711 244.041-42.301 378.199l-0.064 3.026c3.703 137.193 18.998 268.413 44.974 395.746l-2.485-14.583c0.087 0.649 0.137 1.399 0.137 2.16 0 9.427-7.642 17.070-17.070 17.070-7.999 0-14.713-5.502-16.564-12.928l-0.025-0.118c-0.99-5.257-2.041-10.761-3.092-16.575-13.91 20.479-22.209 45.748-22.209 72.955 0 8.273 0.767 16.366 2.235 24.214l-0.126-0.811c3.773 10.7 8.411 10.7 10.638 10.7 29.907-1.195 57.678-9.276 82.108-22.688l-0.965 0.485-5.195-1.237c-7.515-1.897-12.988-8.597-12.988-16.575 0-9.428 7.643-17.070 17.070-17.070 1.449 0 2.856 0.181 4.2 0.521l-0.118-0.025c87.898 23.164 189.242 37.456 293.588 39.5l1.298 0.020c105.621-2.020 206.974-16.269 303.949-41.389l-9.062 1.993c0.934-0.181 2.008-0.285 3.107-0.285 9.427 0 17.070 7.642 17.070 17.070 0 7.622-4.996 14.078-11.892 16.27l-0.121 0.033-5.071 1.237c23.451 12.898 51.202 20.957 80.724 22.13l0.358 0.011c2.226 0 6.803 0 10.514-10.638 1.358-7.080 2.135-15.223 2.135-23.548 0-27.145-8.261-52.362-22.406-73.271l0.295 0.462c-1.051 5.814-2.103 11.38-3.092 16.575-1.109 8.452-8.267 14.91-16.933 14.91-9.427 0-17.070-7.642-17.070-17.070 0-1.429 0.175-2.816 0.506-4.142l-0.025 0.118c23.491-112.75 38.786-243.969 42.423-378.098l0.066-3.065c-3.703-137.193-18.998-268.413-44.974-395.746l2.485 14.583c-0.306-1.209-0.481-2.596-0.481-4.025 0-9.427 7.642-17.070 17.070-17.070 8.666 0 15.824 6.458 16.923 14.823l0.009 0.086c0.99 5.257 2.041 10.761 3.092 16.575 13.851-20.448 22.112-45.664 22.112-72.809 0-8.325-0.777-16.468-2.262-24.361l0.127 0.813c-3.649-10.638-8.287-10.638-10.514-10.638-29.907 1.195-57.678 9.276-82.108 22.688l0.965-0.485 5.133 1.237c7.515 1.897 12.988 8.597 12.988 16.575 0 9.428-7.643 17.070-17.070 17.070-1.449 0-2.856-0.181-4.2-0.521l0.118 0.025c-87.876-23.159-189.198-37.45-293.522-39.5l-1.303-0.020c-105.621 2.020-206.974 16.269-303.949 41.389l9.062-1.993c-1.235 0.318-2.653 0.501-4.113 0.501-9.465 0-17.138-7.673-17.138-17.138 0-8.005 5.488-14.727 12.906-16.611l0.119-0.026 5.133-1.237c-23.471-12.796-51.233-20.751-80.752-21.822l-0.329-0.009c-2.226 0-6.865 0-10.514 10.638zM170.636 448.031c0-141.376 114.608-255.985 255.985-255.985s255.985 114.608 255.985 255.985c0 141.376-114.608 255.985-255.985 255.985v0c-141.376 0-255.985-114.608-255.985-255.985v0zM426.62 226.186c-62.176 0.005-118.356 25.674-158.526 66.99l-0.050 0.052c9.363 11.342 23.414 18.524 39.144 18.554h0.005c12.045-0.030 23.081-4.322 31.687-11.447l-0.083 0.067c2.893-2.329 6.612-3.738 10.66-3.738 6.834 0 12.731 4.017 15.457 9.818l0.044 0.104c10.337 21.546 30.989 36.682 55.38 39.065l0.282 0.022c-2.71-10.357-5.901-19.225-9.772-27.717l0.433 1.061c-1.492-2.484-2.375-5.482-2.375-8.686 0-9.427 7.642-17.070 17.070-17.070 7.536 0 13.931 4.883 16.194 11.658l0.035 0.12c4.665 9.879 8.896 21.569 12.052 33.693l0.317 1.436c15.033-6.925 26.884-18.617 33.836-33.106l0.18-0.415c2.771-5.906 8.667-9.922 15.501-9.922 4.048 0 7.767 1.409 10.693 3.763l-0.033-0.026c8.522 7.058 19.559 11.35 31.597 11.38h0.007c15.735-0.030 29.786-7.212 39.080-18.468l0.069-0.086c-40.228-41.409-96.44-67.104-158.653-67.104-0.081 0-0.163 0-0.244 0h0.013zM438.99 503.631c-0.087 1.295-0.137 2.806-0.137 4.33 0 17.167 6.33 32.855 16.782 44.859l-0.070-0.082c11.631 6.922 25.646 11.013 40.616 11.013 7.037 0 13.863-0.904 20.368-2.602l-0.559 0.124c0.537-0.283 0.938-0.765 1.109-1.345l0.004-0.016c0.309-2.657 0.485-5.735 0.485-8.854 0-18.791-6.397-36.089-17.133-49.832l0.135 0.179c-11.57-6.888-25.513-10.96-40.407-10.96-6.576 0-12.967 0.794-19.081 2.291l0.548-0.113zM408.499 484.521c-13.866-11.917-32.038-19.172-51.904-19.172-1.561 0-3.112 0.045-4.651 0.133l0.213-0.010c-19.406 8.494-34.292 24.286-41.393 43.816l-0.168 0.528c-0.037 0.165-0.059 0.354-0.059 0.548 0 0.533 0.16 1.028 0.436 1.44l-0.006-0.009c13.554 11.118 30.482 18.602 49.038 20.739l0.44 0.041c0.042 0 0.092 0 0.141 0 2.892 0 5.7-0.361 8.381-1.040l-0.235 0.050c16.611-6.963 29.669-19.66 36.93-35.559l0.178-0.436zM648.465 448.031c0-0.020 0-0.044 0-0.069 0-48.136-15.439-92.667-41.634-128.91l0.444 0.646c-15.443 15.987-37.071 25.914-61.017 25.914-0.053 0-0.105 0-0.158 0h0.008c-13.335-0.038-25.927-3.185-37.099-8.754l0.486 0.219c-12.256 16.902-29.124 29.781-48.758 36.881l-0.72 0.227c0.506 6.005 0.794 12.996 0.794 20.054 0 22.41-2.907 44.141-8.365 64.836l0.396-1.767c3.402 0 6.803-0.557 10.514-0.557 1.246-0.062 2.706-0.097 4.175-0.097 21.059 0 40.428 7.234 55.758 19.352l-0.189-0.144c17.812 19.516 28.722 45.597 28.722 74.226 0 3.983-0.211 7.917-0.623 11.79l0.042-0.482c-0.871 16.826-13.153 30.545-29.214 33.609l-0.225 0.036c-7.835 2.004-16.83 3.154-26.094 3.154-23.4 0-45.086-7.338-62.882-19.838l0.35 0.233c-9.799-9.031-17.235-20.48-21.371-33.405l-0.152-0.549c-9.315 9.456-21.059 16.492-34.222 20.099l-0.536 0.125c-4.617 0.703-9.944 1.104-15.365 1.104-27.227 0-52.090-10.123-71.030-26.81l0.118 0.102c-8.615-6.716-14.104-17.095-14.104-28.755 0-5.473 1.209-10.663 3.374-15.318l-0.094 0.224c11.395-29.418 34.411-52.171 63.264-62.963l0.747-0.245c4.925-1.257 10.58-1.979 16.402-1.979 0.017 0 0.034 0 0.052 0h-0.003c22.053 1.13 42.186 8.488 58.917 20.334l-0.348-0.234c4.601-17.003 7.244-36.526 7.244-56.665 0-4.956-0.16-9.875-0.475-14.752l0.034 0.664c-33.749-0.392-63.538-16.998-81.99-42.379l-0.205-0.296c-10.66 5.381-23.223 8.568-36.522 8.658h-0.030c-0.044 0-0.097 0-0.15 0-23.946 0-45.574-9.927-60.993-25.89l-0.024-0.024c-25.603 35.683-40.943 80.236-40.943 128.372 0 122.453 99.268 221.721 221.721 221.721s221.721-99.268 221.721-221.721c0-0.014 0-0.028 0-0.042v0.002zM138.228 739.145c85.771 31.291 184.786 49.645 288.012 50.219l0.257 0.001c103.523-0.56 202.583-18.915 294.52-52.155l-6.128 1.936c1.868-0.764 4.036-1.208 6.307-1.208 9.427 0 17.070 7.642 17.070 17.070 0 7.616-4.988 14.068-11.876 16.265l-0.121 0.033c-89.219 32.898-192.257 51.93-299.741 51.93s-210.524-19.032-305.932-53.909l6.191 1.979c-6.359-2.578-10.763-8.706-10.763-15.862 0-9.427 7.642-17.070 17.070-17.070 1.811 0 3.556 0.282 5.194 0.805l-0.121-0.033zM126.91 124.695c89.201-33.050 192.238-52.172 299.741-52.172s210.541 19.122 305.897 54.15l-6.156-1.978c6.359 2.578 10.763 8.706 10.763 15.862 0 9.427-7.642 17.070-17.070 17.070-1.811 0-3.556-0.282-5.194-0.805l0.121 0.033c-85.811-31.306-184.871-49.66-288.144-50.219l-0.248-0.001c-103.523 0.56-202.583 18.915-294.52 52.155l6.128-1.936c-1.517 0.489-3.262 0.771-5.073 0.771-9.427 0-17.070-7.642-17.070-17.070 0-7.156 4.403-13.284 10.649-15.821l0.114-0.041z" />
<glyph unicode="&#xe921;" glyph-name="basket" horiz-adv-x="1317" d="M1269.115 695.995h-129.911l-191.594 245.53c-8.87 10.658-22.139 17.392-36.981 17.392-26.516 0-48.012-21.496-48.012-48.012 0-10.69 3.493-20.563 9.401-28.542l-0.092 0.13 145.528-186.415h-702.993l146.44 186.415c6.378 8.079 10.231 18.41 10.231 29.64 0 26.538-21.514 48.052-48.052 48.052-15.308 0-28.945-7.158-37.744-18.31l-0.077-0.102-193.043-245.654h-144.244c-26.505 0-47.992-21.487-47.992-47.992s21.487-47.992 47.992-47.992v0h38.277l77.259-482.733c17.043-103.34 105.695-181.209 212.548-181.279h562.070c106.877 0.049 195.551 77.925 212.425 180.026l0.171 1.252 77.217 482.609h41.177c26.505 0 47.992 21.487 47.992 47.992s-21.487 47.992-47.992 47.992v0zM1055.939 132.606c-9.18-57.247-58.217-100.458-117.347-100.458-0.15 0-0.299 0-0.449 0.001h-562.081c-0.126 0-0.276-0.001-0.426-0.001-59.13 0-108.168 43.211-117.257 99.778l-0.090 0.68-74.815 467.405h947.445z" />
<glyph unicode="&#xe922;" glyph-name="star-painted" horiz-adv-x="1069" d="M1065.721 573.022c-7.029 21.35-25.826 36.896-48.527 39.056l-0.228 0.018-308.412 27.86-121.958 285.567c-8.873 20.482-28.912 34.551-52.238 34.551s-43.365-14.069-52.096-34.184l-0.142-0.367-121.958-285.567-308.482-27.86c-29.091-2.729-51.678-27.027-51.678-56.6 0-17.034 7.494-32.319 19.365-42.735l0.065-0.056 233.12-204.424-68.745-302.84c-0.93-3.844-1.463-8.258-1.463-12.797 0-31.312 25.383-56.695 56.695-56.695 10.807 0 20.908 3.024 29.503 8.271l-0.249-0.141 266.064 159.012 265.925-159.012c8.323-5.060 18.386-8.056 29.149-8.056 31.35 0 56.765 25.415 56.765 56.765 0 4.486-0.52 8.851-1.504 13.037l0.076-0.384-68.745 302.84 233.12 204.424c11.94 10.472 19.437 25.759 19.437 42.797 0 6.288-1.021 12.337-2.906 17.991l0.116-0.401z" />
<glyph unicode="&#xe923;" glyph-name="map" horiz-adv-x="828" d="M754.146 781.944c-75.636 108.162-199.598 178.023-339.878 178.023s-264.242-69.861-338.994-176.689l-0.884-1.334c-46.47-65.944-74.272-147.95-74.272-236.45 0-51.915 9.567-101.596 27.034-147.375l-0.951 2.837c14.911-38.179 35.271-71.022 60.524-99.417l-0.288 0.33 300.755-353.28c6.604-7.731 16.361-12.601 27.256-12.601s20.653 4.87 27.215 12.551l0.041 0.049 300.695 353.16c24.948 28.035 45.305 60.836 59.467 96.756l0.768 2.21c16.483 42.905 26.030 92.54 26.030 144.405 0 88.658-27.897 170.8-75.391 238.127l0.872-1.303zM735.112 425.833c-11.727-29.8-27.684-55.431-47.446-77.595l0.221 0.253-273.468-321.235-273.83 321.235c-19.581 21.976-35.561 47.689-46.682 75.851l-0.603 1.732c-13.618 35.47-21.506 76.502-21.506 119.376 0 73.285 23.045 141.188 62.285 196.856l-0.723-1.081c62.534 89.421 165.021 147.177 280.998 147.177s218.463-57.756 280.267-146.075l0.731-1.103c38.428-54.551 61.417-122.384 61.417-195.586 0-43.035-7.946-84.215-22.45-122.152l0.788 2.346zM414.238 747.55c-110.746 0-200.523-89.777-200.523-200.523s89.777-200.523 200.523-200.523c110.746 0 200.523 89.777 200.523 200.523v0c-0.103 110.705-89.819 200.421-200.514 200.523h-0.010zM414.238 418.123c-71.191 0-128.904 57.712-128.904 128.904s57.712 128.904 128.904 128.904c71.191 0 128.904-57.712 128.904-128.904v0c-0.069-71.164-57.74-128.835-128.897-128.904h-0.006z" />
<glyph unicode="&#xe924;" glyph-name="right" d="M950.857 374.927l-365.763-365.763c-40.649-38.456-104.618-37.776-144.334 1.939s-40.395 103.685-2.038 144.231l0.099 0.103 292.6 292.6-292.6 292.6c-38.456 40.649-37.776 104.618 1.939 144.334s103.685 40.395 144.231 2.038l0.103-0.099 365.71-365.71c40.388-40.388 40.407-105.859 0.056-146.271l-0.003-0.003z" />
<glyph unicode="&#xe927;" glyph-name="shipped" horiz-adv-x="1619" d="M1505.464 525.873l-41.941 167.703c11.69 2.4 20.358 12.604 20.358 24.832 0 0.044 0 0.087 0 0.131v-0.007 27.041c-0.070 58.761-47.686 106.377-106.44 106.447h-191.194v55.737c-0.035 28.906-23.459 52.33-52.362 52.365h-973.355c-28.906-0.035-52.33-23.459-52.365-52.362v-459.883c0-14.003 11.352-25.355 25.355-25.355s25.355 11.352 25.355 25.355v0 459.88c0 0.948 0.769 1.717 1.717 1.717v0h973.229c0.948 0 1.717-0.769 1.717-1.717v-459.88c0-14.003 11.352-25.355 25.355-25.355s25.355 11.352 25.355 25.355v0 28.758h299.167c36.642-0.069 67.704-23.881 78.625-56.868l0.168-0.586h-78.915c-13.986 0-25.324-11.338-25.324-25.324v0-54.082c0-44.024 35.689-79.713 79.713-79.713v0h28.758v-111.536h-66.591c-22.361 63.473-81.813 108.149-151.699 108.149s-129.338-44.676-151.354-107.026l-0.346-1.123h-12.263v190.942c0 14.003-11.352 25.355-25.355 25.355s-25.355-11.352-25.355-25.355v0-190.942h-525.858c-22.361 63.473-81.813 108.149-151.699 108.149s-129.338-44.676-151.354-107.026l-0.346-1.123h-145.69c-0.948 0-1.717 0.769-1.717 1.717v0 55.737h109.881c14.003 0 25.355 11.352 25.355 25.355s-11.352 25.355-25.355 25.355v0h-243.369c-14.003 0-25.355-11.352-25.355-25.355s11.352-25.355 25.355-25.355v0h82.778v-55.737c0.035-28.906 23.459-52.33 52.362-52.365h136.986c0-0.552 0-1.104 0-1.717 0-88.658 71.871-160.529 160.529-160.529s160.529 71.871 160.529 160.529v0c0 0.552 0 1.104 0 1.717h571.049c0-0.552 0-1.104 0-1.717 0-88.658 71.871-160.529 160.529-160.529s160.529 71.871 160.529 160.529v0c0 0.552 0 1.104 0 1.717h82.84c13.986 0 25.324 11.338 25.324 25.324v0 270.348c0 0.062 0 0.136 0 0.21 0 66.639-48.764 121.889-112.555 132.013l-0.76 0.099zM1186.184 801.127h191.004c30.769-0.035 55.703-24.969 55.737-55.734v-1.72h-246.68zM1186.184 527.406v165.557h225.219l41.389-165.557zM457.918-13.291c-60.652 0-109.819 49.168-109.819 109.819s49.168 109.819 109.819 109.819c60.652 0 109.819-49.168 109.819-109.819v0c-0.070-60.624-49.196-109.75-109.813-109.819h-0.007zM1350.147-13.291c-60.652 0-109.819 49.168-109.819 109.819s49.168 109.819 109.819 109.819c60.652 0 109.819-49.168 109.819-109.819v0c-0.070-60.624-49.196-109.75-109.813-109.819h-0.007zM1568.13 311.14h-28.758c0 0 0 0 0 0-15.861 0-28.723 12.84-28.758 28.693v28.761h57.454v-57.454zM457.918 148.71c-28.92 0-52.365-23.445-52.365-52.365s23.445-52.365 52.365-52.365c28.92 0 52.365 23.445 52.365 52.365v0c-0.035 28.906-23.459 52.33-52.362 52.365h-0.003zM1350.086 148.71c-28.92 0-52.365-23.445-52.365-52.365s23.445-52.365 52.365-52.365c28.92 0 52.365 23.445 52.365 52.365v0c-0.035 28.906-23.459 52.33-52.362 52.365h-0.003zM1052.696 257.058h-378.512c-14.003 0-25.355-11.352-25.355-25.355s11.352-25.355 25.355-25.355v0h378.512c14.003 0 25.355 11.352 25.355 25.355s-11.352 25.355-25.355 25.355v0zM403.897 365.222h-324.491c-14.003 0-25.355-11.352-25.355-25.355s11.352-25.355 25.355-25.355v0h324.43c14.003 0 25.355 11.352 25.355 25.355s-11.352 25.355-25.355 25.355v0zM881.376 709.273c-4.586 4.6-10.928 7.446-17.935 7.446s-13.35-2.846-17.935-7.445l-225.404-225.404-117.239 117.239c-4.59 4.59-10.931 7.429-17.935 7.429-14.008 0-25.364-11.356-25.364-25.364 0-7.004 2.839-13.345 7.429-17.935l134.898-134.898c4.586-4.6 10.928-7.446 17.935-7.446s13.35 2.846 17.935 7.445l243.308 243.308c4.619 4.589 7.478 10.944 7.478 17.968 0 6.87-2.736 13.101-7.177 17.663l0.005-0.006z" />
<glyph unicode="&#xe929;" glyph-name="store" d="M667.804 258.116v-322.116h-138.653v302.936c0 9.426-7.641 17.068-17.068 17.068s-17.068-7.641-17.068-17.068v0-302.936h-138.709v322.116c0.032 28.266 22.937 51.171 51.2 51.203h209.039c28.29 0 51.227-22.917 51.258-51.2v-0.003zM949.392 419.341c-19.547-8.219-42.267-12.995-66.103-12.995-43.042 0-82.447 15.572-112.887 41.39l0.253-0.209c-2.976 2.539-6.867 4.084-11.119 4.084s-8.143-1.545-11.143-4.104l0.024 0.020c-30.18-25.581-69.563-41.135-112.579-41.135s-82.4 15.554-112.833 41.345l0.254-0.21c-2.98 2.529-6.87 4.067-11.119 4.067s-8.139-1.538-11.144-4.087l0.025 0.021c-30.184-25.595-69.578-41.158-112.607-41.158s-82.423 15.563-112.86 41.368l0.253-0.209c-2.976 2.539-6.867 4.084-11.119 4.084s-8.143-1.545-11.143-4.104l0.024 0.020c-30.163-25.62-69.55-41.201-112.576-41.201-23.838 0-46.56 4.783-67.257 13.441l1.151-0.427c-1.907 0.8-4.124 1.265-6.449 1.265-9.421 0-17.060-7.634-17.068-17.053v-382.048c0-47.131 38.207-85.338 85.338-85.338h185.742v321.949c0.063 47.008 38.074 85.117 85.039 85.338h209.057c47.105-0.063 85.275-38.233 85.338-85.332v-322.122h185.575c0.033 0 0.072 0 0.111 0 47.131 0 85.338 38.207 85.338 85.338 0 0.059 0 0.117 0 0.176v-0.009 381.825c-0.020 9.411-7.654 17.032-17.068 17.032-2.304 0-4.502-0.457-6.507-1.284l0.113 0.041zM127.868 669.851c-9.275 0.196-16.719 7.761-16.719 17.064 0 0.412 0.015 0.821 0.043 1.225l-0.003-0.054c0.797 8.974 8.279 15.957 17.392 15.957 0.081 0 0.163-0.001 0.244-0.002h863.375c0.005 0 0.010 0 0.016 0 9.426 0 17.068 7.641 17.068 17.068 0 2.452-0.517 4.784-1.449 6.892l0.043-0.109-96.123 222.045c-2.691 6.103-8.688 10.285-15.662 10.285-0.006 0-0.011 0-0.017 0h-768.208c-6.892-0.086-12.792-4.244-15.412-10.176l-0.043-0.109-111.19-255.736c-2.176-18.841-3.417-40.672-3.417-62.794 0-17.722 0.797-35.258 2.356-52.574l-0.162 2.233c0-0.045 0-0.099 0-0.152 0-77.712 62.998-140.71 140.71-140.71 48.379 0 91.056 24.415 116.38 61.597l0.314 0.488c1.558 2.305 4.162 3.801 7.116 3.801s5.558-1.496 7.097-3.771l0.019-0.030c25.647-37.692 68.345-62.123 116.749-62.123s91.102 24.431 116.435 61.635l0.314 0.488c1.558 2.305 4.162 3.801 7.116 3.801s5.558-1.496 7.097-3.771l0.019-0.030c25.662-37.574 68.293-61.917 116.61-61.917s90.948 24.343 116.298 61.433l0.312 0.484c1.549 2.283 4.132 3.762 7.061 3.762s5.511-1.48 7.041-3.733l0.019-0.030c25.664-37.561 68.288-61.894 116.594-61.894 77.743 0 140.766 63.023 140.766 140.766 0 0.651-0.004 1.301-0.013 1.95l0.001-0.098v69.771c0 9.426-7.641 17.068-17.068 17.068h-879.12z" />
<glyph unicode="&#xe92a;" glyph-name="support" d="M512 960c-216.128-0.255-391.265-175.392-391.52-391.495v-361.433c-0.010-0.506-0.016-1.103-0.016-1.7 0-49.909 40.459-90.368 90.368-90.368s90.368 40.459 90.368 90.368c0 0.598-0.006 1.194-0.017 1.79l0.001-0.089v301.184c-0.073 49.873-40.492 90.281-90.363 90.336h-0.005c-10.361-0.134-20.242-2.011-29.421-5.35l0.621 0.198c13.217 171.862 155.921 306.306 330.026 306.306 174.014 0 316.66-134.305 329.935-304.913l0.071-1.137c-8.578 3.073-18.475 4.864-28.785 4.896h-0.015c-49.876-0.055-90.295-40.463-90.368-90.329v-301.159c0.055-49.887 40.481-90.313 90.363-90.368h0.005c10.839 0.107 21.173 2.128 30.727 5.74l-0.615-0.204v-35.648c-0.018-16.623-13.489-30.094-30.11-30.112h-216.45c-12.776 35.386-46.072 60.224-85.17 60.224-49.891 0-90.336-40.445-90.336-90.336s40.445-90.336 90.336-90.336c39.097 0 72.394 24.838 84.971 59.595l0.199 0.629h216.384c49.796 0.145 90.117 40.501 90.208 90.295v481.897c-0.255 216.083-175.319 391.192-391.36 391.52h-0.032zM963.744 532.736v-350.304c35.294 12.702 60.1 45.838 60.224 84.785v180.719c-0.124 38.962-24.93 72.098-59.595 84.602l-0.629 0.198zM0 448v-180.704c0.124-38.962 24.93-72.098 59.595-84.602l0.629-0.198v350.24c-35.274-12.695-60.071-45.8-60.224-84.717v-0.019z" />
<glyph unicode="&#xe92b;" glyph-name="tablet" horiz-adv-x="768" d="M661.38 960h-554.502c-0.018 0-0.040 0-0.061 0-58.951 0-106.748-47.755-106.818-106.689v-810.432c0.069-58.899 47.797-106.626 106.689-106.696h554.508c58.761 0.138 106.367 47.701 106.574 106.432v810.689c-0.069 58.792-47.624 106.454-106.368 106.696h-0.023zM383.886-0.019c-23.557 0-42.654 19.097-42.654 42.654s19.097 42.654 42.654 42.654c23.557 0 42.654-19.097 42.654-42.654v0c0-23.557-19.097-42.654-42.654-42.654v0zM682.464 127.943c0-11.779-9.548-21.327-21.327-21.327v0h-554.502c-11.779 0-21.327 9.548-21.327 21.327v0 725.361c0 11.779 9.548 21.327 21.327 21.327v0h554.502c11.779 0 21.327-9.548 21.327-21.327v0z" />
<glyph unicode="&#xe92c;" glyph-name="tag" horiz-adv-x="1146" d="M893.773 960h-351.751c-0.002 0-0.004 0-0.006 0-23.189 0-44.182-9.398-59.379-24.594l-458.044-457.924c-15.235-15.203-24.66-36.224-24.66-59.445s9.425-44.242 24.659-59.444l351.872-351.872c15.2-15.217 36.208-24.63 59.415-24.63s44.214 9.413 59.414 24.629l457.985 457.925c15.195 15.197 24.594 36.19 24.594 59.379 0 0.044 0 0.089 0 0.133v-0.007 351.811c0 0.018 0 0.039 0 0.060 0 46.38-37.599 83.979-83.979 83.979-0.042 0-0.084 0-0.126 0h0.006zM746.69 666.075c-34.792 0.034-62.984 28.247-62.984 63.044 0 34.818 28.226 63.044 63.044 63.044s63.044-28.226 63.044-63.044c0-0.063 0-0.126 0-0.19v0.010c0-34.797-28.192-63.010-62.981-63.044h-0.003zM1061.67 875.961v-391.161c0-0.016 0-0.035 0-0.054 0-20.175-8.184-38.439-21.414-51.652l-465.363-465.363 7.138-7.138c15.2-15.217 36.208-24.63 59.415-24.63s44.214 9.413 59.414 24.629l420.254 419.894c15.219 15.19 24.638 36.186 24.654 59.382v352.054c0 0.018 0 0.039 0 0.060 0 46.38-37.599 83.979-83.979 83.979-0.042 0-0.084 0-0.126 0h0.006z" />
<glyph unicode="&#xe92d;" glyph-name="term" d="M512.028-63.943c-282.754 0-511.972 229.217-511.972 511.972s229.217 511.972 511.972 511.972c282.754 0 511.972-229.217 511.972-511.972v0c-0.324-282.624-229.348-511.648-511.941-511.972h-0.031zM316 690.419c-50.045-0.161-90.572-40.687-90.733-90.717v-347.701c0.193-50.021 40.707-90.515 90.717-90.676h392.527c50.025 0.161 90.539 40.655 90.733 90.657v0.019c-0.639 12.715-11.104 22.782-23.92 22.782s-23.281-10.067-23.918-22.725l-0.002-0.057c0-0.017 0-0.037 0-0.057 0-23.691-19.157-42.908-42.826-43.005h-392.521c-23.77 0.032-43.030 19.293-43.062 43.059v347.689c0.097 23.678 19.314 42.835 43.005 42.835 0.020 0 0.040 0 0.060 0h26.108v-20.536c0.639-12.715 11.104-22.782 23.92-22.782s23.281 10.067 23.918 22.725l0.002 0.057v20.536h97.047v-20.536c0.639-12.715 11.104-22.782 23.92-22.782s23.281 10.067 23.918 22.725l0.002 0.057v20.536h98.185v-20.536c0-13.164 10.671-23.835 23.835-23.835s23.835 10.671 23.835 23.835v0 20.536h27.476c23.644-0.032 42.803-19.191 42.835-42.832v-236.363c0.639-12.715 11.104-22.782 23.92-22.782s23.281 10.067 23.918 22.725l0.002 0.057v236.36c-0.161 50.045-40.687 90.572-90.717 90.733h-27.491v20.706c0 13.164-10.671 23.835-23.835 23.835s-23.835-10.671-23.835-23.835v0-20.706h-98.242v20.706c-0.639 12.715-11.104 22.782-23.92 22.782s-23.281-10.067-23.918-22.725l-0.002-0.057v-20.706h-97.047v20.706c-0.639 12.715-11.104 22.782-23.92 22.782s-23.281-10.067-23.918-22.725l-0.002-0.057v-20.706zM511.061 309.91c-0.051 0-0.111 0.001-0.171 0.001-12.316 0-22.299-9.984-22.299-22.299s9.984-22.299 22.299-22.299c12.295 0 22.266 9.951 22.299 22.239v0.003c-0.095 12.226-9.964 22.115-22.173 22.242h-0.012zM511.061 533.243c-0.017 0-0.037 0-0.057 0-13.187 0-23.884-10.658-23.949-23.829v-143.756c0.639-12.715 11.104-22.782 23.92-22.782s23.281 10.067 23.918 22.725l0.002 0.057v143.75c0 0.034 0 0.074 0 0.114 0 13.164-10.671 23.835-23.835 23.835-0.020 0-0.040 0-0.060 0h0.003z" />
<glyph unicode="&#xe92e;" glyph-name="transaction" horiz-adv-x="1158" d="M1001.786 169.828c-34.111 0.001-64.239 17.055-82.324 43.101l-0.217 0.33-49.026 71.295c-58.382-102.448-166.878-170.404-291.247-170.404-172.694 0-314.785 131.027-332.283 299.091l-0.121 1.438h31.742c0.139-0.002 0.303-0.003 0.468-0.003 18.357 0 33.238 14.881 33.238 33.238 0 7.137-2.249 13.748-6.077 19.164l0.070-0.104-48.693 70.796-73.954 107.247c-6.063 8.847-16.114 14.576-27.504 14.576s-21.442-5.729-27.431-14.463l-0.073-0.113-122.426-178.099c-3.758-5.312-6.008-11.923-6.008-19.060 0-18.357 14.881-33.238 33.238-33.238 0.165 0 0.329 0.001 0.493 0.004h34.431c18.054-268.043 239.903-478.63 510.937-478.63 141.39 0 269.394 57.308 362.053 149.964v0c24.965 24.954 47.38 52.455 66.823 82.082l1.204 1.954c-2.604-0.166-4.93-0.166-7.312-0.166zM604.262 481.376h-50.909c-9.668 0-17.505 7.837-17.505 17.505v0 25.593c0 9.668 7.837 17.505 17.505 17.505v0h50.909c9.668 0 17.505-7.837 17.505-17.505v0c0-18.448 14.955-33.404 33.404-33.404s33.404 14.955 33.404 33.404v0c-0.062 43.718-33.366 79.639-75.987 83.842l-0.349 0.028v17.893c0 18.448-14.955 33.404-33.404 33.404s-33.404-14.955-33.404-33.404v0-17.893c-42.97-4.231-76.274-40.152-76.336-83.864v-25.433c0.063-46.509 37.749-84.195 84.252-84.258h50.915c9.668 0 17.505-7.837 17.505-17.505v0-25.427c0-9.668-7.837-17.505-17.505-17.505v0h-50.909c-9.668 0-17.505 7.837-17.505 17.505v0c0 18.448-14.955 33.404-33.404 33.404s-33.404-14.955-33.404-33.404v0c0.062-43.718 33.366-79.639 75.987-83.842l0.349-0.028v-17.893c0-18.448 14.955-33.404 33.404-33.404s33.404 14.955 33.404 33.404v0 17.893c42.97 4.231 76.274 40.152 76.336 83.864v25.211c-0.032 46.533-37.729 84.25-84.252 84.313h-0.006zM1153.738 463.594c-5.672 10.685-16.728 17.838-29.455 17.838-0.045 0-0.089 0-0.134 0h-34.449c-18.054 268.043-239.903 478.63-510.937 478.63-141.39 0-269.394-57.308-362.053-149.964v0c-24.965-24.954-47.38-52.455-66.823-82.082l-1.204-1.954c2.327 0 4.709 0 7.091 0 34.111-0.001 64.239-17.055 82.324-43.101l0.217-0.33 49.026-71.295c58.382 102.448 166.878 170.404 291.247 170.404 172.694 0 314.785-131.027 332.283-299.091l0.121-1.438h-31.742c-0.139 0.002-0.303 0.003-0.468 0.003-18.357 0-33.238-14.881-33.238-33.238 0-7.137 2.249-13.748 6.077-19.164l-0.070 0.104 122.481-178.099c6.063-8.847 16.114-14.576 27.504-14.576s21.442 5.729 27.431 14.463l0.073 0.113 44.317 64.315 78.22 113.784c3.776 5.32 6.037 11.947 6.037 19.101 0 5.7-1.435 11.065-3.963 15.754l0.087-0.177z" />
<glyph unicode="&#xe92f;" glyph-name="tshirt" horiz-adv-x="1055" d="M1049.622 401.091c-44.587 50.313-91.162 96.157-140.676 138.675l-1.909 1.601c-3.998 1.633 35.477 1.126-753.246 1.126-0.003 0-0.006 0-0.010 0-3.445 0-6.655-1.008-9.35-2.744l0.068 0.041c-2.59-1.633 7.377 7.996-139.375-138.7-3.185-3.185-5.155-7.585-5.155-12.445 0-9.72 7.88-17.6 17.6-17.6 4.86 0 9.26 1.97 12.445 5.155l106.207 106.207v-476.128c0.031-38.675 31.246-70.048 69.857-70.335h641.998c38.832 0.032 70.303 31.503 70.335 70.332v476.188l106.488-106.263c3.185-3.185 7.585-5.155 12.445-5.155 9.72 0 17.6 7.88 17.6 17.6 0 4.86-1.97 9.26-5.155 12.445v0zM366.937 35.055h-87.849c-9.703 0-17.57 7.866-17.57 17.57s7.866 17.57 17.57 17.57h87.905c9.703 0 17.57-7.866 17.57-17.57s-7.866-17.57-17.57-17.57v0zM366.937 122.96h-87.849c-9.703 0-17.57 7.866-17.57 17.57s7.866 17.57 17.57 17.57h87.905c9.703 0 17.57-7.866 17.57-17.57s-7.866-17.57-17.57-17.57v0zM883.386 920.524v-188.987c0-9.703-7.866-17.57-17.57-17.57v0h-94.325c-9.703 0-17.57-7.866-17.57-17.57v0-101.364c0-9.703-7.866-17.57-17.57-17.57v0h-417.732c-9.703 0-17.57 7.866-17.57 17.57v0 101.364c0 9.703-7.866 17.57-17.57 17.57v0h-94.494c-9.703 0-17.57 7.866-17.57 17.57v0 188.987c0 0.009 0 0.020 0 0.031 0 9.089 6.901 16.566 15.749 17.477l0.075 0.006 219.734 21.906c0.525 0.056 1.135 0.088 1.752 0.088 9.703 0 17.57-7.866 17.57-17.57 0-0.169-0.002-0.338-0.007-0.507l0.001 0.025c0-55.826 45.256-101.082 101.082-101.082s101.082 45.256 101.082 101.082v0c-0.004 0.139-0.006 0.302-0.006 0.466 0 9.703 7.866 17.57 17.57 17.57 0.557 0 1.109-0.026 1.653-0.077l-0.070 0.005 219.622-21.962c9.059-0.75 16.132-8.273 16.162-17.454v-0.003z" />
<glyph unicode="&#xe930;" glyph-name="left" d="M585.126 740.583l-292.6-292.6 292.6-292.6c38.456-40.649 37.776-104.618-1.939-144.334s-103.685-40.395-144.231-2.038l-0.103 0.099-365.763 365.763c-40.354 40.414-40.335 105.885 0.053 146.273v0l365.71 365.71c40.649 38.456 104.618 37.776 144.334-1.939s40.395-103.685 2.038-144.231l-0.099-0.103z" />
<glyph unicode="&#xe931;" glyph-name="user" horiz-adv-x="854" d="M420.719 466.712c0.983-0.015 2.144-0.023 3.307-0.023 67.086 0 127.705 27.685 171.057 72.253l0.053 0.055c44.589 43.4 72.25 103.997 72.25 171.054 0 1.162-0.008 2.322-0.025 3.481l0.002-0.175c0.014 0.96 0.022 2.092 0.022 3.227 0 67.093-27.684 127.719-72.252 171.080l-0.054 0.052c-44.626 44.638-106.283 72.248-174.388 72.248s-129.762-27.61-174.388-72.248v0c-44.589-43.409-72.25-104.013-72.25-171.078 0-1.154 0.008-2.306 0.025-3.456l-0.002 0.174c-0.015-0.983-0.023-2.143-0.023-3.305 0-67.058 27.662-127.654 72.197-171.002l0.053-0.052c43.422-44.623 104.057-72.307 171.157-72.307 1.146 0 2.29 0.008 3.432 0.024l-0.173-0.002zM852.261 172.619c-1.855 24.579-4.805 46.743-8.911 68.499l0.595-3.791c-4.515 25.5-10.028 47.385-16.9 68.659l1.008-3.608c-7.585 23.294-16.632 43.358-27.541 62.211l0.825-1.546c-11.353 20.121-24.746 37.415-40.277 52.525l-0.052 0.050c-16.242 15.299-35.484 27.625-56.723 35.98l-1.207 0.418c-21.36 8.48-46.109 13.396-72.007 13.396-0.718 0-1.436-0.004-2.153-0.011l0.109 0.001c-15.356-1.77-29.015-7.932-39.986-17.181l0.113 0.093c-12.019-7.861-26.088-17.089-41.753-26.943-15.53-9.455-33.446-17.55-52.362-23.362l-1.695-0.448c-19.72-6.769-42.441-10.677-66.076-10.677s-46.356 3.908-67.553 11.114l1.478-0.436c-20.588 6.259-38.486 14.353-55.061 24.408l1.062-0.598c-15.551 9.911-29.62 18.968-41.81 26.943-10.856 9.162-24.516 15.326-39.526 17.056l-0.347 0.033c-0.623 0.007-1.358 0.011-2.095 0.011-25.88 0-50.611-4.917-73.311-13.868l1.355 0.471c-22.447-8.771-41.69-21.097-58.019-36.482l0.089 0.083c-15.582-15.16-28.976-32.455-39.736-51.439l-0.593-1.137c-10.077-17.304-19.125-37.368-26.065-58.389l-0.65-2.275c-5.86-17.659-11.372-39.543-15.425-61.936l-0.468-3.114c-3.517-17.977-6.467-40.142-8.19-62.65l-0.127-2.059c-1.367-19.595-2.051-39.873-2.051-60.493-0.106-2.24-0.166-4.866-0.166-7.506 0-47.394 19.39-90.258 50.671-121.094l0.020-0.020c32.206-29.517 75.309-47.605 122.636-47.605 2.645 0 5.277 0.057 7.895 0.168l-0.373-0.013h493.060c2.228-0.098 4.841-0.153 7.467-0.153 47.326 0 90.427 18.087 122.769 47.725l-0.135-0.122c31.203 30.831 50.528 73.623 50.528 120.929 0 2.705-0.063 5.395-0.188 8.069l0.014-0.379c0 20.62-0.684 40.955-2.051 60.493z" />
<glyph unicode="&#xe932;" glyph-name="verified" horiz-adv-x="864" d="M839.319 794.191l-391.974 162.757c-4.534 1.937-9.809 3.063-15.347 3.063s-10.813-1.126-15.609-3.162l0.262 0.099-391.974-162.757c-14.6-6.177-24.66-20.376-24.676-36.926v-197.752c0-0.036 0-0.079 0-0.122 0-278.787 170.309-517.795 412.562-618.661l4.432-1.636c4.451-1.857 9.623-2.936 15.046-2.936s10.595 1.079 15.312 3.033l-0.265-0.097c246.683 102.5 416.991 341.506 416.994 620.289v0 197.75c0 0.026 0 0.056 0 0.086 0 16.591-10.106 30.822-24.499 36.872l-0.263 0.098zM783.992 559.385c0-0.027 0-0.058 0-0.090 0-239.709-142.957-446.029-348.267-538.354l-3.728-1.499c-209.038 93.836-351.995 300.164-351.995 539.881 0 0.022 0 0.043 0 0.065v-0.003 171.14l351.995 146.163 351.995-146.163zM387.805 424.571l171.956 171.956c7.239 7.239 17.24 11.717 28.287 11.717 22.093 0 40.004-17.91 40.004-40.004 0-11.047-4.478-21.048-11.717-28.287l-200.2-200.2c-7.237-7.245-17.238-11.727-28.287-11.727s-21.050 4.482-28.286 11.726v0l-111.772 111.772c-7.239 7.239-11.717 17.24-11.717 28.287 0 22.093 17.91 40.004 40.004 40.004 11.047 0 21.048-4.478 28.287-11.717v0z" />
<glyph unicode="&#xe933;" glyph-name="written" horiz-adv-x="894" d="M447.209 960c-0.011 0-0.024 0-0.037 0-246.987 0-447.209-200.222-447.209-447.209 0-167.992 92.628-314.349 229.596-390.785l2.27-1.163-5.27-184.843 211.242 130.075c3.201 0 6.354-0.493 9.85-0.493 246.987 0 447.209 200.222 447.209 447.209s-200.222 447.209-447.209 447.209v0zM504.144 252.198h-114.56v368.849h114.61zM446.125 666.211c-1.066-0.072-2.311-0.113-3.565-0.113-30.955 0-56.049 25.094-56.049 56.049 0 0.508 0.007 1.013 0.020 1.518l-0.002-0.074c-0.028 0.667-0.045 1.45-0.045 2.236 0 30.955 25.094 56.049 56.049 56.049 1.524 0 3.033-0.061 4.526-0.18l-0.197 0.013c1.012 0.063 2.194 0.099 3.385 0.099 31.961 0 57.871-25.91 57.871-57.871s-25.91-57.871-57.871-57.871c-1.451 0-2.89 0.053-4.315 0.158l0.19-0.011z" />
<glyph unicode="&#xe934;" glyph-name="adidas" horiz-adv-x="1789" d="M1496.836 422.766l-323.025 537.234-344.438-207.443 211.343-351.841 278.607-465.035h469.652zM1040.716 127.443l-281.473 468.299-344.836-207.363 11.383-18.866 260.378-433.353h468.935zM425.871 96.159l-81.194 134.846-344.677-207.045 52.697-87.562h469.652z" />
<glyph unicode="&#xe935;" glyph-name="bag" horiz-adv-x="734" d="M733.774 28.85l-51.957 588.814c-3.748 43.732-40.17 77.809-84.553 77.809-0.157 0-0.313 0-0.469-0.001h0.024c-10.25 0-18.56-8.309-18.56-18.56v0-91.779c0.001-0.064 0.001-0.14 0.001-0.216 0-9.111-6.987-16.59-15.895-17.371l-0.066-0.005c-0.336-0.023-0.727-0.037-1.122-0.037-9.429 0-17.073 7.639-17.081 17.066v198.346c-1.69 96.499-80.314 174.078-177.057 174.078s-175.368-77.579-177.055-173.92l-0.002-0.158v-87.445h-52.722c-0.117 0.001-0.256 0.001-0.394 0.001-44.382 0-80.805-34.077-84.531-77.494l-0.022-0.315-52.008-588.814c-0.207-2.23-0.325-4.824-0.325-7.444 0-47.139 38.19-85.358 85.318-85.406h563.426c47.155 0.018 85.374 38.249 85.374 85.406 0 2.621-0.118 5.214-0.349 7.774l0.024-0.33zM268.913 49.245h-123.749c-9.024 0.509-16.148 7.95-16.148 17.056s7.125 16.547 16.103 17.054l0.045 0.002h123.749c9.024-0.509 16.148-7.95 16.148-17.056s-7.125-16.547-16.103-17.054l-0.045-0.002zM268.913 134.6h-123.749c-9.024 0.509-16.148 7.95-16.148 17.056s7.125 16.547 16.103 17.054l0.045 0.002h123.749c9.024-0.509 16.148-7.95 16.148-17.056s-7.125-16.547-16.103-17.054l-0.045-0.002zM509.986 695.472h-233.17c-10.25 0-18.56-8.309-18.56-18.56v0-91.779c0.003-0.115 0.004-0.251 0.004-0.387 0-9.040-6.878-16.473-15.687-17.351l-0.073-0.006c-0.336-0.023-0.727-0.037-1.122-0.037-9.429 0-17.073 7.639-17.081 17.066v198.499c0 78.933 63.988 142.92 142.92 142.92s142.92-63.988 142.92-142.92v0z" />
<glyph unicode="&#xe936;" glyph-name="building" horiz-adv-x="834" d="M800.085 2.048h-65.138v809.301c0 18.254-14.798 33.052-33.052 33.052v0h-247.694v82.546c0 0 0 0 0 0 0 18.254-14.798 33.052-33.052 33.052-0.060 0-0.12 0-0.18 0h-228.969c-18.254 0-33.052-14.798-33.052-33.052v0-82.546h-26.852c-18.254 0-33.052-14.798-33.052-33.052v-809.301h-64.91c-0.173 0.003-0.377 0.005-0.581 0.005-17.81 0-32.385-13.848-33.547-31.363l-0.005-0.101c-0.023-0.459-0.036-0.996-0.036-1.536 0-18.247 14.786-33.040 33.030-33.052h235.35c9.111 0 16.498 7.386 16.498 16.498v0 189.952h-13.54c-0.173-0.003-0.377-0.005-0.581-0.005-17.81 0-32.385 13.848-33.547 31.363l-0.005 0.101c-0.024 0.476-0.038 1.033-0.038 1.593 0 18.248 14.788 33.042 33.033 33.052h292.239c0.173 0.003 0.377 0.005 0.581 0.005 17.81 0 32.385-13.848 33.547-31.363l0.005-0.101c0.024-0.476 0.038-1.033 0.038-1.593 0-18.248-14.788-33.042-33.033-33.052h-14.451v-189.952c0-9.111 7.386-16.498 16.498-16.498v0h235.349c18.245 0.012 33.031 14.806 33.031 33.052 0 0.54-0.013 1.077-0.039 1.611l0.003-0.075c-1.169 17.615-15.743 31.461-33.552 31.461-0.104 0-0.209 0-0.313-0.001h0.016zM336.498 276.651h-37.148c-0.409-0.018-0.889-0.028-1.371-0.028-18.254 0-33.052 14.798-33.052 33.052s14.798 33.052 33.052 33.052c0.482 0 0.962-0.010 1.439-0.031l-0.068 0.002h37.148c17.655-0.756 31.681-15.252 31.681-33.024s-14.027-32.268-31.613-33.022l-0.068-0.002zM336.498 400.498h-37.148c-0.409-0.018-0.889-0.028-1.371-0.028-18.254 0-33.052 14.798-33.052 33.052s14.798 33.052 33.052 33.052c0.482 0 0.962-0.010 1.439-0.031l-0.068 0.002h37.148c17.655-0.756 31.681-15.252 31.681-33.024s-14.027-32.268-31.613-33.022l-0.068-0.002zM336.498 524.345h-37.148c-0.409-0.018-0.889-0.028-1.371-0.028-18.254 0-33.052 14.798-33.052 33.052s14.798 33.052 33.052 33.052c0.482 0 0.962-0.010 1.439-0.031l-0.068 0.002h37.148c17.655-0.756 31.681-15.252 31.681-33.024s-14.027-32.268-31.613-33.022l-0.068-0.002zM336.498 648.192h-37.148c-0.409-0.018-0.889-0.028-1.371-0.028-18.254 0-33.052 14.798-33.052 33.052s14.798 33.052 33.052 33.052c0.482 0 0.962-0.010 1.439-0.031l-0.068 0.002h37.148c17.655-0.756 31.681-15.252 31.681-33.024s-14.027-32.268-31.613-33.022l-0.068-0.002zM532.651 276.594h-37.148c-17.655 0.756-31.681 15.252-31.681 33.024s14.027 32.268 31.613 33.022l0.068 0.002h37.148c17.655-0.756 31.681-15.252 31.681-33.024s-14.027-32.268-31.613-33.022l-0.068-0.002zM532.651 400.441h-37.148c-17.655 0.756-31.681 15.252-31.681 33.024s14.027 32.268 31.613 33.022l0.068 0.002h37.148c17.655-0.756 31.681-15.252 31.681-33.024s-14.027-32.268-31.613-33.022l-0.068-0.002zM532.651 524.288h-37.148c-17.655 0.756-31.681 15.252-31.681 33.024s14.027 32.268 31.613 33.022l0.068 0.002h37.148c17.655-0.756 31.681-15.252 31.681-33.024s-14.027-32.268-31.613-33.022l-0.068-0.002zM532.651 648.135h-37.148c-17.655 0.756-31.681 15.252-31.681 33.024s14.027 32.268 31.613 33.022l0.068 0.002h37.148c17.655-0.756 31.681-15.252 31.681-33.024s-14.027-32.268-31.613-33.022l-0.068-0.002zM350.948-47.502v173.454c0 9.111 7.386 16.498 16.498 16.498v0h99.044c9.111 0 16.498-7.386 16.498-16.498v0-173.454c0-9.111-7.386-16.498-16.498-16.498h-98.987c-0.017 0-0.037 0-0.057 0-9.111 0-16.498 7.386-16.498 16.498 0 0 0 0 0 0v0z" />
<glyph unicode="&#xe937;" glyph-name="checklist" horiz-adv-x="1160" d="M867.669 3.925h-83.797v43.065h-407.78v-43.065h-83.684c-0.933 0.091-2.017 0.142-3.113 0.142-18.851 0-34.133-15.282-34.133-34.133s15.282-34.133 34.133-34.133c1.096 0 2.18 0.052 3.249 0.153l-0.137-0.010h575.431c0.933-0.091 2.017-0.142 3.113-0.142 18.851 0 34.133 15.282 34.133 34.133s-15.282 34.133-34.133 34.133c-1.096 0-2.18-0.052-3.249-0.153l0.137 0.010zM238.023 386.844c-18.851 0-34.133-15.282-34.133-34.133s15.282-34.133 34.133-34.133c18.851 0 34.133 15.282 34.133 34.133v0c0 18.851-15.282 34.133-34.133 34.133v0zM1125.945 960h-1091.812c-18.851 0-34.133-15.282-34.133-34.133v0-776.932c0-18.851 15.282-34.133 34.133-34.133v0h1091.812c18.851 0 34.133 15.282 34.133 34.133v776.932c0 18.851-15.282 34.133-34.133 34.133v0zM182.044 786.432c6.231 6.549 15.012 10.622 24.744 10.622 8.232 0 15.784-2.914 21.679-7.767l-0.059 0.047 25.202 29.013c6.081 5.685 14.276 9.176 23.286 9.176 18.851 0 34.133-15.282 34.133-34.133 0-7.359-2.329-14.175-6.29-19.749l0.071 0.105-48.469-55.751c-5.961-6.66-14.444-10.955-23.935-11.375l-0.072-0.003h-1.536c-9.085 0.003-17.34 3.555-23.454 9.344l-24.219 22.741c-6.465 6.22-10.481 14.946-10.481 24.61 0 9.067 3.535 17.308 9.302 23.42l-0.016-0.017zM304.924 585.671l-48.469-55.751c-5.961-6.66-14.444-10.955-23.935-11.375l-0.072-0.003h-1.65c-9.085 0.003-17.34 3.555-23.454 9.344l-24.219 22.741c-6.012 6.148-9.722 14.569-9.722 23.857 0 18.851 15.282 34.133 34.133 34.133 7.998 0 15.353-2.751 21.171-7.357l-0.071 0.054 25.202 29.013c6.081 5.685 14.276 9.176 23.286 9.176 18.851 0 34.133-15.282 34.133-34.133 0-7.359-2.329-14.175-6.29-19.749l0.071 0.105zM237.852 250.88c-56.303 0-101.945 45.642-101.945 101.945s45.642 101.945 101.945 101.945c56.303 0 101.945-45.642 101.945-101.945v0c-0.065-56.276-45.668-101.88-101.939-101.945h-0.006zM989.867 318.862h-529.977c-0.933-0.091-2.017-0.142-3.113-0.142-18.851 0-34.133 15.282-34.133 34.133s15.282 34.133 34.133 34.133c1.096 0 2.18-0.052 3.249-0.153l-0.137 0.010h529.977c0.933 0.091 2.017 0.142 3.113 0.142 18.851 0 34.133-15.282 34.133-34.133s-15.282-34.133-34.133-34.133c-1.096 0-2.18 0.052-3.249 0.153l0.137-0.010zM989.867 546.076h-529.977c-0.933-0.091-2.017-0.142-3.113-0.142-18.851 0-34.133 15.282-34.133 34.133s15.282 34.133 34.133 34.133c1.096 0 2.18-0.052 3.249-0.153l-0.137 0.010h529.977c0.933 0.091 2.017 0.142 3.113 0.142 18.851 0 34.133-15.282 34.133-34.133s-15.282-34.133-34.133-34.133c-1.096 0-2.18 0.052-3.249 0.153l0.137-0.010zM989.867 733.81h-529.977c-0.933-0.091-2.017-0.142-3.113-0.142-18.851 0-34.133 15.282-34.133 34.133s15.282 34.133 34.133 34.133c1.096 0 2.18-0.052 3.249-0.153l-0.137 0.010h529.977c0.933 0.091 2.017 0.142 3.113 0.142 18.851 0 34.133-15.282 34.133-34.133s-15.282-34.133-34.133-34.133c-1.096 0-2.18 0.052-3.249 0.153l0.137-0.010z" />
<glyph unicode="&#xe938;" glyph-name="clock" d="M512-64c-282.77 0-512 229.23-512 512s229.23 512 512 512c282.77 0 512-229.23 512-512v0c-0.321-282.641-229.36-511.68-511.97-512h-0.030zM512 896c-247.424 0-448-200.576-448-448s200.576-448 448-448c247.424 0 448 200.576 448 448v0c-0.285 247.309-200.692 447.715-447.973 448h-0.027zM736 170.708c-0.019 0-0.041 0-0.063 0-8.814 0-16.789 3.592-22.542 9.391l-224.002 224.002c-5.794 5.783-9.382 13.775-9.393 22.604v298.648c0 17.673 14.327 32 32 32s32-14.327 32-32v0-285.37l214.607-214.607c5.816-5.795 9.415-13.812 9.415-22.669 0-17.673-14.327-32-32-32-0.007 0-0.015 0-0.022 0h0.001z" />
<glyph unicode="&#xe939;" glyph-name="computer" horiz-adv-x="1068" d="M529.534-64c-6.151 0.006-11.722 2.485-15.773 6.496l0.002-0.002c-4.076 4.037-6.6 9.635-6.6 15.822 0 1.514 0.151 2.992 0.439 4.421l-0.024-0.143 31.48 157.4c0.918 4.5 3.11 8.386 6.18 11.375l346.348 346.348c12.1 12.051 28.79 19.502 47.22 19.502s35.12-7.451 47.222-19.504l62.958-62.958c12.066-12.093 19.527-28.785 19.527-47.22s-7.461-35.127-19.529-47.221l-346.342-346.342c-3.004-3.059-6.885-5.248-11.236-6.159l-0.144-0.025-157.4-31.48c-1.155-0.2-2.484-0.314-3.841-0.314-0.172 0-0.343 0.002-0.514 0.005h0.025zM581.547 104.718l-23.626-118.004 118.004 23.626 341.519 341.519c4.027 4.029 6.518 9.594 6.518 15.74s-2.491 11.711-6.518 15.74v0l-62.96 62.837c-4.029 4.027-9.594 6.518-15.74 6.518s-11.711-2.491-15.74-6.518v0zM686.996-10.255h0.433zM823.616 648.353h-667.823c-86.059 0-155.823 69.765-155.823 155.823s69.765 155.823 155.823 155.823v0h667.947c86.059 0 155.823-69.765 155.823-155.823s-69.765-155.823-155.823-155.823v0zM155.792 915.47c-61.483 0-111.325-49.842-111.325-111.325s49.842-111.325 111.325-111.325h667.947c61.483 0 111.325 49.842 111.325 111.325s-49.842 111.325-111.325 111.325v0zM200.384 737.351c-36.89 0-66.795 29.905-66.795 66.795s29.905 66.795 66.795 66.795c36.89 0 66.795-29.905 66.795-66.795v0c-0.035-36.876-29.919-66.76-66.791-66.795h-0.003zM200.384 826.411c-12.297 0-22.265-9.968-22.265-22.265s9.968-22.265 22.265-22.265c12.297 0 22.265 9.968 22.265 22.265v0c-0.035 12.282-9.982 22.23-22.262 22.265h-0.003zM422.971 737.351c-36.89 0-66.795 29.905-66.795 66.795s29.905 66.795 66.795 66.795c36.89 0 66.795-29.905 66.795-66.795v0c-0.035-36.876-29.919-66.76-66.791-66.795h-0.003zM422.971 826.411c-12.297 0-22.265-9.968-22.265-22.265s9.968-22.265 22.265-22.265c12.297 0 22.265 9.968 22.265 22.265v0c-0.035 12.282-9.982 22.23-22.262 22.265h-0.003zM645.558 381.236h-489.766c-86.059 0-155.823 69.765-155.823 155.823s69.765 155.823 155.823 155.823v0h667.947c0.191 0.001 0.416 0.001 0.642 0.001 54.847 0 103.023-28.557 130.472-71.614l0.372-0.625c1.807-3.147 2.873-6.919 2.873-10.939 0-12.297-9.968-22.265-22.265-22.265-7.498 0-14.13 3.706-18.164 9.386l-0.046 0.069c-19.89 31.121-54.261 51.458-93.381 51.458-0.155 0-0.31 0-0.465-0.001h-667.985c-61.483 0-111.325-49.842-111.325-111.325s49.842-111.325 111.325-111.325h489.704c12.297 0 22.265-9.968 22.265-22.265s-9.968-22.265-22.265-22.265v0zM200.384 470.234c-36.89 0-66.795 29.905-66.795 66.795s29.905 66.795 66.795 66.795c36.89 0 66.795-29.905 66.795-66.795v0c-0.035-36.876-29.919-66.76-66.791-66.795h-0.003zM200.384 559.294c-12.297 0-22.265-9.968-22.265-22.265s9.968-22.265 22.265-22.265c12.297 0 22.265 9.968 22.265 22.265v0c-0.035 12.282-9.982 22.23-22.262 22.265h-0.003zM422.971 470.234c-36.89 0-66.795 29.905-66.795 66.795s29.905 66.795 66.795 66.795c36.89 0 66.795-29.905 66.795-66.795v0c-0.035-36.876-29.919-66.76-66.791-66.795h-0.003zM422.971 559.294c-12.297 0-22.265-9.968-22.265-22.265s9.968-22.265 22.265-22.265c12.297 0 22.265 9.968 22.265 22.265v0c-0.035 12.282-9.982 22.23-22.262 22.265h-0.003zM422.971 114.119h-267.179c-86.059 0-155.823 69.765-155.823 155.823s69.765 155.823 155.823 155.823v0h489.704c12.297 0 22.265-9.968 22.265-22.265s-9.968-22.265-22.265-22.265v0h-489.704c-61.483 0-111.325-49.842-111.325-111.325s49.842-111.325 111.325-111.325h267.179c12.297 0 22.265-9.968 22.265-22.265s-9.968-22.265-22.265-22.265v0zM200.384 203.117c-36.89 0-66.795 29.905-66.795 66.795s29.905 66.795 66.795 66.795c36.89 0 66.795-29.905 66.795-66.795v0c-0.035-36.876-29.919-66.76-66.791-66.795h-0.003zM200.384 292.177c-12.297 0-22.265-9.968-22.265-22.265s9.968-22.265 22.265-22.265c12.297 0 22.265 9.968 22.265 22.265v0c-0.035 12.282-9.982 22.23-22.262 22.265h-0.003zM422.971 203.117c-36.89 0-66.795 29.905-66.795 66.795s29.905 66.795 66.795 66.795c36.89 0 66.795-29.905 66.795-66.795v0c-0.035-36.876-29.919-66.76-66.791-66.795h-0.003zM422.971 292.177c-12.297 0-22.265-9.968-22.265-22.265s9.968-22.265 22.265-22.265c12.297 0 22.265 9.968 22.265 22.265v0c-0.035 12.282-9.982 22.23-22.262 22.265h-0.003z" />
</font>
</defs>
</svg>
