<svg xmlns="http://www.w3.org/2000/svg" width="55.181" height="60.197" viewBox="0 0 55.181 60.197"><defs><style>.a{fill:#1976d2;}.b{fill:#eceff1;}</style></defs><g transform="translate(-1)"><path class="a" d="M34.8,49.66H8.013a6.413,6.413,0,0,1-6.406-6.406V7.156A6.413,6.413,0,0,1,8.013.75H34.8A6.413,6.413,0,0,1,41.2,7.156v36.1a6.414,6.414,0,0,1-6.408,6.4Z" transform="translate(0.915 1.131)"/><path class="b" d="M39.018,50.148H13.058A6.214,6.214,0,0,1,6.85,43.94V11.208A6.214,6.214,0,0,1,13.058,5h25.96a6.214,6.214,0,0,1,6.208,6.208V43.94A6.214,6.214,0,0,1,39.018,50.148Z" transform="translate(8.823 7.541)"/><path d="M30.693,19.262H11.881a1.881,1.881,0,1,1,0-3.762H30.693a1.881,1.881,0,0,1,0,3.762Z" transform="translate(13.574 23.377)"/><path d="M30.693,23.262H11.881a1.881,1.881,0,1,1,0-3.762H30.693a1.881,1.881,0,0,1,0,3.762Z" transform="translate(13.574 29.41)"/><path d="M30.693,15.762H11.881a1.881,1.881,0,1,1,0-3.762H30.693a1.881,1.881,0,0,1,0,3.762Z" transform="translate(13.574 18.099)"/><path d="M30.693,11.762H11.881a1.881,1.881,0,1,1,0-3.762H30.693a1.881,1.881,0,0,1,0,3.762Z" transform="translate(13.574 12.066)"/><path d="M7.9,52.672a6.9,6.9,0,0,1-6.9-6.9V6.9A6.9,6.9,0,0,1,7.9,0H36.742a6.851,6.851,0,0,1,5.952,3.461,1.88,1.88,0,0,1-3.271,1.856,3.04,3.04,0,0,0-2.679-1.555H7.9A3.14,3.14,0,0,0,4.762,6.9V45.775A3.14,3.14,0,0,0,7.9,48.91a1.881,1.881,0,1,1,0,3.762Z" transform="translate(0)"/><path d="M41.742,54.164H12.9a6.9,6.9,0,0,1-6.9-6.9V10.9A6.9,6.9,0,0,1,12.9,4H41.742a6.9,6.9,0,0,1,6.9,6.9V47.267A6.9,6.9,0,0,1,41.742,54.164ZM12.9,7.762A3.14,3.14,0,0,0,9.762,10.9V47.267A3.14,3.14,0,0,0,12.9,50.4H41.742a3.14,3.14,0,0,0,3.135-3.135V10.9a3.14,3.14,0,0,0-3.135-3.135Z" transform="translate(7.541 6.033)"/></g></svg>