<svg xmlns="http://www.w3.org/2000/svg" width="65.752" height="71.304" viewBox="0 0 65.752 71.304"><defs><style>.a{fill:#40596b;stroke-width:2px;}.a,.b,.d{stroke:#000;}.b{fill:#ffd15c;}.b,.d{stroke-width:3px;}.c{fill:#f8b64c;}.d{fill:#fff;}</style></defs><g transform="translate(-18.963 1.5)"><g transform="translate(20.75 42.53)"><path class="a" d="M30,319.7l-9.25,16.034,10.8-.573,4.9,9.636,8.557-14.834A26.856,26.856,0,0,1,30,319.7Z" transform="translate(-20.75 -319.62)"/><path class="a" d="M320.018,319.1a26.865,26.865,0,0,1-14.968,10.316l8.583,14.861,4.9-9.636,10.8.573Z" transform="translate(-267.158 -319.1)"/></g><circle class="b" cx="26.883" cy="26.883" r="26.883" transform="translate(24.895 0)"/><circle class="c" cx="19.486" cy="19.486" r="19.486" transform="translate(32.292 7.397)"/><path class="d" d="M178.071,114.677a1.018,1.018,0,0,0-.56-1.733l-7.69-1.12a1,1,0,0,1-.76-.56l-3.439-6.971a1.016,1.016,0,0,0-1.826,0l-3.425,6.971a1.059,1.059,0,0,1-.76.56l-7.69,1.12a1.018,1.018,0,0,0-.56,1.733l5.558,5.425a1.027,1.027,0,0,1,.293.893l-1.306,7.65a1.015,1.015,0,0,0,1.479,1.066l6.877-3.612a.993.993,0,0,1,.946,0l6.877,3.612a1.021,1.021,0,0,0,1.479-1.066l-1.319-7.65a1,1,0,0,1,.293-.893Z" transform="translate(-112.939 -89.9)"/></g></svg>