<svg xmlns="http://www.w3.org/2000/svg" width="100.845" height="100.649" viewBox="0 0 100.845 100.649"><defs><style>.a{fill:#ff5d5d;}.b{fill:#4dbaf6;}.c{fill:#fff;}</style></defs><g transform="translate(0 -0.499)"><path class="a" d="M21.311,10.5H56.99A11.311,11.311,0,0,1,68.3,21.81V55.667A11.311,11.311,0,0,1,56.99,66.978H38.357v12.07l-12.07-12.07H21.311A11.311,11.311,0,0,1,10,55.667V21.81A11.311,11.311,0,0,1,21.311,10.5Z" transform="translate(-8.03 -8.03)"/><path class="b" d="M286.64,200.5H255.783A9.783,9.783,0,0,0,246,210.282v29.282a9.783,9.783,0,0,0,9.783,9.783h5.252v10.439l10.439-10.439H286.64a9.783,9.783,0,0,0,9.783-9.783V210.281A9.783,9.783,0,0,0,286.64,200.5Z" transform="translate(-197.547 -160.607)"/><g transform="translate(58.704 52.792)"><path class="b" d="M391.923,289.305V284q5.106-.465,5.106-7.394h-5.107a1.02,1.02,0,0,1-1.02-1.02v-8.569a1.02,1.02,0,0,1,1.02-1.02h9.591a1.02,1.02,0,0,1,1.02,1.02v9.225Q402.533,288.708,391.923,289.305Z" transform="translate(-372.613 -265.997)"/><path class="b" d="M299.069,289.305V284q5.106-.465,5.106-7.394h-5.107a1.02,1.02,0,0,1-1.02-1.02v-8.569a1.02,1.02,0,0,1,1.02-1.02h9.591a1.02,1.02,0,0,1,1.02,1.02v9.225Q309.679,288.708,299.069,289.305Z" transform="translate(-298.048 -265.997)"/></g><g transform="translate(48.453 39.892)"><path class="b" d="M286.64,200.5H255.783A9.783,9.783,0,0,0,246,210.282v29.282a9.783,9.783,0,0,0,9.783,9.783h5.252v10.439l10.439-10.439H286.64a9.783,9.783,0,0,0,9.783-9.783V210.281A9.783,9.783,0,0,0,286.64,200.5Z" transform="translate(-246 -200.499)"/></g><g transform="translate(14.589 17.76)"><path class="c" d="M85.859,88.135v5.894q-5.674.516-5.673,8.215h5.674a1.133,1.133,0,0,1,1.133,1.133V112.9a1.133,1.133,0,0,1-1.133,1.133H75.2a1.133,1.133,0,0,1-1.133-1.133V102.65Q74.071,88.8,85.859,88.135Z" transform="translate(-74.071 -88.135)"/><path class="c" d="M188.093,88.135v5.894q-5.674.516-5.673,8.215h5.674a1.133,1.133,0,0,1,1.133,1.133V112.9a1.133,1.133,0,0,1-1.133,1.133H177.438a1.133,1.133,0,0,1-1.133-1.133V102.65Q176.305,88.8,188.093,88.135Z" transform="translate(-156.169 -88.135)"/><path class="c" d="M391.923,289.305V284q5.106-.465,5.106-7.394h-5.107a1.02,1.02,0,0,1-1.02-1.02v-8.569a1.02,1.02,0,0,1,1.02-1.02h9.591a1.02,1.02,0,0,1,1.02,1.02v9.225Q402.533,288.708,391.923,289.305Z" transform="translate(-328.498 -230.965)"/><path class="c" d="M299.069,289.305V284q5.106-.465,5.106-7.394h-5.107a1.02,1.02,0,0,1-1.02-1.02v-8.569a1.02,1.02,0,0,1,1.02-1.02h9.591a1.02,1.02,0,0,1,1.02,1.02v9.225Q309.679,288.708,299.069,289.305Z" transform="translate(-253.933 -230.965)"/></g><path d="M78.007,87.962A1.97,1.97,0,0,0,79.8,86V80.106a1.969,1.969,0,0,0-2.08-1.966c-6.226.35-13.648,3.494-13.648,16.481v10.25a3.106,3.106,0,0,0,3.1,3.1H77.829a3.106,3.106,0,0,0,3.1-3.1V95.349a3.106,3.106,0,0,0-3.1-3.1H74.245C74.784,88.254,76.991,88.054,78.007,87.962Zm-5.852,8.223h4.838v7.849H68.009V94.62c0-9.062,4.03-11.593,7.849-12.308v2.071c-2.638.8-5.673,3.174-5.673,9.831A1.97,1.97,0,0,0,72.155,96.185Z" transform="translate(-51.451 -62.346)"/><path d="M383.715,274.008a1.97,1.97,0,0,0-1.791,1.962v5.3a1.97,1.97,0,0,0,1.97,1.97c.037,0,.074,0,.111,0,5.688-.32,12.469-3.187,12.469-15.03v-9.225a2.993,2.993,0,0,0-2.99-2.99h-9.591a2.993,2.993,0,0,0-2.99,2.99v8.569a2.993,2.993,0,0,0,2.99,2.99h3C386.392,273.764,384.632,273.925,383.715,274.008Zm2.148,3.562c2.4-.778,5.106-2.99,5.106-8.994a1.97,1.97,0,0,0-1.97-1.97h-4.157v-6.67h7.691v8.275c0,7.82-3.38,10.14-6.67,10.835v-1.476Z" transform="translate(-305.879 -205.174)"/><path d="M288.048,258.987v8.57a2.993,2.993,0,0,0,2.99,2.99h3c-.5,3.218-2.262,3.379-3.179,3.462a1.97,1.97,0,0,0-1.791,1.962v5.3a1.97,1.97,0,0,0,1.97,1.97c.037,0,.074,0,.111,0,5.688-.32,12.469-3.187,12.469-15.03v-9.225a2.993,2.993,0,0,0-2.99-2.99h-9.591A2.993,2.993,0,0,0,288.048,258.987Zm3.939.95h7.691v8.275c0,7.82-3.38,10.14-6.67,10.835V277.57c2.4-.779,5.106-2.99,5.106-8.994a1.97,1.97,0,0,0-1.97-1.97h-4.157v-6.67Z" transform="translate(-231.313 -205.174)"/><path d="M222.642,100.267h-6.284a1.97,1.97,0,0,0,0,3.939h6.284a7.822,7.822,0,0,1,7.813,7.813V141.3a7.822,7.822,0,0,1-7.813,7.813H207.476a1.97,1.97,0,0,0-1.393.577l-7.077,7.077v-5.684a1.97,1.97,0,0,0-1.97-1.97h-5.252a7.822,7.822,0,0,1-7.813-7.813V112.019a7.822,7.822,0,0,1,7.813-7.813h7.353a1.97,1.97,0,0,0,0-3.939h-7.353a11.721,11.721,0,0,0-8.617,3.772V95.348a3.106,3.106,0,0,0-3.1-3.1H176.48c.539-3.991,2.746-4.192,3.762-4.284A1.97,1.97,0,0,0,182.033,86V80.105a1.969,1.969,0,0,0-2.08-1.966c-6.226.35-13.648,3.494-13.648,16.481v10.25a3.106,3.106,0,0,0,3.1,3.1h10.656a3.087,3.087,0,0,0,.721-.088,11.689,11.689,0,0,0-.753,4.135V141.3a11.766,11.766,0,0,0,11.752,11.752h3.283v8.469a1.97,1.97,0,0,0,3.362,1.393l9.862-9.862h14.35A11.766,11.766,0,0,0,234.394,141.3V112.019A11.765,11.765,0,0,0,222.642,100.267Zm-43.414,3.766h-8.984V94.62c0-9.062,4.03-11.593,7.849-12.308v2.071c-2.638.8-5.673,3.173-5.673,9.831a1.97,1.97,0,0,0,1.97,1.97h4.838Z" transform="translate(-133.549 -62.345)"/><path d="M370.97,194.438a1.97,1.97,0,1,0-1.393-.577A1.984,1.984,0,0,0,370.97,194.438Z" transform="translate(-296.321 -152.577)"/><path d="M297.97,155.169a1.971,1.971,0,1,0,1.392.577A1.976,1.976,0,0,0,297.97,155.169Z" transform="translate(-237.699 -124.206)"/><path d="M39.2,56.978H30.326a1.97,1.97,0,0,0-1.97,1.97v7.315l-8.708-8.708a1.97,1.97,0,0,0-1.393-.577H13.281a9.352,9.352,0,0,1-9.341-9.341V13.78a9.352,9.352,0,0,1,9.341-9.341H48.96A9.352,9.352,0,0,1,58.3,13.78V25.448a1.97,1.97,0,1,0,3.939,0V13.78A13.3,13.3,0,0,0,48.96.5H13.281A13.3,13.3,0,0,0,0,13.78V47.637A13.3,13.3,0,0,0,13.281,60.917H17.44L28.933,72.411A1.97,1.97,0,0,0,32.3,71.018v-10.1h6.9a1.97,1.97,0,0,0,0-3.939Z"/></g></svg>