<svg xmlns="http://www.w3.org/2000/svg" width="32" height="32" viewBox="0 0 32 32"><defs><style>.a{fill:#000711;}</style></defs><path class="a" d="M72.469,0A12.249,12.249,0,0,0,60.234,12.235V23.529a2.824,2.824,0,1,0,5.647,0V14.117a2.827,2.827,0,0,0-2.824-2.823,2.792,2.792,0,0,0-.9.161,10.342,10.342,0,0,1,20.626-.008,2.773,2.773,0,0,0-.9-.153,2.827,2.827,0,0,0-2.824,2.823v9.411a2.827,2.827,0,0,0,2.824,2.824,2.791,2.791,0,0,0,.941-.173v1.114a.942.942,0,0,1-.941.941H75.119a2.823,2.823,0,1,0,0,1.882h6.762A2.827,2.827,0,0,0,84.7,27.294V12.235A12.249,12.249,0,0,0,72.469,0Zm0,0" transform="translate(-56.469)"/><path class="a" d="M481.883,213.6v10.947a2.819,2.819,0,0,0,1.882-2.65v-5.647A2.819,2.819,0,0,0,481.883,213.6Zm0,0" transform="translate(-451.766 -200.248)"/><path class="a" d="M0,216.248v5.647a2.819,2.819,0,0,0,1.882,2.65V213.6A2.819,2.819,0,0,0,0,216.248Zm0,0" transform="translate(0 -200.248)"/></svg>