<svg xmlns="http://www.w3.org/2000/svg" width="67.492" height="67.492" viewBox="0 0 67.492 67.492"><defs><style>.a{fill:#ffc144;}.a,.c,.d{fill-rule:evenodd;}.b{fill:#fff2a0;}.c{fill:#ffdcd5;}.d{fill:#8481e2;}</style></defs><g transform="translate(0.001)"><g transform="translate(1.318 1.319)"><path class="a" d="M17.384,42.43A25.046,25.046,0,1,1,42.43,67.476,25.046,25.046,0,0,1,17.384,42.43ZM48.576,12.445,45,10.649a5.41,5.41,0,0,0-5.114-.009l-3.214,1.723-3.963-.287a5.428,5.428,0,0,0-4.817,1.958L25.55,16.89,22.1,18.035a5.432,5.432,0,0,0-3.973,3.723l-1.065,3.526-3.095,2.677a5.413,5.413,0,0,0-1.886,4.663l.365,3.66-1.8,3.581a5.41,5.41,0,0,0-.009,5.114l1.723,3.214-.287,3.963a5.428,5.428,0,0,0,1.958,4.817l2.856,2.338,1.145,3.45a5.432,5.432,0,0,0,3.723,3.973L25.284,67.8l2.677,3.095a5.414,5.414,0,0,0,4.663,1.886l3.66-.365,3.581,1.8a5.409,5.409,0,0,0,5.114.009L48.192,72.5l3.963.287a5.428,5.428,0,0,0,4.817-1.958l2.338-2.856,3.45-1.145A5.433,5.433,0,0,0,66.733,63.1L67.8,59.576,70.893,56.9a5.414,5.414,0,0,0,1.886-4.663l-.365-3.66L74.211,45a5.409,5.409,0,0,0,.009-5.114L72.5,36.668l.287-3.963a5.428,5.428,0,0,0-1.958-4.817L67.97,25.55,66.825,22.1A5.433,5.433,0,0,0,63.1,18.127l-3.526-1.065L56.9,13.967a5.414,5.414,0,0,0-4.663-1.886Z" transform="translate(-10.002 -10.002)"/><circle class="b" cx="25" cy="25" r="25" transform="translate(7.682 7.232)"/><g transform="translate(18.551 13.207)"><path class="c" d="M215.23,122.829a4.963,4.963,0,0,1-1.241-5.35,5.523,5.523,0,0,0-.14-5.17c-.923-1.751-4.03-3.166-4.458-1.061-.193.947.123,3.005-1.257,5.65-1.571,3.01-.014,6.8-4.561,6.8v18.158c3.123,0,6.246,1.729,9.369,1.729h7.61c3.883,0,4.929-4.178,3.63-5.423a3.54,3.54,0,0,0,1.5-4.987c2.055-1.013,2.293-4.211.924-4.968a2.688,2.688,0,1,0-.068-5.374Z" transform="translate(-196.608 -110.194)"/><path class="d" d="M157.7,224.848V205.793h-6.965v19.953H157.7Z" transform="translate(-150.736 -193.191)"/></g></g><g transform="translate(-0.001 0)"><path d="M88.564,61.334a1.318,1.318,0,1,0-.618,2.563,23.727,23.727,0,1,1-11.164,0,1.318,1.318,0,1,0-.618-2.563,26.491,26.491,0,0,0-14.42,9.2A26.079,26.079,0,0,0,56,86.963a26.364,26.364,0,1,0,52.728,0,26.079,26.079,0,0,0-5.744-16.429A26.491,26.491,0,0,0,88.564,61.334Z" transform="translate(-48.619 -53.217)"/><path d="M66.7,30.575,65.155,27.7l.257-3.557a6.728,6.728,0,0,0-2.436-5.956l-2.56-2.1-1.007-3.033A6.775,6.775,0,0,0,54.8,8.181l-3.16-.955-2.42-2.8a6.746,6.746,0,0,0-5.8-2.344l-3.28.327L36.917.795a6.725,6.725,0,0,0-6.343,0L27.7,2.337l-3.557-.257a6.728,6.728,0,0,0-5.956,2.436l-2.1,2.56L13.055,8.082a6.775,6.775,0,0,0-4.874,4.611l-.955,3.16-2.8,2.42a6.745,6.745,0,0,0-2.344,5.8l.327,3.28L.794,30.574a6.726,6.726,0,0,0,0,6.343l1.542,2.877-.257,3.557a6.729,6.729,0,0,0,2.436,5.956l2.56,2.1,1.007,3.033a6.775,6.775,0,0,0,4.611,4.874l3.16.955,2.42,2.8a6.745,6.745,0,0,0,5.8,2.344l3.28-.327L30.573,66.7a6.725,6.725,0,0,0,6.343,0l2.877-1.542,3.557.257a6.731,6.731,0,0,0,5.956-2.436l2.1-2.56,3.034-1.007A6.775,6.775,0,0,0,59.31,54.8l.955-3.16,2.8-2.42a6.745,6.745,0,0,0,2.344-5.8l-.327-3.279L66.7,36.918a6.726,6.726,0,0,0,0-6.343Zm-2.333,5.113-.017.032-1.8,3.581a1.319,1.319,0,0,0-.134.722l.365,3.658a4.113,4.113,0,0,1-1.437,3.537L58.251,49.9a1.317,1.317,0,0,0-.4.616l-1.065,3.526a4.132,4.132,0,0,1-3.01,2.82c-.039.009-.078.02-.116.033l-3.45,1.145a1.318,1.318,0,0,0-.6.416l-2.338,2.856a4.1,4.1,0,0,1-3.649,1.483l-.052,0L39.6,62.5a1.318,1.318,0,0,0-.718.153l-3.212,1.721a4.093,4.093,0,0,1-3.87-.008l-.032-.017-3.581-1.8a1.319,1.319,0,0,0-.591-.14q-.065,0-.131.006l-3.658.364a4.112,4.112,0,0,1-3.537-1.437L17.6,58.251a1.317,1.317,0,0,0-.616-.4l-3.526-1.065a4.131,4.131,0,0,1-2.82-3.011q-.014-.059-.033-.116L9.457,50.21a1.317,1.317,0,0,0-.416-.6L6.185,47.267A4.1,4.1,0,0,1,4.7,43.618c0-.017,0-.035,0-.052L4.993,39.6a1.318,1.318,0,0,0-.153-.718L3.119,35.674a4.094,4.094,0,0,1,.007-3.87l.017-.032,1.8-3.581a1.318,1.318,0,0,0,.133-.722l-.364-3.658a4.113,4.113,0,0,1,1.437-3.537L9.24,17.6a1.319,1.319,0,0,0,.4-.616L10.7,13.455a4.132,4.132,0,0,1,3.011-2.82q.059-.014.116-.033l3.45-1.145a1.317,1.317,0,0,0,.6-.416l2.339-2.856A4.1,4.1,0,0,1,23.873,4.7l.052,0,3.963.287a1.323,1.323,0,0,0,.718-.153l3.212-1.721a4.093,4.093,0,0,1,3.87.007l.032.017L39.3,4.94a1.316,1.316,0,0,0,.722.133l3.658-.364a4.112,4.112,0,0,1,3.537,1.437l2.678,3.095a1.318,1.318,0,0,0,.616.4l3.526,1.065a4.132,4.132,0,0,1,2.82,3.011q.014.059.033.116l1.145,3.45a1.318,1.318,0,0,0,.416.6l2.856,2.339a4.1,4.1,0,0,1,1.483,3.649c0,.017,0,.035,0,.052L62.5,27.889a1.319,1.319,0,0,0,.153.718l1.721,3.212a4.093,4.093,0,0,1-.007,3.87Z" transform="translate(0.001 0)"/><path d="M150.209,113.551a1.317,1.317,0,0,0-1.19-.754h-6.965a1.318,1.318,0,0,0-1.318,1.318v19.953a1.318,1.318,0,0,0,1.318,1.318h6.965a1.318,1.318,0,0,0,1.215-.806,24.978,24.978,0,0,1,3.118.725,18.953,18.953,0,0,0,5.036.912H166a5.287,5.287,0,0,0,5.1-3.336,4.731,4.731,0,0,0,.242-2.959,4.756,4.756,0,0,0,1.087-1.455,5.022,5.022,0,0,0,.359-3.56,4.935,4.935,0,0,0,1.3-4.637,3.97,3.97,0,0,0,.758-6.316,4.122,4.122,0,0,0-2.859-1.126H161.258a3.58,3.58,0,0,1-.6-3.526,6.843,6.843,0,0,0-.191-6.29c-.8-1.528-2.969-3.049-4.788-2.789a2.5,2.5,0,0,0-2.128,2.079,7.7,7.7,0,0,0-.109,1.122,9.316,9.316,0,0,1-1.025,4.181,11.109,11.109,0,0,0-.99,3.421c-.256,1.515-.381,2.244-1.212,2.524Zm-6.837,1.882H147.7V132.75h-4.329Zm10.649-3.966a8.919,8.919,0,0,1,.728-2.641,11.948,11.948,0,0,0,1.32-5.265,6.635,6.635,0,0,1,.06-.732v0a3.09,3.09,0,0,1,2,1.416,4.209,4.209,0,0,1,.089,4.05,6.083,6.083,0,0,0,.038,4.552,1.317,1.317,0,0,0,.183,2.622h13.544a1.5,1.5,0,0,1,1.042.4,1.343,1.343,0,0,1,.413,1,1.419,1.419,0,0,1-1.415,1.335l-3.393.074a1.318,1.318,0,0,0,.028,2.636h.029l2.826-.061a2.144,2.144,0,0,1-.054,1.33,1.765,1.765,0,0,1-1.724,1.3,1.318,1.318,0,0,0,0,2.636,4.663,4.663,0,0,0,.588-.037,2.58,2.58,0,0,1-.265,1.228,1.763,1.763,0,0,1-1.625,1.084,1.318,1.318,0,1,0,0,2.636q.2,0,.4-.018a2.487,2.487,0,0,1-.2.915A2.691,2.691,0,0,1,166,133.582h-7.61a16.759,16.759,0,0,1-4.333-.817,25.324,25.324,0,0,0-3.718-.83V116.219C153.305,115.681,153.715,113.279,154.021,111.467Z" transform="translate(-122.184 -86.987)"/><path d="M247.318,58.637a1.318,1.318,0,1,0,0-2.636h0a1.318,1.318,0,0,0,0,2.636Z" transform="translate(-213.571 -48.619)"/></g></g></svg>