<svg xmlns="http://www.w3.org/2000/svg" width="154.328" height="96.903" viewBox="0 0 154.328 96.903">
  <g id="Group_23145" data-name="Group 23145" transform="translate(-551.107 -359.097)">
    <path id="Path_32853" data-name="Path 32853" d="M58.508,256.1v-2.085H77.836c0,5.407,3.073,9.789,6.864,9.789s6.864-4.383,6.864-9.789H212.836V256.1c-1.453,0-2.631,1.681-2.631,3.753s1.178,3.752,2.631,3.752v1.925c-1.453,0-2.631,1.68-2.631,3.753s1.178,3.752,2.631,3.752v1.925c-1.453,0-2.631,1.68-2.631,3.752s1.178,3.753,2.631,3.753v1.925c-1.453,0-2.631,1.68-2.631,3.753s1.178,3.752,2.631,3.752v1.925c-1.453,0-2.631,1.68-2.631,3.752s1.178,3.753,2.631,3.753v1.925c-1.453,0-2.631,1.68-2.631,3.753s1.178,3.753,2.631,3.753v1.925c-1.453,0-2.631,1.68-2.631,3.753s1.178,3.753,2.631,3.753v1.924c-1.453,0-2.631,1.68-2.631,3.753s1.178,3.753,2.631,3.753v1.925c-1.453,0-2.631,1.68-2.631,3.753s1.178,3.753,2.631,3.753v1.924c-1.453,0-2.631,1.681-2.631,3.754s1.178,3.752,2.631,3.752v2.085H91.565c0-5.407-3.073-9.79-6.864-9.79s-6.864,4.383-6.864,9.79H58.508v-2.085c1.453,0,2.632-1.681,2.632-3.752s-1.178-3.754-2.632-3.754v-1.924c1.453,0,2.632-1.68,2.632-3.753s-1.178-3.753-2.632-3.753v-1.925c1.453,0,2.632-1.68,2.632-3.753s-1.178-3.753-2.632-3.753v-1.924c1.453,0,2.632-1.681,2.632-3.753s-1.178-3.753-2.632-3.753v-1.925c1.453,0,2.632-1.68,2.632-3.753s-1.178-3.753-2.632-3.753v-1.925c1.453,0,2.632-1.681,2.632-3.753s-1.178-3.752-2.632-3.752V291.9c1.453,0,2.632-1.68,2.632-3.752s-1.178-3.753-2.632-3.753v-1.925c1.453,0,2.632-1.681,2.632-3.753s-1.178-3.752-2.632-3.752v-1.925c1.453,0,2.632-1.68,2.632-3.752s-1.178-3.753-2.632-3.753v-1.925c1.453,0,2.632-1.68,2.632-3.752S59.961,256.1,58.508,256.1Z" transform="translate(492.6 105.082)" fill="#bccbd9"/>
    <g id="Group_21504" data-name="Group 21504" transform="translate(553 428.173)" opacity="0.15">
      <g id="Path_28315" data-name="Path 28315" transform="translate(61.642 5.02)">
        <path id="Path_28325" data-name="Path 28325" d="M581.708,678.6c-1.906,0-3.908-2.355-4.154-2.653l.771-.636c.582.7,2.516,2.628,3.726,2.238.813-.261,1.344-1.651,1.5-3.913l1,.068c-.191,2.816-.908,4.385-2.19,4.8A2.113,2.113,0,0,1,581.708,678.6Z" transform="translate(-577.554 -673.637)" fill="#fff"/>
      </g>
      <g id="Path_28311" data-name="Path 28311" transform="translate(33.153 7.002)">
        <path id="Path_28326" data-name="Path 28326" d="M492.046,695.815l.728-1.762a21.937,21.937,0,0,0,1.539-10.611c-.158-.3-.3-.522-.429-.724a1.5,1.5,0,0,1-.211-1.817,2.67,2.67,0,0,1,1.04-1.088l.393-.228.264.37a13.674,13.674,0,0,0,1.483,1.743c.773.705,1.629,4.709,1.606,6a3.426,3.426,0,0,0,2.169,2.949l.331.1.028.343c.1,1.2.148,2.115.148,2.125l.028.527H499.39l-.6-.621-.362.058c-1.134.181-3.789.6-4.885,1.466Zm2.817-14.867a1.724,1.724,0,0,0-.313.432c-.156.267-.158.272.178.8.143.225.321.505.515.879l.044.084.01.094a22.945,22.945,0,0,1-1.12,9.928,20.242,20.242,0,0,1,4.095-.984c.268-.042.471-.074.58-.1l.276-.064.687.713h.29c-.02-.315-.05-.75-.089-1.251a4.484,4.484,0,0,1-2.556-3.807,15,15,0,0,0-1.274-5.234l-.027-.024A14.686,14.686,0,0,1,494.863,680.948Z" transform="translate(-492.046 -679.585)" fill="#fff"/>
      </g>
      <g id="Path_28312" data-name="Path 28312" transform="translate(38.659 9.933)">
        <path id="Path_28327" data-name="Path 28327" d="M512.288,695.951a5.437,5.437,0,0,1-3.718-1.851l.761-.648c.016.018,1.579,1.812,3.479,1.449,1.833-.348,3.519-2.6,4.875-6.519l.944.326c-1.5,4.342-3.4,6.756-5.642,7.176A3.806,3.806,0,0,1,512.288,695.951Z" transform="translate(-508.57 -688.383)" fill="#fff"/>
      </g>
      <g id="Path_28313" data-name="Path 28313" transform="translate(41.098 2.049)">
        <path id="Path_28328" data-name="Path 28328" d="M528.7,681.257c-1.39-.564-3.1-1.368-3.346-2a2.224,2.224,0,0,1,.174-1.393,7.074,7.074,0,0,0,.413-3.008c-.083.048-.171.1-.247.146-.979.587-3.016,1.808-4.755-.027a18.425,18.425,0,0,1-1.7-2.086c-.62-.861-.758-1.024-1.422-1.024-.986,0-1.474-.131-1.74-.469a1.1,1.1,0,0,1-.12-.982c.074-.312.363-.557.936-.794.868-.36,2.923-.851,3.739-.351a5.053,5.053,0,0,1,1.087,1.206c.568.754,1.518,2.019,2.1,1.817,1.192-.4,1.58-.987,3.713-4.43,2.57-4.148,5.253-3.138,6.014-2.731,1.274.684,3.7,2.664,3.75,5.267a13,13,0,0,1-.216,2.536c-.127.768-.141.99,0,1.091a8.929,8.929,0,0,0,.937.522c.921.472,1.715.879,1.822,1.5a33.45,33.45,0,0,1,.007,3.442l-1-.035c.036-1.032.071-2.791.011-3.212a5.429,5.429,0,0,0-1.3-.8,9.522,9.522,0,0,1-1.055-.593c-.68-.476-.557-1.216-.416-2.073a11.993,11.993,0,0,0,.2-2.353c-.044-2.22-2.341-3.934-3.223-4.406-.726-.39-2.637-.939-4.691,2.376-2.163,3.49-2.676,4.319-4.242,4.85-1.267.427-2.35-1.007-3.22-2.161a5.564,5.564,0,0,0-.811-.955,5.71,5.71,0,0,0-3.2.605c0,.021-.008.039-.01.054a3.2,3.2,0,0,0,.917.084c1.2,0,1.609.573,2.233,1.439a17.335,17.335,0,0,0,1.616,1.983c1.1,1.157,2.288.593,3.515-.143.539-.323.9-.537,1.268-.4a.638.638,0,0,1,.386.408l.016.058a7.624,7.624,0,0,1-.366,3.946,4.538,4.538,0,0,0-.19.731,12.312,12.312,0,0,0,2.783,1.441Zm-2.432-2.4,12.6-2.611Zm-21.992-5.49Z" transform="translate(-515.891 -664.721)" fill="#fff"/>
      </g>
      <g id="Path_28318" data-name="Path 28318" transform="translate(83.234 2.742)">
        <path id="Path_28329" data-name="Path 28329" d="M649.994,672.5c-2.848,0-7.124-4.467-7.634-5.011l.729-.684c1.909,2.035,5.564,5.1,7.244,4.656.169-.044.683-.18.941-1.246l.972.235a2.4,2.4,0,0,1-1.657,1.978A2.334,2.334,0,0,1,649.994,672.5Z" transform="translate(-642.36 -666.8)" fill="#fff"/>
      </g>
      <g id="Path_28314" data-name="Path 28314" transform="translate(52.125 10.727)">
        <path id="Path_28330" data-name="Path 28330" d="M549.976,698.606l-.987-.154a29.91,29.91,0,0,0,.441-5.379l-.047-.338.333-.187c1.359-.761,5.495-3.076,7.142-.821l.1.14-.007.173c-.073,1.95-.2,3.635-.2,3.651l-.01.128-.069.108a16.587,16.587,0,0,1-1.725,2.326l-.63-.776a16.528,16.528,0,0,0,1.446-1.986c.028-.41.118-1.754.179-3.3-.792-.839-2.639-.473-5.5,1.091A36.739,36.739,0,0,1,549.976,698.606Z" transform="translate(-548.989 -690.766)" fill="#fff"/>
      </g>
      <g id="Path_28316" data-name="Path 28316" transform="translate(64.555 0)">
        <path id="Path_28331" data-name="Path 28331" d="M594.853,674.431l-1.534-3.069.259-.255a22.268,22.268,0,0,0,2.144-2.319c.069-.181.289-.752.084-1.047-.149-.214-.555-.326-1.151-.318l-.176,0c-2.322.032-4.515.068-5.254-4.239-.09-.523-.466-.757-1.076-1.079a2.36,2.36,0,0,1-1.1-.9,7.868,7.868,0,0,1-.592-1.463l-.163-.56.578-.076c3.191-.416,3.378-.291,3.543-.181a11.726,11.726,0,0,1,2.117,4,1.145,1.145,0,0,0,.855.842c1,.174,2.719-.962,4.272-2.816,1.391-1.66,2.73-2.438,4.087-2.377,1.442.064,2.811,1.057,4.187,3.034,2.409,3.461,1.8,5.924,1.434,6.817l1.465,1.494v3.046h-1v-2.638l-1.7-1.735.21-.334c.055-.091,1.366-2.351-1.228-6.079-1.17-1.68-2.317-2.557-3.411-2.605-1.028-.044-2.1.615-3.276,2.02-1.433,1.711-3.553,3.438-5.206,3.16a2.092,2.092,0,0,1-1.623-1.474,15.3,15.3,0,0,0-1.7-3.462H589.9c-.363,0-1.33.094-2.287.209a6.9,6.9,0,0,0,.328.72,1.8,1.8,0,0,0,.678.478,2.54,2.54,0,0,1,1.594,1.794c.594,3.464,1.973,3.443,4.254,3.409l.177,0a2.233,2.233,0,0,1,1.985.746,2.175,2.175,0,0,1,.026,1.984,14.377,14.377,0,0,1-2.114,2.409l1.21,2.421Z" transform="translate(-586.296 -658.57)" fill="#fff"/>
      </g>
      <g id="Path_28317" data-name="Path 28317" transform="translate(75.397 8.365)">
        <path id="Path_28332" data-name="Path 28332" d="M619.833,690.676l-1-.08.451-5.679.31-.106a20.349,20.349,0,0,1,4.72-1.131,1.788,1.788,0,0,1,1.53.835c.567,1.032.065,2.925-1.578,5.957l-.879-.476c1.87-3.45,1.793-4.614,1.581-5-.076-.138-.221-.284-.724-.319a17.774,17.774,0,0,0-4.016.975Z" transform="translate(-618.837 -683.675)" fill="#fff"/>
      </g>
      <g id="Path_28321" data-name="Path 28321" transform="translate(109.561 4.417)">
        <path id="Path_28333" data-name="Path 28333" d="M727.433,678.677c-2.314,0-5.432-5.262-6.055-6.356l.869-.495c1.464,2.57,4.071,6.082,5.271,5.843.418-.083.745-.829.9-2.048l.992.125c-.224,1.771-.778,2.721-1.7,2.9A1.472,1.472,0,0,1,727.433,678.677Z" transform="translate(-721.378 -671.826)" fill="#fff"/>
      </g>
      <g id="Path_28319" data-name="Path 28319" transform="translate(89.024 0.061)">
        <path id="Path_28334" data-name="Path 28334" d="M683.522,673.859l-.179-2.475c-.706-.511-2.482-1.946-2.16-3.235a3.7,3.7,0,0,0-.657-2.185,3.839,3.839,0,0,1-.355-.774,3.906,3.906,0,0,1,0-1.22c.016-.172.041-.417.038-.543-.211-.18-.983-.723-1.668-1.182a11.184,11.184,0,0,0-2.052-.139l-.456.012-.054-.453a1.259,1.259,0,0,0-.767-1.146c-.424-.159-2.066-.446-5.427,2.571-1.2,1.078-2.314,1.522-3.31,1.319-1.548-.315-2.376-2.085-2.924-3.257a5.13,5.13,0,0,0-.489-.916,3.749,3.749,0,0,0-2.265-.476,7.3,7.3,0,0,0,.12.728c.532.116,1.123.618,2.289,3.06a3.532,3.532,0,0,0,4.3,2.114l1.418-.342-.91,1.139a2.726,2.726,0,0,0,.243.929,2.328,2.328,0,0,1,.225.921c-.011.139-.044.561-3.1,4.919l-.819-.573c1.3-1.862,2.718-3.989,2.913-4.448-.019-.092-.1-.316-.16-.469a4.759,4.759,0,0,1-.289-.983,4.441,4.441,0,0,1-4.726-2.778c-1.072-2.246-1.514-2.511-1.655-2.521l-.079-.007c-.576-.071-.665-.777-.769-1.594-.017-.135-.029-.247-.043-.3a.546.546,0,0,1,.26-.616,4.468,4.468,0,0,1,3.736.58,4.336,4.336,0,0,1,.7,1.213c.491,1.049,1.163,2.486,2.219,2.7a3.062,3.062,0,0,0,2.443-1.083c2.627-2.359,4.918-3.338,6.447-2.762a2.139,2.139,0,0,1,1.322,1.52,11.928,11.928,0,0,1,1.927.174l.1.018.088.059a12.748,12.748,0,0,1,2.057,1.529,1.788,1.788,0,0,1,.1,1.184,3.69,3.69,0,0,0-.024.881,4.321,4.321,0,0,0,.266.545,4.366,4.366,0,0,1,.746,2.9c-.137.547,1.046,1.691,1.952,2.307l.2.136.213,2.952Zm-3.32-10.491Z" transform="translate(-659.738 -658.752)" fill="#fff"/>
      </g>
      <g id="Path_28320" data-name="Path 28320" transform="translate(98.756 7.623)">
        <path id="Path_28335" data-name="Path 28335" d="M697.384,688.774l-.707-.706c.008-.008.684-.684,1.159-1.2-.436-.726-1.082-2.079-1.978-3.969a12.321,12.321,0,0,1-4.994,1.031l1.491,2.207V688.1h-1V686.44l-2.408-3.566,1,.049c.038,0,3.882.174,5.854-1.148l.481-.323.341.718a45.093,45.093,0,0,0,2.245,4.447l.237.32-.259.3C698.383,687.774,697.424,688.733,697.384,688.774Z" transform="translate(-688.946 -681.451)" fill="#fff"/>
      </g>
      <g id="Path_28322" data-name="Path 28322" transform="translate(111.485 0.777)">
        <path id="Path_28336" data-name="Path 28336" d="M751.075,679.532l-.806-.592,3.443-4.684c-.8-1.178-1.651-2.391-1.805-2.55-.307-.244-.3-.682.041-1.291-.443-.672-1.65-2.53-2.9-4.687-1.512-2.614-3.337-3.877-5.546-3.827-1.316.023-2.357,1.107-3.562,2.363a16.55,16.55,0,0,1-2.664,2.394,2.753,2.753,0,0,1-2.287.434c-1.7-.43-3-2.368-3.555-3.334-.232.04-.541.08-.956.134a18.63,18.63,0,0,0-2.129.356,6.928,6.928,0,0,0,.843.356c.306.116.652.247,1.042.417l.163.071.081.158a5.606,5.606,0,0,0,6.225,2.986c.112-.014.2-.025.26-.029l.3-.02.159.253a3.249,3.249,0,0,0,1.1.81,7.665,7.665,0,0,1,1.18.772l.317.266-.2.361c-.265.471-.918,2.117-1.258,2.995l2.8,2.956-.726.687-3.231-3.413.112-.293c.036-.1.777-2.038,1.236-3.027-.228-.155-.477-.3-.72-.434a4.9,4.9,0,0,1-1.25-.885c-3.285.4-5.673-.733-7.1-3.366-.3-.129-.584-.235-.835-.33-.85-.322-1.522-.576-1.672-1.271a.651.651,0,0,1,.109-.517c.32-.452,1.226-.613,3.075-.851a10.92,10.92,0,0,0,1.159-.181l.413-.154.21.388c.667,1.269,1.88,2.861,3.1,3.17a1.769,1.769,0,0,0,1.485-.295,15.754,15.754,0,0,0,2.5-2.256c1.3-1.357,2.534-2.639,4.266-2.67,2.6-.044,4.719,1.37,6.429,4.327,1.544,2.672,3.025,4.875,3.039,4.9l.187.277-.185.279a2.7,2.7,0,0,0-.237.442c.218.268.731.963,2.018,2.865l.2.292Z" transform="translate(-727.153 -660.901)" fill="#fff"/>
      </g>
      <g id="Path_28323" data-name="Path 28323" transform="translate(123.449 8.527)">
        <path id="Path_28337" data-name="Path 28337" d="M770.3,693.923l-.726-.686,3.182-3.368-1.009-4.513c-4.118.9-6.458,1.2-6.964.907a2.378,2.378,0,0,0-1.43.048l-.29-.957a3.347,3.347,0,0,1,2.194.028,39.477,39.477,0,0,0,6.761-1.109l.487-.108,1.343,6.005ZM765.29,685.4h0Z" transform="translate(-763.062 -684.164)" fill="#fff"/>
      </g>
      <g id="Path_28324" data-name="Path 28324" transform="translate(125.191 10.198)">
        <path id="Path_28338" data-name="Path 28338" d="M769.2,696.064c-.019-.267-.555-4.182-.91-6.748l.99-.137c.42,3.026.919,6.673.919,6.863h-.5Z" transform="translate(-768.291 -689.179)" fill="#fff"/>
      </g>
      <g id="Path_27925" data-name="Path 27925" transform="translate(0 13.965)">
        <path id="Path_28339" data-name="Path 28339" d="M543.264,709.209c-54.619-15.83-78.36-7.683-150.725,5.137C453.424,705.638,497,703.724,543.264,709.209Z" transform="translate(-392.539 -700.484)" fill="#fff"/>
      </g>
    </g>
  </g>
</svg>
