<svg xmlns="http://www.w3.org/2000/svg" width="39.028" height="23.165" viewBox="0 0 39.028 23.165"><defs><style>.a{fill:#e52836;}.b{fill:#fff;}.c{fill:#f7142f;}</style></defs><g transform="translate(0 -100.8)"><path class="a" d="M39.028,112.382A11.592,11.592,0,0,0,27.445,100.8a11.473,11.473,0,0,0-7.3,2.581,11.778,11.778,0,0,1,3.273,5.351h-.944a11.929,11.929,0,0,0-3.022-4.784,11.929,11.929,0,0,0-3.022,4.784h-.944a12.342,12.342,0,0,1,3.273-5.351,11.3,11.3,0,0,0-7.239-2.581,11.582,11.582,0,1,0,7.3,20.584,12.342,12.342,0,0,1-3.273-5.351h.944a11.929,11.929,0,0,0,3.022,4.784,11.288,11.288,0,0,0,3.022-4.784h.944a12.342,12.342,0,0,1-3.273,5.351,11.546,11.546,0,0,0,18.821-9"/><g transform="translate(1.007 109.671)"><path class="b" d="M388,232.28l.818-4.28h1.007l.126.441a1.471,1.471,0,0,1,1.133-.441l-.315,1.133c-.315,0-.818-.063-1.2,1.2l-.378,1.951H388" transform="translate(-358.477 -226.863)"/><path class="b" d="M181.373,214.4h1.133l-.252,1.133h.629l-.189.881h-.567l-.315,1.7c-.063.315,0,.629.629.5l-.126.944a1.405,1.405,0,0,1-.881.189,1,1,0,0,1-.944-1.322l.881-4.029" transform="translate(-167.273 -214.333)"/><path class="b" d="M212.309,230.392c.126-.692.441-2.392-1.574-2.392a2.179,2.179,0,0,0-2.14,2.14,1.855,1.855,0,0,0,1.951,2.14,5.2,5.2,0,0,0,1.511-.189l.189-.881a6.181,6.181,0,0,1-1.322.126c-.441,0-1.2,0-1.07-.944h2.455" transform="translate(-193.173 -226.863)"/><path class="b" d="M140.747,228.27l.252-.881a3.532,3.532,0,0,0-1.133-.189c-.189,0-1.574,0-1.763,1.007-.189.818.126,1.133.378,1.259.441.189.692.378.944.5a.327.327,0,0,1-.126.629,4.732,4.732,0,0,1-1.511-.126l-.189.881a5.646,5.646,0,0,0,1.385.126c.315,0,1.7.063,1.888-1.2a1.017,1.017,0,0,0-.378-1.07,5.205,5.205,0,0,0-.818-.441c-.252-.126-.441-.5,0-.629.189.063.755.063,1.07.126" transform="translate(-127.78 -226.126)"/><path class="b" d="M18.214,221.962l1.007-5.162H17.269l-1.385,3.147-.252-3.147H13.807L12.8,221.962h1.133l.755-3.714L15,221.962h1.07l1.637-3.651-.692,3.651h1.2" transform="translate(-12.8 -216.544)"/><path class="b" d="M89.393,228.379l-.189.944c.315,0,1.07-.126,1.448-.126s.881-.063.692.567c-.315,0-2.392-.315-2.707,1.511a1.162,1.162,0,0,0,1.2,1.322,1.406,1.406,0,0,0,.944-.252l.126.252h1.07l.441-2.329c.126-.567.315-1.951-1.637-1.951a3.6,3.6,0,0,0-1.385.063" transform="translate(-82.657 -227.116)"/><path class="b" d="M295.479,215a1.405,1.405,0,0,0-.881-.189,1.556,1.556,0,0,0-1.385,1.385c-.189,1.259.629,1.825,1.825,1.448l.315,1.07a2.868,2.868,0,0,1-1.385.252c-1.2,0-2.518-1.07-1.951-3.273a2.784,2.784,0,0,1,2.644-2.14,1.936,1.936,0,0,1,1.574.692l-.755.755" transform="translate(-269.922 -213.546)"/><path class="b" d="M425.913,215.237c-.252-.189-.378-.5-.881-.5-.629,0-1.637-.126-2.2,1.826-.378,1.322.378,2.455,1.2,2.455a2.375,2.375,0,0,0,1.007-.315l.126.315h1.259l1.007-5.414h-1.2l-.315,1.637" transform="translate(-390.473 -213.596)"/><path class="b" d="M338.993,228.379l-.189.944c.315,0,1.07-.126,1.448-.126s.818-.063.692.567c-.315,0-2.392-.315-2.707,1.511a1.162,1.162,0,0,0,1.2,1.322,1.406,1.406,0,0,0,.944-.252l.126.252h1.07l.441-2.329c.126-.567.315-1.951-1.637-1.951a3.59,3.59,0,0,0-1.385.063" transform="translate(-312.617 -227.116)"/></g><g transform="translate(8.156 111.627)"><path class="a" d="M224.8,239.155h1.448c.063-.441-.063-.755-.5-.755a.893.893,0,0,0-.944.755" transform="translate(-215.267 -238.4)"/><path class="a" d="M105,258.032a1.522,1.522,0,0,0-1.007.126c-.378.252-.5.692-.063.818a.856.856,0,0,0,1.007-.5l.063-.441" transform="translate(-103.649 -256.458)"/><path class="a" d="M440.123,241.65a1.488,1.488,0,0,0-.063-1.07c-.378-.5-1.2-.126-1.448.818-.189.629.189,1.07.567,1.07.441,0,.692-.315.944-.818" transform="translate(-412.209 -240.202)"/><path class="a" d="M355.4,258.032a1.522,1.522,0,0,0-1.007.126c-.378.252-.5.692-.063.818a.825.825,0,0,0,1.007-.5l.063-.441" transform="translate(-334.346 -256.458)"/></g><path class="b" d="M256,233.018l.818-4.218h1.007l.126.441a1.471,1.471,0,0,1,1.133-.441l-.315,1.133c-.252,0-.818-.063-1.2,1.2l-.378,1.951H256" transform="translate(-235.857 -117.928)"/><g transform="translate(0.629 100.8)"><path class="c" d="M18.953,100.8A11.554,11.554,0,0,0,8,108.731H22.982a12.342,12.342,0,0,1,3.273-5.351A12.123,12.123,0,0,0,18.953,100.8Z" transform="translate(-8 -100.8)"/><path class="c" d="M212.622,141.6a11.514,11.514,0,0,0-3.022,4.784h6.043A11.929,11.929,0,0,0,212.622,141.6Z" transform="translate(-193.737 -138.39)"/><path class="c" d="M263.3,100.8a11.473,11.473,0,0,0-7.3,2.581,12.341,12.341,0,0,1,3.273,5.351h14.982A11.435,11.435,0,0,0,263.3,100.8Z" transform="translate(-236.486 -100.8)"/></g></g></svg>