<svg xmlns="http://www.w3.org/2000/svg" width="55.357" height="19.356" viewBox="0 0 55.357 19.356"><defs><style>.a{fill:#03a9f4;}.b{fill:#283593;}</style></defs><g transform="translate(18.536 -16.676)"><path class="a" d="M172.739,75.315a2.455,2.455,0,0,0-2.512-.536.691.691,0,0,0-.465.553l-.194,1.33a4.1,4.1,0,0,1-4.043,3.509H162.76a.691.691,0,0,0-.671.524l-2.074,8.3a.691.691,0,0,0,.671.859h3.456a.691.691,0,0,0,.671-.524l1.251-5.006h2.7A4.484,4.484,0,0,0,173.13,80.9l.51-2.045A3.636,3.636,0,0,0,172.739,75.315Z" transform="translate(-175.075 -53.817)"/><g transform="translate(6.403 21.08)"><path class="b" d="M.691,337.59a.691.691,0,0,1-.671-.859l.691-2.751v-.029L1.4,331.2a.691.691,0,0,1,.671-.524H3.832a1.728,1.728,0,0,1,1.677,2.147l-.173.691a1.728,1.728,0,0,1-1.677,1.309H1.923l-.56,2.241A.691.691,0,0,1,.691,337.59Zm1.577-4.148H3.659a.346.346,0,0,0,.335-.263l.173-.691a.344.344,0,0,0-.248-.419.339.339,0,0,0-.087-.011H2.614Z" transform="translate(0 -330.677)"/><path class="b" d="M82.87,377.469h-.984a1.916,1.916,0,0,1-1.86-2.381h0l.091-.368a1.844,1.844,0,0,1,1.8-1.4H82.9a1.916,1.916,0,0,1,1.855,2.382l-.091.368A1.844,1.844,0,0,1,82.87,377.469Zm-1.5-2.045a.534.534,0,0,0,.389.647.539.539,0,0,0,.128.016h.984a.463.463,0,0,0,.451-.351l.091-.368a.534.534,0,0,0-.389-.647.539.539,0,0,0-.128-.016h-.984a.463.463,0,0,0-.451.351Z" transform="translate(-74.786 -370.556)"/><path class="b" d="M128.691,377.48a.691.691,0,0,1-.671-.859l.691-2.765a.692.692,0,1,1,1.342.335l-.691,2.765A.691.691,0,0,1,128.691,377.48Z" transform="translate(-119.705 -370.567)"/></g><g transform="translate(22.994 21.08)"><path class="a" d="M256.691,337.589a.691.691,0,0,1-.671-.859l.691-2.751v-.029l.691-2.75a.691.691,0,0,1,.671-.524h1.759a1.728,1.728,0,0,1,1.677,2.147l-.173.691a1.728,1.728,0,0,1-1.677,1.309h-1.737l-.56,2.241A.691.691,0,0,1,256.691,337.589Zm1.578-4.148h1.392a.346.346,0,0,0,.335-.263l.173-.691a.344.344,0,0,0-.248-.419.339.339,0,0,0-.087-.011h-1.219Z" transform="translate(-256 -330.676)"/><path class="a" d="M338.87,377.469h-.984a1.916,1.916,0,0,1-1.86-2.381h0l.091-.368a1.844,1.844,0,0,1,1.8-1.4h.984a1.916,1.916,0,0,1,1.86,2.381l-.091.368A1.844,1.844,0,0,1,338.87,377.469Zm-1.5-2.045a.534.534,0,0,0,.517.662h.984a.463.463,0,0,0,.451-.351l.091-.368a.534.534,0,0,0-.389-.647.539.539,0,0,0-.128-.016h-.984a.463.463,0,0,0-.451.351Z" transform="translate(-330.786 -370.556)"/><path class="a" d="M384.691,377.48a.691.691,0,0,1-.671-.859l.691-2.765a.692.692,0,1,1,1.343.335h0l-.691,2.765A.691.691,0,0,1,384.691,377.48Z" transform="translate(-375.705 -370.567)"/></g><g transform="translate(17.463 23.845)"><path class="b" d="M172.735,376.787a.691.691,0,0,1-.575-.308l-1.383-2.074a.691.691,0,0,1,1.15-.767l1.383,2.074a.691.691,0,0,1-.575,1.076Z" transform="translate(-170.661 -373.329)"/><path class="b" d="M171.358,378.879a.691.691,0,0,1-.531-1.134l3.456-4.148a.692.692,0,0,1,1.062.886h0l-3.456,4.148A.691.691,0,0,1,171.358,378.879Z" transform="translate(-170.667 -373.347)"/></g><path class="a" d="M427.357,337.579a.691.691,0,0,1-.671-.859l1.383-5.53a.692.692,0,0,1,1.342.335h0l-1.383,5.53A.691.691,0,0,1,427.357,337.579Z" transform="translate(-392.612 -309.586)"/><path class="b" d="M120.579,11.872a3.494,3.494,0,0,0-2.635-1.2h-7.825a.691.691,0,0,0-.68.568l-2.765,15.208a.691.691,0,0,0,.68.814H111.5a.691.691,0,0,0,.671-.524l1.253-5.006h2.225a5.492,5.492,0,0,0,5.413-4.7l.346-2.363h0A3.521,3.521,0,0,0,120.579,11.872Z" transform="translate(-125.198 6)"/></g></svg>