<svg xmlns="http://www.w3.org/2000/svg" width="20.727" height="19" viewBox="0 0 20.727 19">
  <g id="feedback" transform="translate(0 -21.33)">
    <g id="Group_22915" data-name="Group 22915" transform="translate(0 21.33)">
      <g id="Group_22914" data-name="Group 22914" transform="translate(0 0)">
        <path id="Path_32989" data-name="Path 32989" d="M18.733,28.987a.431.431,0,0,0-.471.094L15.6,31.746a1.29,1.29,0,0,1-.661.354l-2.159.432a1.295,1.295,0,0,1-1.524-1.524l.381-1.905H4.75a.432.432,0,0,1,0-.864H12c.015-.017.024-.038.04-.054l1.674-1.674H4.75a.432.432,0,0,1,0-.864h9.5a.421.421,0,0,1,.242.084l2.8-2.8a2.5,2.5,0,0,1,.85-.553.432.432,0,0,0,.078-.762,1.724,1.724,0,0,0-.95-.285H1.727A1.729,1.729,0,0,0,0,23.057V39.9a.432.432,0,0,0,.266.4.427.427,0,0,0,.165.033A.432.432,0,0,0,.737,40.2l4.192-4.192H17.273A1.729,1.729,0,0,0,19,34.285v-4.9A.432.432,0,0,0,18.733,28.987Zm-8.8,2.706H4.75a.432.432,0,1,1,0-.864H9.932a.432.432,0,1,1,0,.864Z" transform="translate(0 -21.33)" fill="#ff6f55"/>
        <path id="Path_32990" data-name="Path 32990" d="M305.647,64a1.663,1.663,0,0,0-1.169.484l-5.256,5.255a.43.43,0,0,0-.118.221l-.432,2.16a.432.432,0,0,0,.423.517.441.441,0,0,0,.084-.008l2.158-.432a.429.429,0,0,0,.221-.118l5.257-5.256h0A1.653,1.653,0,0,0,305.647,64Zm-.685,3.454-1.117-1.117.611-.611,1.117,1.117Z" transform="translate(-286.573 -62.273)" fill="#ff6f55"/>
      </g>
    </g>
  </g>
</svg>
