<svg xmlns="http://www.w3.org/2000/svg" width="16.962" height="18" viewBox="0 0 16.962 18"><defs><style>.a{fill:#ff6f55;}</style></defs><g transform="translate(-14.759)"><g transform="translate(16.815 1.055)"><path class="a" d="M85.164,44.765a2.154,2.154,0,0,1-.321-1.122v-13.1A.537.537,0,0,0,84.376,30a.528.528,0,0,0-.588.524v1.055a.527.527,0,0,1-.527.527H73.241v10.02a2.637,2.637,0,0,0,2.637,2.637h2.637s0-2.727.009-2.763a2.637,2.637,0,0,1,5.27.126c0,.057-.006,2.637-.006,2.637Zm-8.225-4.219H75.884a.527.527,0,0,1,0-1.055h1.055a.527.527,0,0,1,0,1.055Zm5.267-2.109H75.891a.536.536,0,0,1-.538-.468.527.527,0,0,1,.524-.587h6.314a.536.536,0,0,1,.538.468A.527.527,0,0,1,82.206,38.437Zm.006-2.109H75.884a.527.527,0,0,1,0-1.055h6.328a.527.527,0,0,1,0,1.055Zm0-2.109H75.884a.527.527,0,0,1,0-1.055h6.328a.527.527,0,0,1,0,1.055Z" transform="translate(-73.241 -30)"/><g transform="translate(6.334 10.547)"><path class="a" d="M254.994,333.164a1.548,1.548,0,0,1-1.054-.411l-.006-.005-.006-.005a1.531,1.531,0,0,1-.516-1.16,1.582,1.582,0,1,1,3.164,0,1.549,1.549,0,0,1-.527,1.17l-.006.005-.006.005A1.528,1.528,0,0,1,254.994,333.164Z" transform="translate(-253.412 -330)"/></g></g><path class="a" d="M434.369,346.762h-.005a1.122,1.122,0,0,1-1.122-1.122V343h1.723a.527.527,0,0,1,.527.527v2.112A1.122,1.122,0,0,1,434.369,346.762Z" transform="translate(-403.77 -330.941)"/><path class="a" d="M14.759,1.582a.527.527,0,0,0,.527.527H26.307V1.582A1.584,1.584,0,0,1,27.889,0H16.341A1.582,1.582,0,0,0,14.759,1.582Z"/><path class="a" d="M254.829,435.235a2.6,2.6,0,0,1-1.588-.538v2.19a.528.528,0,0,0,.763.472l.819-.409.819.409a.528.528,0,0,0,.763-.472v-2.18A2.588,2.588,0,0,1,254.829,435.235Z" transform="translate(-230.098 -419.415)"/></g></svg>