<svg id="list" xmlns="http://www.w3.org/2000/svg" width="18.16" height="18.16" viewBox="0 0 18.16 18.16">
  <path id="Path_32929" data-name="Path 32929" d="M2.554,5.108A2.554,2.554,0,1,1,5.108,2.554,2.557,2.557,0,0,1,2.554,5.108Zm0-3.973A1.419,1.419,0,1,0,3.973,2.554,1.42,1.42,0,0,0,2.554,1.135Z" fill="#ff6f55"/>
  <path id="Path_32930" data-name="Path 32930" d="M2.554,189.108a2.554,2.554,0,1,1,2.554-2.554A2.557,2.557,0,0,1,2.554,189.108Zm0-3.973a1.419,1.419,0,1,0,1.419,1.419A1.42,1.42,0,0,0,2.554,185.135Z" transform="translate(0 -177.474)" fill="#ff6f55"/>
  <path id="Path_32931" data-name="Path 32931" d="M2.554,373.108a2.554,2.554,0,1,1,2.554-2.554A2.557,2.557,0,0,1,2.554,373.108Zm0-3.973a1.419,1.419,0,1,0,1.419,1.419A1.42,1.42,0,0,0,2.554,369.135Z" transform="translate(0 -354.947)" fill="#ff6f55"/>
  <path id="Path_32932" data-name="Path 32932" d="M185.364,5.108h-6.81a2.554,2.554,0,0,1,0-5.108h6.81a2.554,2.554,0,1,1,0,5.108Z" transform="translate(-169.757)" fill="#ff6f55"/>
  <path id="Path_32933" data-name="Path 32933" d="M185.364,189.108h-6.81a2.554,2.554,0,1,1,0-5.108h6.81a2.554,2.554,0,1,1,0,5.108Z" transform="translate(-169.757 -177.474)" fill="#ff6f55"/>
  <path id="Path_32934" data-name="Path 32934" d="M185.364,373.108h-6.81a2.554,2.554,0,0,1,0-5.108h6.81a2.554,2.554,0,1,1,0,5.108Z" transform="translate(-169.757 -354.947)" fill="#ff6f55"/>
</svg>
