<svg id="news" xmlns="http://www.w3.org/2000/svg" width="18" height="18" viewBox="0 0 18 18">
  <path id="Path_32966" data-name="Path 32966" d="M158.226,153.682h2.91V150.5h-2.505A15.833,15.833,0,0,0,158.226,153.682Z" transform="translate(-152.663 -145.209)" fill="#ff6f55"/>
  <path id="Path_32967" data-name="Path 32967" d="M271,153.682h2.91a15.834,15.834,0,0,0-.4-3.182H271Z" transform="translate(-261.473 -145.209)" fill="#ff6f55"/>
  <path id="Path_32968" data-name="Path 32968" d="M373.394,153.682h4.492a8.949,8.949,0,0,0-.78-3.182h-4.091A17.118,17.118,0,0,1,373.394,153.682Z" transform="translate(-359.901 -145.209)" fill="#ff6f55"/>
  <path id="Path_32969" data-name="Path 32969" d="M5.314,150.5H1.223a8.949,8.949,0,0,0-.78,3.182H4.935a17.12,17.12,0,0,1,.379-3.182Z" transform="translate(-0.427 -145.209)" fill="#ff6f55"/>
  <path id="Path_32970" data-name="Path 32970" d="M180.507,32.973a3.885,3.885,0,0,0-1.8,2.074,9.588,9.588,0,0,0-.4,1h2.2Z" transform="translate(-172.035 -31.814)" fill="#ff6f55"/>
  <path id="Path_32971" data-name="Path 32971" d="M43.058,2.785C43.9.989,45.067,0,46.344,0A8.941,8.941,0,0,0,39.98,2.636a9.072,9.072,0,0,0-1.275,1.6h3.8A10.952,10.952,0,0,1,43.058,2.785Z" transform="translate(-37.344 0)" fill="#ff6f55"/>
  <path id="Path_32972" data-name="Path 32972" d="M259.287,2.785a10.947,10.947,0,0,1,.552,1.451h3.8a9.074,9.074,0,0,0-1.275-1.6A8.941,8.941,0,0,0,256,0c1.277,0,2.444.989,3.287,2.785Z" transform="translate(-247)" fill="#ff6f55"/>
  <path id="Path_32973" data-name="Path 32973" d="M271,32.973V36.05h2.2a9.588,9.588,0,0,0-.4-1A3.885,3.885,0,0,0,271,32.973Z" transform="translate(-261.473 -31.814)" fill="#ff6f55"/>
  <path id="Path_32974" data-name="Path 32974" d="M0,271v7.945a.527.527,0,0,0,.527.527H17.473a.527.527,0,0,0,.527-.527V271Zm4.83,6.2a.48.48,0,0,1-.543-.2L2.952,275.07v1.748a.439.439,0,0,1-.879,0V273.66a.439.439,0,0,1,.8-.25l1.4,2.033-.017-1.785a.439.439,0,0,1,.435-.444h0a.439.439,0,0,1,.439.435l.03,3.057v0a.5.5,0,0,1-.34.489Zm2.629-2.4a.439.439,0,0,1,0,.879h-.8v.7h.894a.439.439,0,0,1,0,.879H6.224a.439.439,0,0,1-.439-.439v-3.164a.439.439,0,0,1,.439-.439H7.557a.439.439,0,0,1,0,.879H6.663v.7Zm5.338-1.051-.619,3.11a.437.437,0,0,1-.015.056.511.511,0,0,1-.48.346h0a.511.511,0,0,1-.481-.34l-.006-.018-.54-1.754L10.11,276.9l0,.012a.511.511,0,0,1-.48.346h0a.511.511,0,0,1-.481-.34.447.447,0,0,1-.017-.062l-.616-3.117a.439.439,0,1,1,.862-.171l.332,1.677.522-1.688a.439.439,0,0,1,.849-.034l.53,1.721.333-1.672a.439.439,0,1,1,.862.172Zm3.172,2.464a1.349,1.349,0,0,1-1.375,1.048,1.922,1.922,0,0,1-1.428-.613.439.439,0,0,1,.651-.59,1.057,1.057,0,0,0,.777.325.49.49,0,0,0,.509-.324c.037-.208-.287-.345-.387-.382-.492-.182-.929-.376-.947-.384a.438.438,0,0,1-.061-.033,1.049,1.049,0,0,1-.468-1.039,1.156,1.156,0,0,1,.837-.934,1.882,1.882,0,0,1,1.635.35.439.439,0,1,1-.553.682h0l0,0a1.011,1.011,0,0,0-.831-.194.276.276,0,0,0-.221.218.177.177,0,0,0,.057.162c.117.051.472.2.853.345A1.233,1.233,0,0,1,15.969,276.21Z" transform="translate(0 -261.473)" fill="#ff6f55"/>
</svg>
