<svg xmlns="http://www.w3.org/2000/svg" width="56.001" height="19.467" viewBox="0 0 56.001 19.467"><defs><style>.a{fill:#2fabf7;}.b{fill:#228fe0;}.c{fill:#0571c1;}</style></defs><g transform="translate(0 -164.4)"><path class="a" d="M43.2,187.689h1.956l-.978-2.489Z" transform="translate(-38.4 -18.489)"/><path class="b" d="M241.689,187.689a1.733,1.733,0,0,0-.711-.089H239.2v1.422h1.778a1.733,1.733,0,0,0,.711-.089.692.692,0,0,0,.267-.622A.494.494,0,0,0,241.689,187.689Z" transform="translate(-212.622 -20.622)"/><path class="c" d="M48.09,164.4v1.067l-.533-1.067H43.378v1.067l-.533-1.067H37.156a5.412,5.412,0,0,0-2.489.533V164.4h-4v.533a2.563,2.563,0,0,0-1.689-.533H14.667l-.978,2.222-.978-2.222H8.178v1.067L7.645,164.4H3.822l-1.778,4.178L0,173.2H4.533l.533-1.422H6.311l.533,1.422H12v-1.067l.444,1.067h2.578l.444-1.067V173.2H27.823v-2.311H28c.178,0,.178,0,.178.267v1.956h6.4v-.533a5.325,5.325,0,0,0,2.4.533h2.667l.533-1.422h1.244l.533,1.422h5.156v-1.333l.8,1.333H52.09V164.4Zm-30.045,7.467H16.534v-4.889L14.4,171.867H13.067l-2.133-4.889v4.889H7.911l-.622-1.333H4.267l-.533,1.422H2.044l2.667-6.311H6.933L9.422,171.6v-5.956h2.4l1.956,4.267,1.778-4.267h2.489Zm6.045-4.889H20.622v1.156H24v1.244H20.622v1.244h3.467v1.333H19.111v-6.311h4.978Zm6.667,2.578a2.224,2.224,0,0,1,.267,1.156v1.244H29.511v-.8a2.117,2.117,0,0,0-.267-1.244c-.267-.267-.533-.267-1.067-.267h-1.6v2.311H25.067v-6.311h3.378a3.408,3.408,0,0,1,1.778.267,1.515,1.515,0,0,1,.711,1.422,1.77,1.77,0,0,1-1.067,1.689A1.69,1.69,0,0,1,30.756,169.556Zm2.667,2.311H31.912v-6.311h1.511Zm17.511,0H48.8l-2.844-4.711v4.711H42.934l-.533-1.333H39.289l-.533,1.422H37.067a2.672,2.672,0,0,1-2.933-3.111,3.644,3.644,0,0,1,.8-2.489,2.8,2.8,0,0,1,2.222-.711h1.422v1.333H37.156a1.639,1.639,0,0,0-1.156.356,2.087,2.087,0,0,0-.444,1.422A1.934,1.934,0,0,0,36,170.267a1.417,1.417,0,0,0,1.067.356h.622l2.044-4.889h2.222l2.489,5.956v-5.956h2.222l2.578,4.356v-4.356h1.511v6.133Z" transform="translate(0 0)"/><g transform="translate(22.4 166.711)"><path class="b" d="M358.4,187.689h2.044l-.978-2.489Z" transform="translate(-340.978 -185.2)"/><path class="b" d="M203.911,282.267V277.2l-2.311,2.489Z" transform="translate(-201.6 -266.978)"/></g><path class="a" d="M136.8,282.8v1.156h3.289V285.2H136.8v1.333h3.645l1.689-1.867-1.6-1.867Z" transform="translate(-121.6 -105.244)"/><path class="b" d="M237.867,282.8H236v1.6h1.956c.533,0,.889-.267.889-.8A.9.9,0,0,0,237.867,282.8Z" transform="translate(-209.777 -105.244)"/><path class="c" d="M154.4,264.4v-4h-3.733a2.917,2.917,0,0,0-1.867.533V260.4h-4.089a2.821,2.821,0,0,0-1.778.533V260.4h-7.2v.533a3.436,3.436,0,0,0-1.956-.533h-4.8v.533a3.373,3.373,0,0,0-2.044-.533H121.6l-1.244,1.333L119.2,260.4h-8v8.711h7.822l1.244-1.333,1.156,1.333h4.8v-2.044h.622a5.408,5.408,0,0,0,2.044-.267v2.4h4v-2.311h.178c.267,0,.267,0,.267.267V269.2h12.089a3.485,3.485,0,0,0,2.044-.533v.533h3.822a3.992,3.992,0,0,0,2.133-.444h0a3.026,3.026,0,0,0,1.422-2.667A3.4,3.4,0,0,0,154.4,264.4Zm-27.556,1.422h-1.778v2.133h-2.844l-1.778-2.044-1.867,2.044h-5.867v-6.311h5.956l1.778,2.044,1.867-2.044h4.711c1.156,0,2.489.356,2.489,2.044C129.422,265.467,128.178,265.822,126.845,265.822Zm8.889-.356a2.017,2.017,0,0,1,.267,1.156v1.244h-1.511v-.8a1.984,1.984,0,0,0-.267-1.244c-.178-.267-.533-.267-1.067-.267h-1.6v2.311h-1.511v-6.311h3.378a3.579,3.579,0,0,1,1.778.267,1.572,1.572,0,0,1,.8,1.422,1.77,1.77,0,0,1-1.067,1.689A1.52,1.52,0,0,1,135.734,265.467Zm6.133-2.578H138.4v1.156h3.378v1.244H138.4v1.244h3.467v1.333h-4.978v-6.311h4.978Zm3.733,4.978h-2.844v-1.333H145.6a.75.75,0,0,0,.622-.178.644.644,0,0,0,0-.889.751.751,0,0,0-.533-.178c-1.422-.089-3.111,0-3.111-1.956,0-.889.533-1.867,2.133-1.867h2.933v1.511h-2.756a1.318,1.318,0,0,0-.622.089c-.178.089-.178.267-.178.444,0,.267.178.356.356.444a1.128,1.128,0,0,0,.533.089h.8a2.263,2.263,0,0,1,1.689.533,1.84,1.84,0,0,1,.444,1.333C147.912,267.245,147.112,267.867,145.6,267.867Zm7.645-.622a2.592,2.592,0,0,1-1.867.622h-2.844v-1.333h2.844a.75.75,0,0,0,.622-.178.644.644,0,0,0,0-.889.751.751,0,0,0-.533-.178c-1.422-.089-3.111,0-3.111-1.956,0-.889.533-1.867,2.133-1.867h2.933v1.511h-2.667a1.318,1.318,0,0,0-.622.089c-.178.089-.178.267-.178.444,0,.267.089.356.356.444a1.128,1.128,0,0,0,.533.089h.8a2.263,2.263,0,0,1,1.689.533.087.087,0,0,1,.089.089,2.041,2.041,0,0,1,.356,1.244A1.809,1.809,0,0,1,153.245,267.245Z" transform="translate(-98.844 -85.333)"/><path class="b" d="M297.689,283.689a1.733,1.733,0,0,0-.711-.089H295.2v1.422h1.778a1.734,1.734,0,0,0,.711-.089.692.692,0,0,0,.267-.622A.494.494,0,0,0,297.689,283.689Z" transform="translate(-262.4 -105.955)"/><g transform="translate(22.4 166.711)"><path class="b" d="M241.689,187.689a1.733,1.733,0,0,0-.711-.089H239.2v1.422h1.778a1.733,1.733,0,0,0,.711-.089.692.692,0,0,0,.267-.622A.494.494,0,0,0,241.689,187.689Z" transform="translate(-235.022 -187.333)"/><path class="b" d="M358.4,187.689h2.044l-.978-2.489Z" transform="translate(-340.978 -185.2)"/><path class="b" d="M203.911,282.267V277.2l-2.311,2.489Z" transform="translate(-201.6 -266.978)"/></g><g transform="translate(26.223 177.556)"><path class="b" d="M237.867,282.8H236v1.6h1.956c.533,0,.889-.267.889-.8A.9.9,0,0,0,237.867,282.8Z" transform="translate(-236 -282.8)"/></g><g transform="translate(32.8 177.645)"><path class="b" d="M297.689,283.689a1.733,1.733,0,0,0-.711-.089H295.2v1.422h1.778a1.734,1.734,0,0,0,.711-.089.692.692,0,0,0,.267-.622A.494.494,0,0,0,297.689,283.689Z" transform="translate(-295.2 -283.6)"/></g><g transform="translate(0 164.4)"><path class="a" d="M126.311,267.689l-1.244-1.333v1.511h-2.933l-1.778-2.044-1.956,2.044h-5.867v-6.222h5.956l1.867,2.044.889-1.067-2.222-2.222H111.2v8.711h7.822l1.333-1.333,1.156,1.333h4.8Z" transform="translate(-98.844 -249.733)"/><path class="a" d="M18.222,173.111l-1.156-1.244h-.533v-.533L15.2,170l-.889,1.867H13.067l-2.133-4.889v4.889H7.911l-.622-1.333H4.267l-.622,1.333h-1.6l2.667-6.222H6.933L9.422,171.6v-5.956h1.333L9.511,164.4H8.178v1.067L7.733,164.4H3.822l-1.778,4.178L0,173.111H4.622l.533-1.333H6.4l.622,1.333H12v-1.067l.444,1.067h2.578l.444-1.067v1.067Z" transform="translate(0 -164.4)"/><path class="a" d="M115.822,194.622,114.4,193.2l1.067,2.311Z" transform="translate(-101.689 -190)"/></g><g transform="translate(8.8 164.489)"><path class="b" d="M209.6,266.533a3.252,3.252,0,0,0,1.422-2.4l-1.244-1.244a2.63,2.63,0,0,1,.178.889,1.809,1.809,0,0,1-.533,1.333,2.592,2.592,0,0,1-1.867.622h-2.844V264.4h2.844a.75.75,0,0,0,.622-.178.644.644,0,0,0,0-.889.752.752,0,0,0-.533-.178c-1.422-.089-3.111,0-3.111-1.956,0-.889.533-1.689,1.867-1.867l-.978-.978c-.178.089-.267.178-.356.178V258h-4.089a2.821,2.821,0,0,0-1.778.533V258h-7.289v.533a3.436,3.436,0,0,0-1.956-.533h-4.8v.533a3.373,3.373,0,0,0-2.044-.533h-5.333l-1.244,1.333L175.378,258H174.4l2.667,2.667,1.333-1.422h4.711c1.156,0,2.489.356,2.489,2.044,0,1.778-1.244,2.133-2.578,2.133h-1.778v1.333l1.333,1.333v-1.333h.444a5.408,5.408,0,0,0,2.044-.267v2.4h4v-2.311h.178c.267,0,.267,0,.267.267v2.044H201.6a3.485,3.485,0,0,0,2.044-.533v.533h3.822a3.526,3.526,0,0,0,2.133-.356Zm-17.689-3.2a2.017,2.017,0,0,1,.267,1.156v1.244h-1.511v-.8a1.984,1.984,0,0,0-.267-1.244c-.178-.267-.533-.267-1.067-.267h-1.6v2.311h-1.511v-6.311H189.6a3.579,3.579,0,0,1,1.778.267,1.572,1.572,0,0,1,.8,1.422,1.77,1.77,0,0,1-1.067,1.689A1.52,1.52,0,0,1,191.911,263.333Zm6.133-2.578h-3.467v1.156h3.378v1.244h-3.378V264.4h3.467v1.333h-4.978v-6.311h4.978Zm3.733,4.978h-2.844V264.4h2.844a.75.75,0,0,0,.622-.178.644.644,0,0,0,0-.889.752.752,0,0,0-.533-.178c-1.422-.089-3.111,0-3.111-1.956,0-.889.533-1.867,2.133-1.867h2.933v1.511h-2.756a1.318,1.318,0,0,0-.622.089c-.178.089-.178.267-.178.444,0,.267.178.356.356.444a1.127,1.127,0,0,0,.533.089h.8a2.263,2.263,0,0,1,1.689.533,1.84,1.84,0,0,1,.444,1.333C204.089,265.111,203.289,265.733,201.778,265.733Z" transform="translate(-163.822 -247.689)"/><path class="b" d="M459.2,284.133c0,.267.089.356.356.444a1.128,1.128,0,0,0,.533.089h.8a2.582,2.582,0,0,1,1.244.267L460.8,283.6H460a1.318,1.318,0,0,0-.622.089A.679.679,0,0,0,459.2,284.133Z" transform="translate(-416.977 -270.444)"/><path class="b" d="M431.2,240.4l.178.267h.089Z" transform="translate(-392.088 -232.044)"/><path class="b" d="M387.2,196.4l1.511,3.644v-2.133Z" transform="translate(-352.977 -192.933)"/><path class="b" d="M98.222,171.6H98.4c.178,0,.178,0,.178.267v1.956h6.4v-.533a5.325,5.325,0,0,0,2.4.533h2.667l.533-1.422h1.244l.533,1.422h5.156v-.889l-1.244-1.244v.978h-3.022l-.444-1.422h-3.111l-.533,1.422h-1.689a2.672,2.672,0,0,1-2.933-3.111,3.644,3.644,0,0,1,.8-2.489,2.8,2.8,0,0,1,2.222-.711h1.422v1.333h-1.422a1.639,1.639,0,0,0-1.156.356,2.087,2.087,0,0,0-.444,1.422,1.934,1.934,0,0,0,.444,1.511,1.417,1.417,0,0,0,1.067.356h.622l2.044-4.889h.889l-1.244-1.244h-2.311a5.412,5.412,0,0,0-2.489.533V165.2h-3.911v.533a2.563,2.563,0,0,0-1.689-.533H85.067l-.978,2.222-.978-2.222H79.2l1.244,1.244h1.778l1.511,3.289.533.533,1.6-3.911h2.489v6.311H86.845v-4.889l-1.511,3.556,2.578,2.578H98.134Zm4.089-5.245h1.511v6.311h-1.511Zm-7.822,1.333H91.022v1.156H94.4v1.244H91.022v1.244h3.467v1.333H89.511v-6.311h4.978Zm2.489,4.889H95.467v-6.311h3.378a3.408,3.408,0,0,1,1.778.267,1.515,1.515,0,0,1,.711,1.422,1.77,1.77,0,0,1-1.067,1.689,1.164,1.164,0,0,1,.711.533,2.224,2.224,0,0,1,.267,1.156v1.244H99.734v-.8a2.118,2.118,0,0,0-.267-1.244c-.089-.178-.356-.178-.889-.178h-1.6v2.222Z" transform="translate(-79.2 -165.2)"/></g></g></svg>