<svg xmlns="http://www.w3.org/2000/svg" width="18.783" height="18" viewBox="0 0 18.783 18">
  <g id="like_1_" data-name="like (1)" transform="translate(0 -10.667)">
    <g id="Group_22911" data-name="Group 22911" transform="translate(0 18.493)">
      <g id="Group_22910" data-name="Group 22910">
        <path id="Path_32964" data-name="Path 32964" d="M1.957,224A1.959,1.959,0,0,0,0,225.957v6.261a1.959,1.959,0,0,0,1.957,1.957H4.3a1.943,1.943,0,0,0,1.174-.4V224Z" transform="translate(0 -224)" fill="#ff6f55"/>
      </g>
    </g>
    <g id="Group_22913" data-name="Group 22913" transform="translate(6.261 10.667)">
      <g id="Group_22912" data-name="Group 22912">
        <path id="Path_32965" data-name="Path 32965" d="M183.189,21.428a1.735,1.735,0,0,0-.509-1.232,1.943,1.943,0,0,0,.5-1.494,2.023,2.023,0,0,0-2.041-1.774H176.3a11.253,11.253,0,0,0,.623-3.13c0-1.7-1.442-3.13-2.348-3.13a2.462,2.462,0,0,0-1.419.477.393.393,0,0,0-.146.306V14.1l-2.254,4.883-.094.048v8.388a5.127,5.127,0,0,0,1.957.463h7.184a1.8,1.8,0,0,0,1.773-1.367,1.761,1.761,0,0,0-.142-1.175,1.753,1.753,0,0,0,.783-2.349A1.752,1.752,0,0,0,183.189,21.428Z" transform="translate(-170.667 -10.667)" fill="#ff6f55"/>
      </g>
    </g>
  </g>
</svg>
