<svg xmlns="http://www.w3.org/2000/svg" width="18.667" height="14.226" viewBox="0 0 18.667 14.226">
  <path id="Icon_awesome-sign-out-alt" data-name="Icon awesome-sign-out-alt" d="M18.409,12.241l-6.223,6.223a.89.89,0,0,1-1.519-.63V14.278H5.63a.887.887,0,0,1-.889-.889V9.833a.887.887,0,0,1,.889-.889h5.037V5.388a.891.891,0,0,1,1.519-.63l6.223,6.223A.9.9,0,0,1,18.409,12.241Zm-11.3,6.038V16.8a.446.446,0,0,0-.444-.444H3.556a1.184,1.184,0,0,1-1.185-1.185V8.055A1.184,1.184,0,0,1,3.556,6.87H6.667a.446.446,0,0,0,.444-.444V4.944A.446.446,0,0,0,6.667,4.5H3.556A3.557,3.557,0,0,0,0,8.055v7.112a3.557,3.557,0,0,0,3.556,3.556H6.667A.446.446,0,0,0,7.112,18.278Z" transform="translate(0 -4.499)" fill="#ff6f55"/>
</svg>
