<svg xmlns="http://www.w3.org/2000/svg" width="18.344" height="18.351" viewBox="0 0 18.344 18.351">
  <g id="manuscript" transform="translate(-0.096)">
    <g id="Group_22896" data-name="Group 22896" transform="translate(0.096 0)">
      <path id="Path_32953" data-name="Path 32953" d="M45.919,434.487a2.674,2.674,0,0,0,2.77-2.623v-.072c0-.123.1-.187.223-.187H57.84a1.441,1.441,0,1,1-.006,2.881Z" transform="translate(-44.277 -416.137)" fill="#ff6f55"/>
      <path id="Path_32954" data-name="Path 32954" d="M6.674,13.613a1.617,1.617,0,0,1-1.519-1.069H1.806a.548.548,0,0,1-.552-.512.538.538,0,0,1,.537-.564H5.15a1.6,1.6,0,0,1,.5-.715l.438-.36H1.806a.548.548,0,0,1-.552-.512.538.538,0,0,1,.537-.564H7.4l.819-.673v-.4H1.806a.548.548,0,0,1-.552-.512.538.538,0,0,1,.537-.564H8.215V6.712a1.618,1.618,0,0,1,.122-.619H1.806a.548.548,0,0,1-.552-.512.538.538,0,0,1,.537-.564H9.355L10.827,3.83V.538A.538.538,0,0,0,10.29,0H.634A.538.538,0,0,0,.1.538V15.656a1.6,1.6,0,0,0,1.642,1.552,1.593,1.593,0,0,0,1.628-1.552,1.364,1.364,0,0,1,1.37-1.364l6.092.024V10.674L7.7,13.246A1.616,1.616,0,0,1,6.674,13.613ZM1.791,2.867H4.8a.548.548,0,0,1,.552.512.538.538,0,0,1-.537.564H1.806a.548.548,0,0,1-.552-.512A.538.538,0,0,1,1.791,2.867Zm.527,11.395a.538.538,0,1,1-.251-.566.543.543,0,0,1,.251.566Z" transform="translate(-0.096 0)" fill="#ff6f55"/>
    </g>
    <g id="Group_22899" data-name="Group 22899" transform="translate(6.136 1.958)">
      <g id="Group_22898" data-name="Group 22898" transform="translate(3.154)">
        <g id="Group_22897" data-name="Group 22897" transform="translate(0 2.615)">
          <path id="Path_32955" data-name="Path 32955" d="M258.939,128.861v-1.275l-2.128,1.717a.542.542,0,0,0-.2.422v1.05Z" transform="translate(-256.609 -127.586)" fill="#ff6f55"/>
          <path id="Path_32956" data-name="Path 32956" d="M317.187,232.9l.95.169a.542.542,0,0,0,.435-.112l2.121-1.711-1.228-.219Z" transform="translate(-315.016 -227.322)" fill="#ff6f55"/>
        </g>
        <path id="Path_32957" data-name="Path 32957" d="M356.736,55.547a2.687,2.687,0,0,0-3.7-.327L351.6,56.378v1.258l1.15-.945a1.613,1.613,0,1,1,2.048,2.492l-1.061.872,1.245.222,1.417-1.143A2.492,2.492,0,0,0,356.736,55.547Z" transform="translate(-348.195 -54.631)" fill="#ff6f55"/>
      </g>
      <path id="Path_32958" data-name="Path 32958" d="M169.155,139.7a.538.538,0,0,1-.342-.953l8.195-6.735a.538.538,0,1,1,.683.831l-8.195,6.735a.535.535,0,0,1-.341.122Z" transform="translate(-168.617 -129.124)" fill="#ff6f55"/>
    </g>
  </g>
</svg>
